<?xml version="1.0" encoding="utf-8" standalone="no"?>
<!DOCTYPE svg PUBLIC "-//W3C//DTD SVG 1.1//EN"
  "http://www.w3.org/Graphics/SVG/1.1/DTD/svg11.dtd">
<!-- Created with matplotlib (https://matplotlib.org/) -->
<svg height="360pt" version="1.1" viewBox="0 0 1080 360" width="1080pt" xmlns="http://www.w3.org/2000/svg" xmlns:xlink="http://www.w3.org/1999/xlink">
 <metadata>
  <rdf:RDF xmlns:cc="http://creativecommons.org/ns#" xmlns:dc="http://purl.org/dc/elements/1.1/" xmlns:rdf="http://www.w3.org/1999/02/22-rdf-syntax-ns#">
   <cc:Work>
    <dc:type rdf:resource="http://purl.org/dc/dcmitype/StillImage"/>
    <dc:date>2022-11-03T15:24:28.286547</dc:date>
    <dc:format>image/svg+xml</dc:format>
    <dc:creator>
     <cc:Agent>
      <dc:title>Matplotlib v3.3.4, https://matplotlib.org/</dc:title>
     </cc:Agent>
    </dc:creator>
   </cc:Work>
  </rdf:RDF>
 </metadata>
 <defs>
  <style type="text/css">*{stroke-linecap:butt;stroke-linejoin:round;}</style>
 </defs>
 <g id="figure_1">
  <g id="patch_1">
   <path d="M 0 360 
L 1080 360 
L 1080 0 
L 0 0 
z
" style="fill:#ffffff;"/>
  </g>
  <g id="axes_1">
   <g id="patch_2">
    <path d="M 135 315 
L 972 315 
L 972 43.2 
L 135 43.2 
z
" style="fill:#ffffff;"/>
   </g>
   <g id="matplotlib.axis_1">
    <g id="xtick_1">
     <g id="text_1">
      <!-- 0 -->
      <g style="fill:#262626;" transform="translate(159.652511 347.216563)scale(0.22 -0.22)">
       <defs>
        <path d="M 31.78125 66.40625 
Q 24.171875 66.40625 20.328125 58.90625 
Q 16.5 51.421875 16.5 36.375 
Q 16.5 21.390625 20.328125 13.890625 
Q 24.171875 6.390625 31.78125 6.390625 
Q 39.453125 6.390625 43.28125 13.890625 
Q 47.125 21.390625 47.125 36.375 
Q 47.125 51.421875 43.28125 58.90625 
Q 39.453125 66.40625 31.78125 66.40625 
z
M 31.78125 74.21875 
Q 44.046875 74.21875 50.515625 64.515625 
Q 56.984375 54.828125 56.984375 36.375 
Q 56.984375 17.96875 50.515625 8.265625 
Q 44.046875 -1.421875 31.78125 -1.421875 
Q 19.53125 -1.421875 13.0625 8.265625 
Q 6.59375 17.96875 6.59375 36.375 
Q 6.59375 54.828125 13.0625 64.515625 
Q 19.53125 74.21875 31.78125 74.21875 
z
" id="DejaVuSans-48"/>
       </defs>
       <use xlink:href="#DejaVuSans-48"/>
      </g>
     </g>
    </g>
    <g id="xtick_2">
     <g id="text_2">
      <!-- 1 -->
      <g style="fill:#262626;" transform="translate(281.612083 347.216563)scale(0.22 -0.22)">
       <defs>
        <path d="M 12.40625 8.296875 
L 28.515625 8.296875 
L 28.515625 63.921875 
L 10.984375 60.40625 
L 10.984375 69.390625 
L 28.421875 72.90625 
L 38.28125 72.90625 
L 38.28125 8.296875 
L 54.390625 8.296875 
L 54.390625 0 
L 12.40625 0 
z
" id="DejaVuSans-49"/>
       </defs>
       <use xlink:href="#DejaVuSans-49"/>
      </g>
     </g>
    </g>
    <g id="xtick_3">
     <g id="text_3">
      <!-- 2 -->
      <g style="fill:#262626;" transform="translate(403.571656 347.216563)scale(0.22 -0.22)">
       <defs>
        <path d="M 19.1875 8.296875 
L 53.609375 8.296875 
L 53.609375 0 
L 7.328125 0 
L 7.328125 8.296875 
Q 12.9375 14.109375 22.625 23.890625 
Q 32.328125 33.6875 34.8125 36.53125 
Q 39.546875 41.84375 41.421875 45.53125 
Q 43.3125 49.21875 43.3125 52.78125 
Q 43.3125 58.59375 39.234375 62.25 
Q 35.15625 65.921875 28.609375 65.921875 
Q 23.96875 65.921875 18.8125 64.3125 
Q 13.671875 62.703125 7.8125 59.421875 
L 7.8125 69.390625 
Q 13.765625 71.78125 18.9375 73 
Q 24.125 74.21875 28.421875 74.21875 
Q 39.75 74.21875 46.484375 68.546875 
Q 53.21875 62.890625 53.21875 53.421875 
Q 53.21875 48.921875 51.53125 44.890625 
Q 49.859375 40.875 45.40625 35.40625 
Q 44.1875 33.984375 37.640625 27.21875 
Q 31.109375 20.453125 19.1875 8.296875 
z
" id="DejaVuSans-50"/>
       </defs>
       <use xlink:href="#DejaVuSans-50"/>
      </g>
     </g>
    </g>
    <g id="xtick_4">
     <g id="text_4">
      <!-- 3 -->
      <g style="fill:#262626;" transform="translate(525.531228 347.216563)scale(0.22 -0.22)">
       <defs>
        <path d="M 40.578125 39.3125 
Q 47.65625 37.796875 51.625 33 
Q 55.609375 28.21875 55.609375 21.1875 
Q 55.609375 10.40625 48.1875 4.484375 
Q 40.765625 -1.421875 27.09375 -1.421875 
Q 22.515625 -1.421875 17.65625 -0.515625 
Q 12.796875 0.390625 7.625 2.203125 
L 7.625 11.71875 
Q 11.71875 9.328125 16.59375 8.109375 
Q 21.484375 6.890625 26.8125 6.890625 
Q 36.078125 6.890625 40.9375 10.546875 
Q 45.796875 14.203125 45.796875 21.1875 
Q 45.796875 27.640625 41.28125 31.265625 
Q 36.765625 34.90625 28.71875 34.90625 
L 20.21875 34.90625 
L 20.21875 43.015625 
L 29.109375 43.015625 
Q 36.375 43.015625 40.234375 45.921875 
Q 44.09375 48.828125 44.09375 54.296875 
Q 44.09375 59.90625 40.109375 62.90625 
Q 36.140625 65.921875 28.71875 65.921875 
Q 24.65625 65.921875 20.015625 65.03125 
Q 15.375 64.15625 9.8125 62.3125 
L 9.8125 71.09375 
Q 15.4375 72.65625 20.34375 73.4375 
Q 25.25 74.21875 29.59375 74.21875 
Q 40.828125 74.21875 47.359375 69.109375 
Q 53.90625 64.015625 53.90625 55.328125 
Q 53.90625 49.265625 50.4375 45.09375 
Q 46.96875 40.921875 40.578125 39.3125 
z
" id="DejaVuSans-51"/>
       </defs>
       <use xlink:href="#DejaVuSans-51"/>
      </g>
     </g>
    </g>
    <g id="xtick_5">
     <g id="text_5">
      <!-- 4 -->
      <g style="fill:#262626;" transform="translate(647.490801 347.216563)scale(0.22 -0.22)">
       <defs>
        <path d="M 37.796875 64.3125 
L 12.890625 25.390625 
L 37.796875 25.390625 
z
M 35.203125 72.90625 
L 47.609375 72.90625 
L 47.609375 25.390625 
L 58.015625 25.390625 
L 58.015625 17.1875 
L 47.609375 17.1875 
L 47.609375 0 
L 37.796875 0 
L 37.796875 17.1875 
L 4.890625 17.1875 
L 4.890625 26.703125 
z
" id="DejaVuSans-52"/>
       </defs>
       <use xlink:href="#DejaVuSans-52"/>
      </g>
     </g>
    </g>
    <g id="xtick_6">
     <g id="text_6">
      <!-- 5 -->
      <g style="fill:#262626;" transform="translate(769.450374 347.216563)scale(0.22 -0.22)">
       <defs>
        <path d="M 10.796875 72.90625 
L 49.515625 72.90625 
L 49.515625 64.59375 
L 19.828125 64.59375 
L 19.828125 46.734375 
Q 21.96875 47.46875 24.109375 47.828125 
Q 26.265625 48.1875 28.421875 48.1875 
Q 40.625 48.1875 47.75 41.5 
Q 54.890625 34.8125 54.890625 23.390625 
Q 54.890625 11.625 47.5625 5.09375 
Q 40.234375 -1.421875 26.90625 -1.421875 
Q 22.3125 -1.421875 17.546875 -0.640625 
Q 12.796875 0.140625 7.71875 1.703125 
L 7.71875 11.625 
Q 12.109375 9.234375 16.796875 8.0625 
Q 21.484375 6.890625 26.703125 6.890625 
Q 35.15625 6.890625 40.078125 11.328125 
Q 45.015625 15.765625 45.015625 23.390625 
Q 45.015625 31 40.078125 35.4375 
Q 35.15625 39.890625 26.703125 39.890625 
Q 22.75 39.890625 18.8125 39.015625 
Q 14.890625 38.140625 10.796875 36.28125 
z
" id="DejaVuSans-53"/>
       </defs>
       <use xlink:href="#DejaVuSans-53"/>
      </g>
     </g>
    </g>
    <g id="xtick_7">
     <g id="text_7">
      <!-- 6 -->
      <g style="fill:#262626;" transform="translate(891.409946 347.216563)scale(0.22 -0.22)">
       <defs>
        <path d="M 33.015625 40.375 
Q 26.375 40.375 22.484375 35.828125 
Q 18.609375 31.296875 18.609375 23.390625 
Q 18.609375 15.53125 22.484375 10.953125 
Q 26.375 6.390625 33.015625 6.390625 
Q 39.65625 6.390625 43.53125 10.953125 
Q 47.40625 15.53125 47.40625 23.390625 
Q 47.40625 31.296875 43.53125 35.828125 
Q 39.65625 40.375 33.015625 40.375 
z
M 52.59375 71.296875 
L 52.59375 62.3125 
Q 48.875 64.0625 45.09375 64.984375 
Q 41.3125 65.921875 37.59375 65.921875 
Q 27.828125 65.921875 22.671875 59.328125 
Q 17.53125 52.734375 16.796875 39.40625 
Q 19.671875 43.65625 24.015625 45.921875 
Q 28.375 48.1875 33.59375 48.1875 
Q 44.578125 48.1875 50.953125 41.515625 
Q 57.328125 34.859375 57.328125 23.390625 
Q 57.328125 12.15625 50.6875 5.359375 
Q 44.046875 -1.421875 33.015625 -1.421875 
Q 20.359375 -1.421875 13.671875 8.265625 
Q 6.984375 17.96875 6.984375 36.375 
Q 6.984375 53.65625 15.1875 63.9375 
Q 23.390625 74.21875 37.203125 74.21875 
Q 40.921875 74.21875 44.703125 73.484375 
Q 48.484375 72.75 52.59375 71.296875 
z
" id="DejaVuSans-54"/>
       </defs>
       <use xlink:href="#DejaVuSans-54"/>
      </g>
     </g>
    </g>
    <g id="text_8">
     <!-- Chromosome 20 Position -->
     <g style="fill:#262626;" transform="translate(404.20125 374.028125)scale(0.24 -0.24)">
      <defs>
       <path d="M 64.40625 67.28125 
L 64.40625 56.890625 
Q 59.421875 61.53125 53.78125 63.8125 
Q 48.140625 66.109375 41.796875 66.109375 
Q 29.296875 66.109375 22.65625 58.46875 
Q 16.015625 50.828125 16.015625 36.375 
Q 16.015625 21.96875 22.65625 14.328125 
Q 29.296875 6.6875 41.796875 6.6875 
Q 48.140625 6.6875 53.78125 8.984375 
Q 59.421875 11.28125 64.40625 15.921875 
L 64.40625 5.609375 
Q 59.234375 2.09375 53.4375 0.328125 
Q 47.65625 -1.421875 41.21875 -1.421875 
Q 24.65625 -1.421875 15.125 8.703125 
Q 5.609375 18.84375 5.609375 36.375 
Q 5.609375 53.953125 15.125 64.078125 
Q 24.65625 74.21875 41.21875 74.21875 
Q 47.75 74.21875 53.53125 72.484375 
Q 59.328125 70.75 64.40625 67.28125 
z
" id="DejaVuSans-67"/>
       <path d="M 54.890625 33.015625 
L 54.890625 0 
L 45.90625 0 
L 45.90625 32.71875 
Q 45.90625 40.484375 42.875 44.328125 
Q 39.84375 48.1875 33.796875 48.1875 
Q 26.515625 48.1875 22.3125 43.546875 
Q 18.109375 38.921875 18.109375 30.90625 
L 18.109375 0 
L 9.078125 0 
L 9.078125 75.984375 
L 18.109375 75.984375 
L 18.109375 46.1875 
Q 21.34375 51.125 25.703125 53.5625 
Q 30.078125 56 35.796875 56 
Q 45.21875 56 50.046875 50.171875 
Q 54.890625 44.34375 54.890625 33.015625 
z
" id="DejaVuSans-104"/>
       <path d="M 41.109375 46.296875 
Q 39.59375 47.171875 37.8125 47.578125 
Q 36.03125 48 33.890625 48 
Q 26.265625 48 22.1875 43.046875 
Q 18.109375 38.09375 18.109375 28.8125 
L 18.109375 0 
L 9.078125 0 
L 9.078125 54.6875 
L 18.109375 54.6875 
L 18.109375 46.1875 
Q 20.953125 51.171875 25.484375 53.578125 
Q 30.03125 56 36.53125 56 
Q 37.453125 56 38.578125 55.875 
Q 39.703125 55.765625 41.0625 55.515625 
z
" id="DejaVuSans-114"/>
       <path d="M 30.609375 48.390625 
Q 23.390625 48.390625 19.1875 42.75 
Q 14.984375 37.109375 14.984375 27.296875 
Q 14.984375 17.484375 19.15625 11.84375 
Q 23.34375 6.203125 30.609375 6.203125 
Q 37.796875 6.203125 41.984375 11.859375 
Q 46.1875 17.53125 46.1875 27.296875 
Q 46.1875 37.015625 41.984375 42.703125 
Q 37.796875 48.390625 30.609375 48.390625 
z
M 30.609375 56 
Q 42.328125 56 49.015625 48.375 
Q 55.71875 40.765625 55.71875 27.296875 
Q 55.71875 13.875 49.015625 6.21875 
Q 42.328125 -1.421875 30.609375 -1.421875 
Q 18.84375 -1.421875 12.171875 6.21875 
Q 5.515625 13.875 5.515625 27.296875 
Q 5.515625 40.765625 12.171875 48.375 
Q 18.84375 56 30.609375 56 
z
" id="DejaVuSans-111"/>
       <path d="M 52 44.1875 
Q 55.375 50.25 60.0625 53.125 
Q 64.75 56 71.09375 56 
Q 79.640625 56 84.28125 50.015625 
Q 88.921875 44.046875 88.921875 33.015625 
L 88.921875 0 
L 79.890625 0 
L 79.890625 32.71875 
Q 79.890625 40.578125 77.09375 44.375 
Q 74.3125 48.1875 68.609375 48.1875 
Q 61.625 48.1875 57.5625 43.546875 
Q 53.515625 38.921875 53.515625 30.90625 
L 53.515625 0 
L 44.484375 0 
L 44.484375 32.71875 
Q 44.484375 40.625 41.703125 44.40625 
Q 38.921875 48.1875 33.109375 48.1875 
Q 26.21875 48.1875 22.15625 43.53125 
Q 18.109375 38.875 18.109375 30.90625 
L 18.109375 0 
L 9.078125 0 
L 9.078125 54.6875 
L 18.109375 54.6875 
L 18.109375 46.1875 
Q 21.1875 51.21875 25.484375 53.609375 
Q 29.78125 56 35.6875 56 
Q 41.65625 56 45.828125 52.96875 
Q 50 49.953125 52 44.1875 
z
" id="DejaVuSans-109"/>
       <path d="M 44.28125 53.078125 
L 44.28125 44.578125 
Q 40.484375 46.53125 36.375 47.5 
Q 32.28125 48.484375 27.875 48.484375 
Q 21.1875 48.484375 17.84375 46.4375 
Q 14.5 44.390625 14.5 40.28125 
Q 14.5 37.15625 16.890625 35.375 
Q 19.28125 33.59375 26.515625 31.984375 
L 29.59375 31.296875 
Q 39.15625 29.25 43.1875 25.515625 
Q 47.21875 21.78125 47.21875 15.09375 
Q 47.21875 7.46875 41.1875 3.015625 
Q 35.15625 -1.421875 24.609375 -1.421875 
Q 20.21875 -1.421875 15.453125 -0.5625 
Q 10.6875 0.296875 5.421875 2 
L 5.421875 11.28125 
Q 10.40625 8.6875 15.234375 7.390625 
Q 20.0625 6.109375 24.8125 6.109375 
Q 31.15625 6.109375 34.5625 8.28125 
Q 37.984375 10.453125 37.984375 14.40625 
Q 37.984375 18.0625 35.515625 20.015625 
Q 33.0625 21.96875 24.703125 23.78125 
L 21.578125 24.515625 
Q 13.234375 26.265625 9.515625 29.90625 
Q 5.8125 33.546875 5.8125 39.890625 
Q 5.8125 47.609375 11.28125 51.796875 
Q 16.75 56 26.8125 56 
Q 31.78125 56 36.171875 55.265625 
Q 40.578125 54.546875 44.28125 53.078125 
z
" id="DejaVuSans-115"/>
       <path d="M 56.203125 29.59375 
L 56.203125 25.203125 
L 14.890625 25.203125 
Q 15.484375 15.921875 20.484375 11.0625 
Q 25.484375 6.203125 34.421875 6.203125 
Q 39.59375 6.203125 44.453125 7.46875 
Q 49.3125 8.734375 54.109375 11.28125 
L 54.109375 2.78125 
Q 49.265625 0.734375 44.1875 -0.34375 
Q 39.109375 -1.421875 33.890625 -1.421875 
Q 20.796875 -1.421875 13.15625 6.1875 
Q 5.515625 13.8125 5.515625 26.8125 
Q 5.515625 40.234375 12.765625 48.109375 
Q 20.015625 56 32.328125 56 
Q 43.359375 56 49.78125 48.890625 
Q 56.203125 41.796875 56.203125 29.59375 
z
M 47.21875 32.234375 
Q 47.125 39.59375 43.09375 43.984375 
Q 39.0625 48.390625 32.421875 48.390625 
Q 24.90625 48.390625 20.390625 44.140625 
Q 15.875 39.890625 15.1875 32.171875 
z
" id="DejaVuSans-101"/>
       <path id="DejaVuSans-32"/>
       <path d="M 19.671875 64.796875 
L 19.671875 37.40625 
L 32.078125 37.40625 
Q 38.96875 37.40625 42.71875 40.96875 
Q 46.484375 44.53125 46.484375 51.125 
Q 46.484375 57.671875 42.71875 61.234375 
Q 38.96875 64.796875 32.078125 64.796875 
z
M 9.8125 72.90625 
L 32.078125 72.90625 
Q 44.34375 72.90625 50.609375 67.359375 
Q 56.890625 61.8125 56.890625 51.125 
Q 56.890625 40.328125 50.609375 34.8125 
Q 44.34375 29.296875 32.078125 29.296875 
L 19.671875 29.296875 
L 19.671875 0 
L 9.8125 0 
z
" id="DejaVuSans-80"/>
       <path d="M 9.421875 54.6875 
L 18.40625 54.6875 
L 18.40625 0 
L 9.421875 0 
z
M 9.421875 75.984375 
L 18.40625 75.984375 
L 18.40625 64.59375 
L 9.421875 64.59375 
z
" id="DejaVuSans-105"/>
       <path d="M 18.3125 70.21875 
L 18.3125 54.6875 
L 36.8125 54.6875 
L 36.8125 47.703125 
L 18.3125 47.703125 
L 18.3125 18.015625 
Q 18.3125 11.328125 20.140625 9.421875 
Q 21.96875 7.515625 27.59375 7.515625 
L 36.8125 7.515625 
L 36.8125 0 
L 27.59375 0 
Q 17.1875 0 13.234375 3.875 
Q 9.28125 7.765625 9.28125 18.015625 
L 9.28125 47.703125 
L 2.6875 47.703125 
L 2.6875 54.6875 
L 9.28125 54.6875 
L 9.28125 70.21875 
z
" id="DejaVuSans-116"/>
       <path d="M 54.890625 33.015625 
L 54.890625 0 
L 45.90625 0 
L 45.90625 32.71875 
Q 45.90625 40.484375 42.875 44.328125 
Q 39.84375 48.1875 33.796875 48.1875 
Q 26.515625 48.1875 22.3125 43.546875 
Q 18.109375 38.921875 18.109375 30.90625 
L 18.109375 0 
L 9.078125 0 
L 9.078125 54.6875 
L 18.109375 54.6875 
L 18.109375 46.1875 
Q 21.34375 51.125 25.703125 53.5625 
Q 30.078125 56 35.796875 56 
Q 45.21875 56 50.046875 50.171875 
Q 54.890625 44.34375 54.890625 33.015625 
z
" id="DejaVuSans-110"/>
      </defs>
      <use xlink:href="#DejaVuSans-67"/>
      <use x="69.824219" xlink:href="#DejaVuSans-104"/>
      <use x="133.203125" xlink:href="#DejaVuSans-114"/>
      <use x="172.066406" xlink:href="#DejaVuSans-111"/>
      <use x="233.248047" xlink:href="#DejaVuSans-109"/>
      <use x="330.660156" xlink:href="#DejaVuSans-111"/>
      <use x="391.841797" xlink:href="#DejaVuSans-115"/>
      <use x="443.941406" xlink:href="#DejaVuSans-111"/>
      <use x="505.123047" xlink:href="#DejaVuSans-109"/>
      <use x="602.535156" xlink:href="#DejaVuSans-101"/>
      <use x="664.058594" xlink:href="#DejaVuSans-32"/>
      <use x="695.845703" xlink:href="#DejaVuSans-50"/>
      <use x="759.46875" xlink:href="#DejaVuSans-48"/>
      <use x="823.091797" xlink:href="#DejaVuSans-32"/>
      <use x="854.878906" xlink:href="#DejaVuSans-80"/>
      <use x="911.556641" xlink:href="#DejaVuSans-111"/>
      <use x="972.738281" xlink:href="#DejaVuSans-115"/>
      <use x="1024.837891" xlink:href="#DejaVuSans-105"/>
      <use x="1052.621094" xlink:href="#DejaVuSans-116"/>
      <use x="1091.830078" xlink:href="#DejaVuSans-105"/>
      <use x="1119.613281" xlink:href="#DejaVuSans-111"/>
      <use x="1180.794922" xlink:href="#DejaVuSans-110"/>
     </g>
    </g>
    <g id="text_9">
     <!-- 1e7 -->
     <g style="fill:#262626;" transform="translate(930.468125 371.508438)scale(0.22 -0.22)">
      <defs>
       <path d="M 8.203125 72.90625 
L 55.078125 72.90625 
L 55.078125 68.703125 
L 28.609375 0 
L 18.3125 0 
L 43.21875 64.59375 
L 8.203125 64.59375 
z
" id="DejaVuSans-55"/>
      </defs>
      <use xlink:href="#DejaVuSans-49"/>
      <use x="63.623047" xlink:href="#DejaVuSans-101"/>
      <use x="125.146484" xlink:href="#DejaVuSans-55"/>
     </g>
    </g>
   </g>
   <g id="matplotlib.axis_2">
    <g id="ytick_1">
     <g id="text_10">
      <!-- −3 -->
      <g style="fill:#262626;" transform="translate(87.067188 307.549169)scale(0.22 -0.22)">
       <defs>
        <path d="M 10.59375 35.5 
L 73.1875 35.5 
L 73.1875 27.203125 
L 10.59375 27.203125 
z
" id="DejaVuSans-8722"/>
       </defs>
       <use xlink:href="#DejaVuSans-8722"/>
       <use x="83.789062" xlink:href="#DejaVuSans-51"/>
      </g>
     </g>
    </g>
    <g id="ytick_2">
     <g id="text_11">
      <!-- −2 -->
      <g style="fill:#262626;" transform="translate(87.067188 245.726062)scale(0.22 -0.22)">
       <use xlink:href="#DejaVuSans-8722"/>
       <use x="83.789062" xlink:href="#DejaVuSans-50"/>
      </g>
     </g>
    </g>
    <g id="ytick_3">
     <g id="text_12">
      <!-- −1 -->
      <g style="fill:#262626;" transform="translate(87.067188 183.902955)scale(0.22 -0.22)">
       <use xlink:href="#DejaVuSans-8722"/>
       <use x="83.789062" xlink:href="#DejaVuSans-49"/>
      </g>
     </g>
    </g>
    <g id="ytick_4">
     <g id="text_13">
      <!-- 0 -->
      <g style="fill:#262626;" transform="translate(105.5025 122.079848)scale(0.22 -0.22)">
       <use xlink:href="#DejaVuSans-48"/>
      </g>
     </g>
    </g>
    <g id="ytick_5">
     <g id="text_14">
      <!-- 1 -->
      <g style="fill:#262626;" transform="translate(105.5025 60.256741)scale(0.22 -0.22)">
       <use xlink:href="#DejaVuSans-49"/>
      </g>
     </g>
    </g>
    <g id="text_15">
     <!-- 3D Differentiation -->
     <g style="fill:#262626;" transform="translate(78.075937 286.224375)rotate(-90)scale(0.24 -0.24)">
      <defs>
       <path d="M 19.671875 64.796875 
L 19.671875 8.109375 
L 31.59375 8.109375 
Q 46.6875 8.109375 53.6875 14.9375 
Q 60.6875 21.78125 60.6875 36.53125 
Q 60.6875 51.171875 53.6875 57.984375 
Q 46.6875 64.796875 31.59375 64.796875 
z
M 9.8125 72.90625 
L 30.078125 72.90625 
Q 51.265625 72.90625 61.171875 64.09375 
Q 71.09375 55.28125 71.09375 36.53125 
Q 71.09375 17.671875 61.125 8.828125 
Q 51.171875 0 30.078125 0 
L 9.8125 0 
z
" id="DejaVuSans-68"/>
       <path d="M 37.109375 75.984375 
L 37.109375 68.5 
L 28.515625 68.5 
Q 23.6875 68.5 21.796875 66.546875 
Q 19.921875 64.59375 19.921875 59.515625 
L 19.921875 54.6875 
L 34.71875 54.6875 
L 34.71875 47.703125 
L 19.921875 47.703125 
L 19.921875 0 
L 10.890625 0 
L 10.890625 47.703125 
L 2.296875 47.703125 
L 2.296875 54.6875 
L 10.890625 54.6875 
L 10.890625 58.5 
Q 10.890625 67.625 15.140625 71.796875 
Q 19.390625 75.984375 28.609375 75.984375 
z
" id="DejaVuSans-102"/>
       <path d="M 34.28125 27.484375 
Q 23.390625 27.484375 19.1875 25 
Q 14.984375 22.515625 14.984375 16.5 
Q 14.984375 11.71875 18.140625 8.90625 
Q 21.296875 6.109375 26.703125 6.109375 
Q 34.1875 6.109375 38.703125 11.40625 
Q 43.21875 16.703125 43.21875 25.484375 
L 43.21875 27.484375 
z
M 52.203125 31.203125 
L 52.203125 0 
L 43.21875 0 
L 43.21875 8.296875 
Q 40.140625 3.328125 35.546875 0.953125 
Q 30.953125 -1.421875 24.3125 -1.421875 
Q 15.921875 -1.421875 10.953125 3.296875 
Q 6 8.015625 6 15.921875 
Q 6 25.140625 12.171875 29.828125 
Q 18.359375 34.515625 30.609375 34.515625 
L 43.21875 34.515625 
L 43.21875 35.40625 
Q 43.21875 41.609375 39.140625 45 
Q 35.0625 48.390625 27.6875 48.390625 
Q 23 48.390625 18.546875 47.265625 
Q 14.109375 46.140625 10.015625 43.890625 
L 10.015625 52.203125 
Q 14.9375 54.109375 19.578125 55.046875 
Q 24.21875 56 28.609375 56 
Q 40.484375 56 46.34375 49.84375 
Q 52.203125 43.703125 52.203125 31.203125 
z
" id="DejaVuSans-97"/>
      </defs>
      <use xlink:href="#DejaVuSans-51"/>
      <use x="63.623047" xlink:href="#DejaVuSans-68"/>
      <use x="140.625" xlink:href="#DejaVuSans-32"/>
      <use x="172.412109" xlink:href="#DejaVuSans-68"/>
      <use x="249.414062" xlink:href="#DejaVuSans-105"/>
      <use x="277.197266" xlink:href="#DejaVuSans-102"/>
      <use x="312.402344" xlink:href="#DejaVuSans-102"/>
      <use x="347.607422" xlink:href="#DejaVuSans-101"/>
      <use x="409.130859" xlink:href="#DejaVuSans-114"/>
      <use x="447.994141" xlink:href="#DejaVuSans-101"/>
      <use x="509.517578" xlink:href="#DejaVuSans-110"/>
      <use x="572.896484" xlink:href="#DejaVuSans-116"/>
      <use x="612.105469" xlink:href="#DejaVuSans-105"/>
      <use x="639.888672" xlink:href="#DejaVuSans-97"/>
      <use x="701.167969" xlink:href="#DejaVuSans-116"/>
      <use x="740.376953" xlink:href="#DejaVuSans-105"/>
      <use x="768.160156" xlink:href="#DejaVuSans-111"/>
      <use x="829.341797" xlink:href="#DejaVuSans-110"/>
     </g>
    </g>
   </g>
   <g id="line2d_1">
    <path clip-path="url(#pe5df0b96cb)" d="M 173.045455 131.055957 
L 179.439649 133.395274 
L 185.833843 146.932063 
L 192.228037 128.098085 
L 198.622231 116.410023 
L 205.016425 119.119954 
L 211.410619 144.99221 
L 217.804813 124.616116 
L 224.199007 112.449774 
L 230.593201 87.756959 
L 236.987395 90.456535 
L 243.381589 100.753455 
L 249.775783 99.964739 
L 256.169977 151.689697 
L 262.564171 193.616065 
L 268.958365 216.709412 
L 275.352559 119.633029 
L 281.746753 116.204332 
L 288.140947 139.17259 
L 294.535141 122.876014 
L 300.929335 145.930051 
L 307.323529 180.972388 
L 313.717723 103.934068 
L 320.111917 101.294048 
L 326.506112 95.075742 
L 332.900306 115.646901 
L 339.2945 156.128232 
L 345.688694 142.278615 
L 352.082888 126.578071 
L 358.477082 112.936116 
L 364.871276 113.186257 
L 371.26547 187.612378 
L 377.659664 155.550806 
L 384.053858 117.69352 
L 390.448052 134.635573 
L 396.842246 216.078605 
L 403.23644 156.286725 
L 409.630634 135.400309 
L 416.024828 198.236534 
L 422.419022 133.926308 
L 428.813216 154.157416 
L 435.20741 176.831603 
L 441.601604 140.75501 
L 447.995798 142.332866 
L 454.389992 170.27753 
L 460.784186 177.689987 
L 467.17838 156.820239 
L 473.572574 168.74799 
L 550.302903 119.181889 
L 556.697097 114.554854 
L 563.091291 142.589786 
L 569.485485 210.678341 
L 575.879679 235.717359 
L 582.273873 131.592988 
L 588.668067 117.843779 
L 595.062261 130.076304 
L 614.244843 188.9901 
L 620.639037 192.702052 
L 627.033231 131.431785 
L 633.427426 108.282762 
L 639.82162 81.311942 
L 646.215814 108.693181 
L 652.610008 106.438402 
L 659.004202 96.926254 
L 665.398396 71.895893 
L 671.79259 89.617288 
L 678.186784 227.631708 
L 684.580978 173.332229 
L 690.975172 207.678851 
L 697.369366 200.493848 
L 703.76356 107.944255 
L 710.157754 123.909936 
L 716.551948 173.990295 
L 722.946142 171.100615 
L 729.340336 140.341251 
L 735.73453 122.329283 
L 742.128724 140.482074 
L 748.522918 110.478094 
L 754.917112 110.872985 
L 761.311306 137.725678 
L 767.7055 139.767305 
L 774.099694 148.187853 
L 780.493888 150.480557 
L 786.888083 144.117708 
L 793.282277 99.062878 
L 799.676471 135.780644 
L 806.070665 96.801073 
L 812.464859 94.518931 
L 818.859053 112.211759 
L 825.253247 148.758431 
L 831.647441 165.730917 
L 838.041635 115.763931 
L 844.435829 109.527018 
L 850.830023 128.146847 
L 857.224217 133.522661 
L 863.618411 115.46066 
L 870.012605 118.249507 
L 876.406799 98.594596 
L 882.800993 123.495448 
L 889.195187 118.571269 
L 895.589381 111.874599 
L 901.983575 120.127753 
L 908.377769 126.964834 
L 914.771963 121.378756 
L 921.166157 112.994643 
L 927.560351 124.902803 
L 933.954545 96.966046 
" style="fill:none;stroke:#f77189;stroke-linecap:round;"/>
   </g>
   <g id="line2d_2">
    <path clip-path="url(#pe5df0b96cb)" d="M 173.045455 116.968168 
L 179.439649 106.135481 
L 185.833843 104.546785 
L 192.228037 110.041989 
L 198.622231 118.439179 
L 205.016425 115.376785 
L 211.410619 93.596432 
L 217.804813 103.756274 
L 224.199007 123.306565 
L 230.593201 176.101564 
L 236.987395 189.911604 
L 243.381589 99.051128 
L 249.775783 106.092609 
L 256.169977 81.495379 
L 262.564171 66.657969 
L 268.958365 72.391099 
L 275.352559 114.423458 
L 281.746753 118.002107 
L 288.140947 97.981864 
L 294.535141 98.984537 
L 300.929335 93.461775 
L 307.323529 75.494723 
L 313.717723 115.432757 
L 320.111917 102.644862 
L 326.506112 107.617988 
L 332.900306 113.873738 
L 339.2945 85.749219 
L 345.688694 89.234705 
L 352.082888 81.004266 
L 358.477082 99.400074 
L 364.871276 101.440652 
L 371.26547 80.286711 
L 377.659664 84.226778 
L 384.053858 112.722157 
L 390.448052 103.640416 
L 396.842246 82.115306 
L 403.23644 111.776262 
L 409.630634 84.122796 
L 416.024828 72.122625 
L 422.419022 69.496798 
L 428.813216 71.181863 
L 435.20741 90.345519 
L 441.601604 95.824233 
L 447.995798 100.185172 
L 454.389992 86.734923 
L 460.784186 84.960363 
L 467.17838 87.102729 
L 473.572574 76.221618 
L 550.302903 113.936614 
L 556.697097 107.332857 
L 563.091291 92.416302 
L 569.485485 67.898253 
L 575.879679 66.117038 
L 582.273873 76.390773 
L 588.668067 117.476992 
L 595.062261 97.423232 
L 614.244843 80.121499 
L 620.639037 66.960385 
L 627.033231 91.643871 
L 633.427426 113.905001 
L 639.82162 116.815817 
L 646.215814 73.276407 
L 652.610008 90.746434 
L 659.004202 90.097424 
L 665.398396 124.583835 
L 671.79259 133.504588 
L 678.186784 64.549254 
L 684.580978 91.924745 
L 690.975172 81.640576 
L 697.369366 76.020701 
L 703.76356 93.728923 
L 710.157754 91.55737 
L 716.551948 83.368466 
L 722.946142 79.383429 
L 729.340336 90.064208 
L 735.73453 102.035566 
L 742.128724 97.072507 
L 748.522918 109.371076 
L 754.917112 109.169957 
L 761.311306 91.22249 
L 767.7055 95.34269 
L 774.099694 91.218524 
L 780.493888 106.348933 
L 786.888083 108.047287 
L 793.282277 114.681957 
L 799.676471 96.206751 
L 806.070665 115.066821 
L 812.464859 113.684497 
L 818.859053 112.948083 
L 825.253247 107.404351 
L 831.647441 93.388692 
L 838.041635 90.566384 
L 844.435829 104.916101 
L 850.830023 100.027568 
L 857.224217 99.583844 
L 863.618411 106.368188 
L 870.012605 96.262512 
L 876.406799 101.928557 
L 882.800993 105.131969 
L 889.195187 113.614907 
L 895.589381 116.88936 
L 901.983575 114.521973 
L 908.377769 103.07647 
L 914.771963 68.477372 
L 921.166157 90.427689 
L 927.560351 107.455515 
L 933.954545 146.004277 
" style="fill:none;stroke:#bb9832;stroke-linecap:round;"/>
   </g>
   <g id="line2d_3">
    <path clip-path="url(#pe5df0b96cb)" d="M 173.045455 104.594707 
L 179.439649 89.70365 
L 185.833843 89.00036 
L 192.228037 106.061856 
L 198.622231 113.985994 
L 205.016425 112.751623 
L 211.410619 93.098332 
L 217.804813 97.445722 
L 224.199007 63.300646 
L 230.593201 59.442662 
L 236.987395 69.459103 
L 243.381589 162.632638 
L 249.775783 108.69422 
L 256.169977 96.23058 
L 262.564171 76.327384 
L 268.958365 69.702949 
L 275.352559 74.008776 
L 281.746753 72.020998 
L 288.140947 90.228322 
L 294.535141 92.066151 
L 300.929335 92.152595 
L 307.323529 88.462161 
L 313.717723 103.498535 
L 320.111917 122.835836 
L 326.506112 141.998105 
L 332.900306 94.663008 
L 339.2945 85.927805 
L 345.688694 89.860638 
L 352.082888 110.038433 
L 358.477082 102.896321 
L 364.871276 95.472939 
L 371.26547 56.287306 
L 377.659664 64.705451 
L 384.053858 92.178577 
L 390.448052 84.160773 
L 396.842246 61.169737 
L 403.23644 61.849064 
L 409.630634 107.194157 
L 416.024828 88.506935 
L 422.419022 119.534688 
L 428.813216 101.876047 
L 435.20741 80.109127 
L 441.601604 92.149413 
L 447.995798 86.49835 
L 454.389992 79.890466 
L 460.784186 61.245328 
L 467.17838 62.836507 
L 473.572574 66.769851 
L 550.302903 65.885872 
L 556.697097 101.034617 
L 563.091291 74.78705 
L 569.485485 63.435192 
L 575.879679 62.351138 
L 582.273873 73.118467 
L 588.668067 74.508682 
L 595.062261 88.473968 
L 614.244843 83.110703 
L 620.639037 90.664425 
L 627.033231 107.604533 
L 633.427426 108.465385 
L 639.82162 124.360574 
L 646.215814 110.354555 
L 652.610008 168.667631 
L 659.004202 174.087807 
L 665.398396 94.19153 
L 671.79259 75.743257 
L 678.186784 61.491549 
L 684.580978 75.77857 
L 690.975172 68.245868 
L 697.369366 80.840112 
L 703.76356 104.851238 
L 710.157754 100.44375 
L 716.551948 95.251425 
L 722.946142 82.378968 
L 729.340336 83.940605 
L 735.73453 102.288943 
L 742.128724 104.669003 
L 748.522918 118.93992 
L 754.917112 120.0746 
L 761.311306 92.40247 
L 767.7055 103.931962 
L 774.099694 96.387329 
L 780.493888 79.413062 
L 786.888083 83.094167 
L 793.282277 96.199048 
L 799.676471 91.453582 
L 806.070665 113.219976 
L 812.464859 116.394075 
L 818.859053 108.74455 
L 825.253247 83.1268 
L 831.647441 82.071568 
L 838.041635 94.493214 
L 844.435829 93.439692 
L 850.830023 94.064569 
L 857.224217 89.494258 
L 863.618411 86.415377 
L 870.012605 93.081535 
L 876.406799 111.704564 
L 882.800993 88.630691 
L 889.195187 89.173675 
L 895.589381 60.671902 
L 901.983575 75.466852 
L 908.377769 97.753225 
L 914.771963 110.78755 
L 921.166157 99.671934 
L 927.560351 96.78872 
L 933.954545 101.54664 
" style="fill:none;stroke:#50b131;stroke-linecap:round;"/>
   </g>
   <g id="line2d_4">
    <path clip-path="url(#pe5df0b96cb)" d="M 173.045455 82.450657 
L 179.439649 93.200855 
L 185.833843 100.076096 
L 192.228037 106.906494 
L 198.622231 101.611465 
L 205.016425 101.725797 
L 211.410619 92.464801 
L 217.804813 100.486515 
L 224.199007 125.256439 
L 230.593201 144.479035 
L 236.987395 136.874915 
L 243.381589 96.489221 
L 249.775783 110.250768 
L 256.169977 98.38286 
L 262.564171 79.8193 
L 268.958365 73.542867 
L 275.352559 101.824164 
L 281.746753 105.331934 
L 288.140947 112.412195 
L 294.535141 120.346621 
L 300.929335 107.110863 
L 307.323529 94.449605 
L 313.717723 119.420311 
L 320.111917 117.477275 
L 326.506112 102.933834 
L 332.900306 112.637399 
L 339.2945 100.418771 
L 345.688694 102.081771 
L 352.082888 88.457962 
L 358.477082 97.540908 
L 364.871276 94.626444 
L 371.26547 56.314115 
L 377.659664 63.486189 
L 384.053858 100.826756 
L 390.448052 102.7247 
L 396.842246 58.615244 
L 403.23644 60.403253 
L 409.630634 93.407355 
L 416.024828 72.591067 
L 422.419022 92.576274 
L 428.813216 86.530598 
L 435.20741 89.681623 
L 441.601604 95.582208 
L 447.995798 96.998253 
L 454.389992 116.984587 
L 460.784186 92.559412 
L 467.17838 95.352184 
L 473.572574 80.496311 
L 550.302903 116.261275 
L 556.697097 111.859591 
L 563.091291 81.234974 
L 569.485485 68.054465 
L 575.879679 66.327868 
L 582.273873 175.814358 
L 588.668067 127.1012 
L 595.062261 123.867453 
L 614.244843 69.727061 
L 620.639037 68.395868 
L 627.033231 101.731444 
L 633.427426 109.371941 
L 639.82162 116.50554 
L 646.215814 84.007788 
L 652.610008 92.564254 
L 659.004202 104.563959 
L 665.398396 132.749406 
L 671.79259 121.868743 
L 678.186784 65.18556 
L 684.580978 82.435959 
L 690.975172 76.07513 
L 697.369366 82.919742 
L 703.76356 123.154948 
L 710.157754 107.095252 
L 716.551948 83.937293 
L 722.946142 89.511962 
L 729.340336 88.253068 
L 735.73453 109.325643 
L 742.128724 101.524481 
L 748.522918 100.82814 
L 754.917112 97.947291 
L 761.311306 91.602089 
L 767.7055 89.890483 
L 774.099694 94.793828 
L 780.493888 107.982755 
L 786.888083 104.783864 
L 793.282277 118.374125 
L 799.676471 96.893679 
L 806.070665 117.192653 
L 812.464859 119.417213 
L 818.859053 114.102855 
L 825.253247 90.413088 
L 831.647441 81.664464 
L 838.041635 86.378485 
L 844.435829 118.861075 
L 850.830023 107.43192 
L 857.224217 95.494771 
L 863.618411 94.703485 
L 870.012605 121.606866 
L 876.406799 127.753026 
L 882.800993 110.172093 
L 889.195187 87.169623 
L 895.589381 95.772668 
L 901.983575 111.468219 
L 908.377769 113.991508 
L 914.771963 113.377351 
L 921.166157 113.651929 
L 927.560351 113.046033 
L 933.954545 78.410686 
" style="fill:none;stroke:#36ada4;stroke-linecap:round;"/>
   </g>
   <g id="line2d_5">
    <path clip-path="url(#pe5df0b96cb)" d="M 173.045455 103.2277 
L 179.439649 106.261879 
L 185.833843 101.682908 
L 192.228037 105.795014 
L 198.622231 115.203896 
L 205.016425 114.41195 
L 211.410619 100.186205 
L 217.804813 95.491577 
L 224.199007 135.236266 
L 230.593201 104.680772 
L 236.987395 68.791885 
L 243.381589 88.891187 
L 249.775783 120.006211 
L 256.169977 98.402981 
L 262.564171 88.063504 
L 268.958365 75.918313 
L 275.352559 106.594273 
L 281.746753 109.860191 
L 288.140947 84.875047 
L 294.535141 97.968393 
L 300.929335 85.706755 
L 307.323529 77.069319 
L 313.717723 109.289229 
L 320.111917 112.049357 
L 326.506112 107.664525 
L 332.900306 105.01759 
L 339.2945 101.018978 
L 345.688694 97.728963 
L 352.082888 87.821785 
L 358.477082 108.735574 
L 364.871276 120.706387 
L 371.26547 55.554545 
L 377.659664 66.351529 
L 384.053858 104.72727 
L 390.448052 101.466991 
L 396.842246 99.573127 
L 403.23644 153.015009 
L 409.630634 110.097663 
L 416.024828 76.762523 
L 422.419022 129.689129 
L 428.813216 119.051026 
L 435.20741 89.309112 
L 441.601604 95.108643 
L 447.995798 94.001866 
L 454.389992 77.755119 
L 460.784186 87.48015 
L 467.17838 108.829084 
L 473.572574 107.927119 
L 550.302903 104.036811 
L 556.697097 94.296419 
L 563.091291 87.632956 
L 569.485485 79.481744 
L 575.879679 67.734186 
L 582.273873 73.261973 
L 588.668067 103.332258 
L 595.062261 92.465727 
L 614.244843 79.051773 
L 620.639037 64.943548 
L 627.033231 100.355896 
L 633.427426 127.243581 
L 639.82162 121.656859 
L 646.215814 127.171112 
L 652.610008 90.446825 
L 659.004202 95.632191 
L 665.398396 103.600345 
L 671.79259 100.478153 
L 678.186784 73.713355 
L 684.580978 98.316861 
L 690.975172 86.159693 
L 697.369366 75.971016 
L 703.76356 109.517168 
L 710.157754 100.263817 
L 716.551948 85.799223 
L 722.946142 87.251113 
L 729.340336 133.292668 
L 735.73453 105.519883 
L 742.128724 105.040294 
L 748.522918 108.979067 
L 754.917112 103.016359 
L 761.311306 131.626665 
L 767.7055 118.554365 
L 774.099694 114.877292 
L 780.493888 93.086255 
L 786.888083 98.196465 
L 793.282277 98.160073 
L 799.676471 97.277197 
L 806.070665 114.58499 
L 812.464859 113.086916 
L 818.859053 108.840906 
L 825.253247 93.847851 
L 831.647441 88.311118 
L 838.041635 84.339536 
L 844.435829 95.199225 
L 850.830023 95.33892 
L 857.224217 100.992746 
L 863.618411 91.611598 
L 870.012605 104.146826 
L 876.406799 121.97138 
L 882.800993 95.112703 
L 889.195187 148.583488 
L 895.589381 103.673064 
L 901.983575 104.659821 
L 908.377769 97.832785 
L 914.771963 101.623631 
L 921.166157 97.714833 
L 927.560351 95.997016 
L 933.954545 82.058887 
" style="fill:none;stroke:#3ba3ec;stroke-linecap:round;"/>
   </g>
   <g id="line2d_6">
    <path clip-path="url(#pe5df0b96cb)" d="M 173.045455 81.580363 
L 179.439649 79.668422 
L 185.833843 78.170526 
L 192.228037 87.577232 
L 198.622231 83.959628 
L 205.016425 74.950983 
L 211.410619 89.192012 
L 217.804813 91.151597 
L 224.199007 63.832227 
L 230.593201 58.26932 
L 236.987395 68.633659 
L 243.381589 69.598538 
L 249.775783 73.724638 
L 256.169977 87.525138 
L 262.564171 69.944726 
L 268.958365 68.097951 
L 275.352559 74.899189 
L 281.746753 70.254088 
L 288.140947 77.124043 
L 294.535141 85.232161 
L 300.929335 88.997361 
L 307.323529 71.56668 
L 313.717723 86.279194 
L 320.111917 80.949175 
L 326.506112 78.922704 
L 332.900306 86.136992 
L 339.2945 75.532305 
L 345.688694 83.30033 
L 352.082888 89.317649 
L 358.477082 90.127166 
L 364.871276 90.084484 
L 371.26547 56.127335 
L 377.659664 65.461293 
L 384.053858 85.618188 
L 390.448052 85.102488 
L 396.842246 57.720433 
L 403.23644 59.77744 
L 409.630634 85.204164 
L 416.024828 71.242642 
L 422.419022 65.708758 
L 428.813216 72.465188 
L 435.20741 76.278264 
L 441.601604 79.10389 
L 447.995798 80.88638 
L 454.389992 68.205027 
L 460.784186 77.26829 
L 467.17838 80.264122 
L 473.572574 65.719024 
L 550.302903 85.652056 
L 556.697097 82.843011 
L 563.091291 80.044283 
L 569.485485 67.626645 
L 575.879679 62.742515 
L 582.273873 71.53652 
L 588.668067 72.008532 
L 595.062261 86.49776 
L 614.244843 69.524546 
L 620.639037 64.892651 
L 627.033231 86.981171 
L 633.427426 83.439462 
L 639.82162 70.788345 
L 646.215814 80.644451 
L 652.610008 77.396517 
L 659.004202 74.550257 
L 665.398396 56.771807 
L 671.79259 60.045909 
L 678.186784 63.102004 
L 684.580978 77.967422 
L 690.975172 69.608229 
L 697.369366 72.162837 
L 703.76356 82.080273 
L 710.157754 81.205719 
L 716.551948 78.489 
L 722.946142 79.632934 
L 729.340336 81.702082 
L 735.73453 85.831228 
L 742.128724 91.208752 
L 748.522918 92.243209 
L 754.917112 86.902485 
L 761.311306 84.962222 
L 767.7055 77.08723 
L 774.099694 74.751306 
L 780.493888 78.335615 
L 786.888083 68.040294 
L 793.282277 87.405149 
L 799.676471 88.878141 
L 806.070665 81.240103 
L 812.464859 89.723242 
L 818.859053 95.417919 
L 825.253247 84.07486 
L 831.647441 78.977905 
L 838.041635 80.410343 
L 844.435829 92.883469 
L 850.830023 86.200305 
L 857.224217 90.217296 
L 863.618411 89.882707 
L 870.012605 95.63223 
L 876.406799 85.918657 
L 882.800993 88.906274 
L 889.195187 76.198051 
L 895.589381 80.201346 
L 901.983575 88.490726 
L 908.377769 92.232652 
L 914.771963 77.742542 
L 921.166157 91.903718 
L 927.560351 93.444139 
L 933.954545 69.974267 
" style="fill:none;stroke:#000000;stroke-linecap:round;"/>
   </g>
   <g id="line2d_7">
    <path clip-path="url(#pe5df0b96cb)" d="M 173.045455 146.238601 
L 179.439649 152.035191 
L 185.833843 156.109301 
L 192.228037 144.806442 
L 198.622231 125.689635 
L 205.016425 125.323231 
L 211.410619 148.629872 
L 217.804813 148.058366 
L 224.199007 161.96319 
L 230.593201 222.234129 
L 236.987395 256.028651 
L 243.381589 217.732695 
L 249.775783 168.071489 
L 256.169977 156.32213 
L 262.564171 220.628899 
L 268.958365 230.383705 
L 275.352559 131.017868 
L 281.746753 128.169701 
L 288.140947 166.418731 
L 294.535141 145.494757 
L 300.929335 163.035782 
L 307.323529 218.719857 
L 313.717723 129.39312 
L 320.111917 145.314468 
L 326.506112 174.858746 
L 332.900306 143.039514 
L 339.2945 163.630305 
L 345.688694 154.201923 
L 352.082888 147.022784 
L 358.477082 142.952775 
L 364.871276 146.068272 
L 371.26547 201.459547 
L 377.659664 177.452381 
L 384.053858 149.256989 
L 390.448052 144.639566 
L 396.842246 290.181032 
L 403.23644 257.591394 
L 409.630634 168.429196 
L 416.024828 256.76937 
L 422.419022 139.161253 
L 428.813216 169.26902 
L 435.20741 209.029439 
L 441.601604 152.844585 
L 447.995798 165.690405 
L 454.389992 235.859908 
L 460.784186 184.480318 
L 467.17838 146.953273 
L 473.572574 160.407715 
L 550.302903 142.762578 
L 556.697097 137.286614 
L 563.091291 171.232785 
L 569.485485 254.435827 
L 575.879679 302.645455 
L 582.273873 213.641425 
L 588.668067 134.49414 
L 595.062261 141.698486 
L 614.244843 232.398406 
L 620.639037 215.309036 
L 627.033231 151.011538 
L 633.427426 133.967249 
L 639.82162 130.763278 
L 646.215814 177.600009 
L 652.610008 203.65967 
L 659.004202 210.855124 
L 665.398396 148.333199 
L 671.79259 141.720619 
L 678.186784 244.337515 
L 684.580978 179.890138 
L 690.975172 239.142513 
L 697.369366 241.785122 
L 703.76356 137.65941 
L 710.157754 160.192232 
L 716.551948 222.792776 
L 722.946142 204.381254 
L 729.340336 169.551107 
L 735.73453 137.219366 
L 742.128724 163.086987 
L 748.522918 126.359644 
L 754.917112 127.717692 
L 761.311306 181.952865 
L 767.7055 159.077546 
L 774.099694 189.103805 
L 780.493888 199.624861 
L 786.888083 161.977174 
L 793.282277 132.016093 
L 799.676471 169.384273 
L 806.070665 132.033766 
L 812.464859 127.411134 
L 818.859053 134.728627 
L 825.253247 163.698124 
L 831.647441 174.358457 
L 838.041635 151.207279 
L 844.435829 140.320017 
L 850.830023 154.537108 
L 857.224217 141.315556 
L 863.618411 143.61614 
L 870.012605 136.910232 
L 876.406799 135.777781 
L 882.800993 141.839797 
L 889.195187 202.484307 
L 895.589381 139.317265 
L 901.983575 148.628839 
L 908.377769 138.183607 
L 914.771963 137.604021 
L 921.166157 142.467133 
L 927.560351 142.344358 
L 933.954545 201.63188 
" style="fill:none;stroke:#000000;stroke-linecap:round;"/>
   </g>
   <g id="patch_3">
    <path d="M 135 315 
L 135 43.2 
" style="fill:none;stroke:#262626;stroke-linecap:square;stroke-linejoin:miter;stroke-width:2.5;"/>
   </g>
   <g id="patch_4">
    <path d="M 972 315 
L 972 43.2 
" style="fill:none;stroke:#262626;stroke-linecap:square;stroke-linejoin:miter;stroke-width:2.5;"/>
   </g>
   <g id="patch_5">
    <path d="M 135 315 
L 972 315 
" style="fill:none;stroke:#262626;stroke-linecap:square;stroke-linejoin:miter;stroke-width:2.5;"/>
   </g>
   <g id="patch_6">
    <path d="M 135 43.2 
L 972 43.2 
" style="fill:none;stroke:#262626;stroke-linecap:square;stroke-linejoin:miter;stroke-width:2.5;"/>
   </g>
   <g id="legend_1">
    <g id="patch_7">
     <path d="M 469.88625 304 
L 637.11375 304 
Q 641.51375 304 641.51375 299.6 
L 641.51375 75.756875 
Q 641.51375 71.356875 637.11375 71.356875 
L 469.88625 71.356875 
Q 465.48625 71.356875 465.48625 75.756875 
L 465.48625 299.6 
Q 465.48625 304 469.88625 304 
z
" style="fill:#ffffff;opacity:0.8;stroke:#cccccc;stroke-linejoin:miter;stroke-width:2;"/>
    </g>
    <g id="line2d_8">
     <path d="M 474.28625 89.173437 
L 518.28625 89.173437 
" style="fill:none;stroke:#f77189;stroke-linecap:round;"/>
    </g>
    <g id="line2d_9"/>
    <g id="text_16">
     <!-- AFR -->
     <g style="fill:#262626;" transform="translate(535.88625 96.873437)scale(0.22 -0.22)">
      <defs>
       <path d="M 34.1875 63.1875 
L 20.796875 26.90625 
L 47.609375 26.90625 
z
M 28.609375 72.90625 
L 39.796875 72.90625 
L 67.578125 0 
L 57.328125 0 
L 50.6875 18.703125 
L 17.828125 18.703125 
L 11.1875 0 
L 0.78125 0 
z
" id="DejaVuSans-65"/>
       <path d="M 9.8125 72.90625 
L 51.703125 72.90625 
L 51.703125 64.59375 
L 19.671875 64.59375 
L 19.671875 43.109375 
L 48.578125 43.109375 
L 48.578125 34.8125 
L 19.671875 34.8125 
L 19.671875 0 
L 9.8125 0 
z
" id="DejaVuSans-70"/>
       <path d="M 44.390625 34.1875 
Q 47.5625 33.109375 50.5625 29.59375 
Q 53.5625 26.078125 56.59375 19.921875 
L 66.609375 0 
L 56 0 
L 46.6875 18.703125 
Q 43.0625 26.03125 39.671875 28.421875 
Q 36.28125 30.8125 30.421875 30.8125 
L 19.671875 30.8125 
L 19.671875 0 
L 9.8125 0 
L 9.8125 72.90625 
L 32.078125 72.90625 
Q 44.578125 72.90625 50.734375 67.671875 
Q 56.890625 62.453125 56.890625 51.90625 
Q 56.890625 45.015625 53.6875 40.46875 
Q 50.484375 35.9375 44.390625 34.1875 
z
M 19.671875 64.796875 
L 19.671875 38.921875 
L 32.078125 38.921875 
Q 39.203125 38.921875 42.84375 42.21875 
Q 46.484375 45.515625 46.484375 51.90625 
Q 46.484375 58.296875 42.84375 61.546875 
Q 39.203125 64.796875 32.078125 64.796875 
z
" id="DejaVuSans-82"/>
      </defs>
      <use xlink:href="#DejaVuSans-65"/>
      <use x="68.408203" xlink:href="#DejaVuSans-70"/>
      <use x="125.927734" xlink:href="#DejaVuSans-82"/>
     </g>
    </g>
    <g id="line2d_10">
     <path d="M 474.28625 121.465312 
L 518.28625 121.465312 
" style="fill:none;stroke:#bb9832;stroke-linecap:round;"/>
    </g>
    <g id="line2d_11"/>
    <g id="text_17">
     <!-- EUR -->
     <g style="fill:#262626;" transform="translate(535.88625 129.165312)scale(0.22 -0.22)">
      <defs>
       <path d="M 9.8125 72.90625 
L 55.90625 72.90625 
L 55.90625 64.59375 
L 19.671875 64.59375 
L 19.671875 43.015625 
L 54.390625 43.015625 
L 54.390625 34.71875 
L 19.671875 34.71875 
L 19.671875 8.296875 
L 56.78125 8.296875 
L 56.78125 0 
L 9.8125 0 
z
" id="DejaVuSans-69"/>
       <path d="M 8.6875 72.90625 
L 18.609375 72.90625 
L 18.609375 28.609375 
Q 18.609375 16.890625 22.84375 11.734375 
Q 27.09375 6.59375 36.625 6.59375 
Q 46.09375 6.59375 50.34375 11.734375 
Q 54.59375 16.890625 54.59375 28.609375 
L 54.59375 72.90625 
L 64.5 72.90625 
L 64.5 27.390625 
Q 64.5 13.140625 57.4375 5.859375 
Q 50.390625 -1.421875 36.625 -1.421875 
Q 22.796875 -1.421875 15.734375 5.859375 
Q 8.6875 13.140625 8.6875 27.390625 
z
" id="DejaVuSans-85"/>
      </defs>
      <use xlink:href="#DejaVuSans-69"/>
      <use x="63.183594" xlink:href="#DejaVuSans-85"/>
      <use x="136.376953" xlink:href="#DejaVuSans-82"/>
     </g>
    </g>
    <g id="line2d_12">
     <path d="M 474.28625 153.757187 
L 518.28625 153.757187 
" style="fill:none;stroke:#50b131;stroke-linecap:round;"/>
    </g>
    <g id="line2d_13"/>
    <g id="text_18">
     <!-- EAS -->
     <g style="fill:#262626;" transform="translate(535.88625 161.457187)scale(0.22 -0.22)">
      <defs>
       <path d="M 53.515625 70.515625 
L 53.515625 60.890625 
Q 47.90625 63.578125 42.921875 64.890625 
Q 37.9375 66.21875 33.296875 66.21875 
Q 25.25 66.21875 20.875 63.09375 
Q 16.5 59.96875 16.5 54.203125 
Q 16.5 49.359375 19.40625 46.890625 
Q 22.3125 44.4375 30.421875 42.921875 
L 36.375 41.703125 
Q 47.40625 39.59375 52.65625 34.296875 
Q 57.90625 29 57.90625 20.125 
Q 57.90625 9.515625 50.796875 4.046875 
Q 43.703125 -1.421875 29.984375 -1.421875 
Q 24.8125 -1.421875 18.96875 -0.25 
Q 13.140625 0.921875 6.890625 3.21875 
L 6.890625 13.375 
Q 12.890625 10.015625 18.65625 8.296875 
Q 24.421875 6.59375 29.984375 6.59375 
Q 38.421875 6.59375 43.015625 9.90625 
Q 47.609375 13.234375 47.609375 19.390625 
Q 47.609375 24.75 44.3125 27.78125 
Q 41.015625 30.8125 33.5 32.328125 
L 27.484375 33.5 
Q 16.453125 35.6875 11.515625 40.375 
Q 6.59375 45.0625 6.59375 53.421875 
Q 6.59375 63.09375 13.40625 68.65625 
Q 20.21875 74.21875 32.171875 74.21875 
Q 37.3125 74.21875 42.625 73.28125 
Q 47.953125 72.359375 53.515625 70.515625 
z
" id="DejaVuSans-83"/>
      </defs>
      <use xlink:href="#DejaVuSans-69"/>
      <use x="63.183594" xlink:href="#DejaVuSans-65"/>
      <use x="131.591797" xlink:href="#DejaVuSans-83"/>
     </g>
    </g>
    <g id="line2d_14">
     <path d="M 474.28625 186.049062 
L 518.28625 186.049062 
" style="fill:none;stroke:#36ada4;stroke-linecap:round;"/>
    </g>
    <g id="line2d_15"/>
    <g id="text_19">
     <!-- SAS -->
     <g style="fill:#262626;" transform="translate(535.88625 193.749062)scale(0.22 -0.22)">
      <use xlink:href="#DejaVuSans-83"/>
      <use x="65.351562" xlink:href="#DejaVuSans-65"/>
      <use x="133.759766" xlink:href="#DejaVuSans-83"/>
     </g>
    </g>
    <g id="line2d_16">
     <path d="M 474.28625 218.340937 
L 518.28625 218.340937 
" style="fill:none;stroke:#3ba3ec;stroke-linecap:round;"/>
    </g>
    <g id="line2d_17"/>
    <g id="text_20">
     <!-- AMR -->
     <g style="fill:#262626;" transform="translate(535.88625 226.040937)scale(0.22 -0.22)">
      <defs>
       <path d="M 9.8125 72.90625 
L 24.515625 72.90625 
L 43.109375 23.296875 
L 61.8125 72.90625 
L 76.515625 72.90625 
L 76.515625 0 
L 66.890625 0 
L 66.890625 64.015625 
L 48.09375 14.015625 
L 38.1875 14.015625 
L 19.390625 64.015625 
L 19.390625 0 
L 9.8125 0 
z
" id="DejaVuSans-77"/>
      </defs>
      <use xlink:href="#DejaVuSans-65"/>
      <use x="68.408203" xlink:href="#DejaVuSans-77"/>
      <use x="154.6875" xlink:href="#DejaVuSans-82"/>
     </g>
    </g>
    <g id="line2d_18">
     <path d="M 474.28625 250.632812 
L 518.28625 250.632812 
" style="fill:none;stroke:#000000;stroke-linecap:round;"/>
    </g>
    <g id="line2d_19"/>
    <g id="text_21">
     <!-- min/max -->
     <g style="fill:#262626;" transform="translate(535.88625 258.332812)scale(0.22 -0.22)">
      <defs>
       <path d="M 25.390625 72.90625 
L 33.6875 72.90625 
L 8.296875 -9.28125 
L 0 -9.28125 
z
" id="DejaVuSans-47"/>
       <path d="M 54.890625 54.6875 
L 35.109375 28.078125 
L 55.90625 0 
L 45.3125 0 
L 29.390625 21.484375 
L 13.484375 0 
L 2.875 0 
L 24.125 28.609375 
L 4.6875 54.6875 
L 15.28125 54.6875 
L 29.78125 35.203125 
L 44.28125 54.6875 
z
" id="DejaVuSans-120"/>
      </defs>
      <use xlink:href="#DejaVuSans-109"/>
      <use x="97.412109" xlink:href="#DejaVuSans-105"/>
      <use x="125.195312" xlink:href="#DejaVuSans-110"/>
      <use x="188.574219" xlink:href="#DejaVuSans-47"/>
      <use x="222.265625" xlink:href="#DejaVuSans-109"/>
      <use x="319.677734" xlink:href="#DejaVuSans-97"/>
      <use x="380.957031" xlink:href="#DejaVuSans-120"/>
     </g>
    </g>
    <g id="line2d_20">
     <path d="M 474.28625 282.924688 
L 518.28625 282.924688 
" style="fill:none;stroke:#000000;stroke-linecap:round;"/>
    </g>
    <g id="line2d_21"/>
    <g id="text_22">
     <!-- min/max -->
     <g style="fill:#262626;" transform="translate(535.88625 290.624687)scale(0.22 -0.22)">
      <use xlink:href="#DejaVuSans-109"/>
      <use x="97.412109" xlink:href="#DejaVuSans-105"/>
      <use x="125.195312" xlink:href="#DejaVuSans-110"/>
      <use x="188.574219" xlink:href="#DejaVuSans-47"/>
      <use x="222.265625" xlink:href="#DejaVuSans-109"/>
      <use x="319.677734" xlink:href="#DejaVuSans-97"/>
      <use x="380.957031" xlink:href="#DejaVuSans-120"/>
     </g>
    </g>
   </g>
  </g>
 </g>
 <defs>
  <clipPath id="pe5df0b96cb">
   <rect height="271.8" width="837" x="135" y="43.2"/>
  </clipPath>
 </defs>
</svg>
