<?xml version="1.0" encoding="utf-8" standalone="no"?>
<!DOCTYPE svg PUBLIC "-//W3C//DTD SVG 1.1//EN"
  "http://www.w3.org/Graphics/SVG/1.1/DTD/svg11.dtd">
<!-- Created with matplotlib (https://matplotlib.org/) -->
<svg height="360pt" version="1.1" viewBox="0 0 1080 360" width="1080pt" xmlns="http://www.w3.org/2000/svg" xmlns:xlink="http://www.w3.org/1999/xlink">
 <metadata>
  <rdf:RDF xmlns:cc="http://creativecommons.org/ns#" xmlns:dc="http://purl.org/dc/elements/1.1/" xmlns:rdf="http://www.w3.org/1999/02/22-rdf-syntax-ns#">
   <cc:Work>
    <dc:type rdf:resource="http://purl.org/dc/dcmitype/StillImage"/>
    <dc:date>2023-01-12T13:52:15.509939</dc:date>
    <dc:format>image/svg+xml</dc:format>
    <dc:creator>
     <cc:Agent>
      <dc:title>Matplotlib v3.3.4, https://matplotlib.org/</dc:title>
     </cc:Agent>
    </dc:creator>
   </cc:Work>
  </rdf:RDF>
 </metadata>
 <defs>
  <style type="text/css">*{stroke-linecap:butt;stroke-linejoin:round;}</style>
 </defs>
 <g id="figure_1">
  <g id="patch_1">
   <path d="M 0 360 
L 1080 360 
L 1080 0 
L 0 0 
z
" style="fill:#ffffff;"/>
  </g>
  <g id="axes_1">
   <g id="patch_2">
    <path d="M 135 315 
L 972 315 
L 972 43.2 
L 135 43.2 
z
" style="fill:#ffffff;"/>
   </g>
   <g id="matplotlib.axis_1">
    <g id="xtick_1">
     <g id="text_1">
      <!-- 0 -->
      <g style="fill:#262626;" transform="translate(159.652511 347.216563)scale(0.22 -0.22)">
       <defs>
        <path d="M 31.78125 66.40625 
Q 24.171875 66.40625 20.328125 58.90625 
Q 16.5 51.421875 16.5 36.375 
Q 16.5 21.390625 20.328125 13.890625 
Q 24.171875 6.390625 31.78125 6.390625 
Q 39.453125 6.390625 43.28125 13.890625 
Q 47.125 21.390625 47.125 36.375 
Q 47.125 51.421875 43.28125 58.90625 
Q 39.453125 66.40625 31.78125 66.40625 
z
M 31.78125 74.21875 
Q 44.046875 74.21875 50.515625 64.515625 
Q 56.984375 54.828125 56.984375 36.375 
Q 56.984375 17.96875 50.515625 8.265625 
Q 44.046875 -1.421875 31.78125 -1.421875 
Q 19.53125 -1.421875 13.0625 8.265625 
Q 6.59375 17.96875 6.59375 36.375 
Q 6.59375 54.828125 13.0625 64.515625 
Q 19.53125 74.21875 31.78125 74.21875 
z
" id="DejaVuSans-48"/>
       </defs>
       <use xlink:href="#DejaVuSans-48"/>
      </g>
     </g>
    </g>
    <g id="xtick_2">
     <g id="text_2">
      <!-- 1 -->
      <g style="fill:#262626;" transform="translate(281.612083 347.216563)scale(0.22 -0.22)">
       <defs>
        <path d="M 12.40625 8.296875 
L 28.515625 8.296875 
L 28.515625 63.921875 
L 10.984375 60.40625 
L 10.984375 69.390625 
L 28.421875 72.90625 
L 38.28125 72.90625 
L 38.28125 8.296875 
L 54.390625 8.296875 
L 54.390625 0 
L 12.40625 0 
z
" id="DejaVuSans-49"/>
       </defs>
       <use xlink:href="#DejaVuSans-49"/>
      </g>
     </g>
    </g>
    <g id="xtick_3">
     <g id="text_3">
      <!-- 2 -->
      <g style="fill:#262626;" transform="translate(403.571656 347.216563)scale(0.22 -0.22)">
       <defs>
        <path d="M 19.1875 8.296875 
L 53.609375 8.296875 
L 53.609375 0 
L 7.328125 0 
L 7.328125 8.296875 
Q 12.9375 14.109375 22.625 23.890625 
Q 32.328125 33.6875 34.8125 36.53125 
Q 39.546875 41.84375 41.421875 45.53125 
Q 43.3125 49.21875 43.3125 52.78125 
Q 43.3125 58.59375 39.234375 62.25 
Q 35.15625 65.921875 28.609375 65.921875 
Q 23.96875 65.921875 18.8125 64.3125 
Q 13.671875 62.703125 7.8125 59.421875 
L 7.8125 69.390625 
Q 13.765625 71.78125 18.9375 73 
Q 24.125 74.21875 28.421875 74.21875 
Q 39.75 74.21875 46.484375 68.546875 
Q 53.21875 62.890625 53.21875 53.421875 
Q 53.21875 48.921875 51.53125 44.890625 
Q 49.859375 40.875 45.40625 35.40625 
Q 44.1875 33.984375 37.640625 27.21875 
Q 31.109375 20.453125 19.1875 8.296875 
z
" id="DejaVuSans-50"/>
       </defs>
       <use xlink:href="#DejaVuSans-50"/>
      </g>
     </g>
    </g>
    <g id="xtick_4">
     <g id="text_4">
      <!-- 3 -->
      <g style="fill:#262626;" transform="translate(525.531228 347.216563)scale(0.22 -0.22)">
       <defs>
        <path d="M 40.578125 39.3125 
Q 47.65625 37.796875 51.625 33 
Q 55.609375 28.21875 55.609375 21.1875 
Q 55.609375 10.40625 48.1875 4.484375 
Q 40.765625 -1.421875 27.09375 -1.421875 
Q 22.515625 -1.421875 17.65625 -0.515625 
Q 12.796875 0.390625 7.625 2.203125 
L 7.625 11.71875 
Q 11.71875 9.328125 16.59375 8.109375 
Q 21.484375 6.890625 26.8125 6.890625 
Q 36.078125 6.890625 40.9375 10.546875 
Q 45.796875 14.203125 45.796875 21.1875 
Q 45.796875 27.640625 41.28125 31.265625 
Q 36.765625 34.90625 28.71875 34.90625 
L 20.21875 34.90625 
L 20.21875 43.015625 
L 29.109375 43.015625 
Q 36.375 43.015625 40.234375 45.921875 
Q 44.09375 48.828125 44.09375 54.296875 
Q 44.09375 59.90625 40.109375 62.90625 
Q 36.140625 65.921875 28.71875 65.921875 
Q 24.65625 65.921875 20.015625 65.03125 
Q 15.375 64.15625 9.8125 62.3125 
L 9.8125 71.09375 
Q 15.4375 72.65625 20.34375 73.4375 
Q 25.25 74.21875 29.59375 74.21875 
Q 40.828125 74.21875 47.359375 69.109375 
Q 53.90625 64.015625 53.90625 55.328125 
Q 53.90625 49.265625 50.4375 45.09375 
Q 46.96875 40.921875 40.578125 39.3125 
z
" id="DejaVuSans-51"/>
       </defs>
       <use xlink:href="#DejaVuSans-51"/>
      </g>
     </g>
    </g>
    <g id="xtick_5">
     <g id="text_5">
      <!-- 4 -->
      <g style="fill:#262626;" transform="translate(647.490801 347.216563)scale(0.22 -0.22)">
       <defs>
        <path d="M 37.796875 64.3125 
L 12.890625 25.390625 
L 37.796875 25.390625 
z
M 35.203125 72.90625 
L 47.609375 72.90625 
L 47.609375 25.390625 
L 58.015625 25.390625 
L 58.015625 17.1875 
L 47.609375 17.1875 
L 47.609375 0 
L 37.796875 0 
L 37.796875 17.1875 
L 4.890625 17.1875 
L 4.890625 26.703125 
z
" id="DejaVuSans-52"/>
       </defs>
       <use xlink:href="#DejaVuSans-52"/>
      </g>
     </g>
    </g>
    <g id="xtick_6">
     <g id="text_6">
      <!-- 5 -->
      <g style="fill:#262626;" transform="translate(769.450374 347.216563)scale(0.22 -0.22)">
       <defs>
        <path d="M 10.796875 72.90625 
L 49.515625 72.90625 
L 49.515625 64.59375 
L 19.828125 64.59375 
L 19.828125 46.734375 
Q 21.96875 47.46875 24.109375 47.828125 
Q 26.265625 48.1875 28.421875 48.1875 
Q 40.625 48.1875 47.75 41.5 
Q 54.890625 34.8125 54.890625 23.390625 
Q 54.890625 11.625 47.5625 5.09375 
Q 40.234375 -1.421875 26.90625 -1.421875 
Q 22.3125 -1.421875 17.546875 -0.640625 
Q 12.796875 0.140625 7.71875 1.703125 
L 7.71875 11.625 
Q 12.109375 9.234375 16.796875 8.0625 
Q 21.484375 6.890625 26.703125 6.890625 
Q 35.15625 6.890625 40.078125 11.328125 
Q 45.015625 15.765625 45.015625 23.390625 
Q 45.015625 31 40.078125 35.4375 
Q 35.15625 39.890625 26.703125 39.890625 
Q 22.75 39.890625 18.8125 39.015625 
Q 14.890625 38.140625 10.796875 36.28125 
z
" id="DejaVuSans-53"/>
       </defs>
       <use xlink:href="#DejaVuSans-53"/>
      </g>
     </g>
    </g>
    <g id="xtick_7">
     <g id="text_7">
      <!-- 6 -->
      <g style="fill:#262626;" transform="translate(891.409946 347.216563)scale(0.22 -0.22)">
       <defs>
        <path d="M 33.015625 40.375 
Q 26.375 40.375 22.484375 35.828125 
Q 18.609375 31.296875 18.609375 23.390625 
Q 18.609375 15.53125 22.484375 10.953125 
Q 26.375 6.390625 33.015625 6.390625 
Q 39.65625 6.390625 43.53125 10.953125 
Q 47.40625 15.53125 47.40625 23.390625 
Q 47.40625 31.296875 43.53125 35.828125 
Q 39.65625 40.375 33.015625 40.375 
z
M 52.59375 71.296875 
L 52.59375 62.3125 
Q 48.875 64.0625 45.09375 64.984375 
Q 41.3125 65.921875 37.59375 65.921875 
Q 27.828125 65.921875 22.671875 59.328125 
Q 17.53125 52.734375 16.796875 39.40625 
Q 19.671875 43.65625 24.015625 45.921875 
Q 28.375 48.1875 33.59375 48.1875 
Q 44.578125 48.1875 50.953125 41.515625 
Q 57.328125 34.859375 57.328125 23.390625 
Q 57.328125 12.15625 50.6875 5.359375 
Q 44.046875 -1.421875 33.015625 -1.421875 
Q 20.359375 -1.421875 13.671875 8.265625 
Q 6.984375 17.96875 6.984375 36.375 
Q 6.984375 53.65625 15.1875 63.9375 
Q 23.390625 74.21875 37.203125 74.21875 
Q 40.921875 74.21875 44.703125 73.484375 
Q 48.484375 72.75 52.59375 71.296875 
z
" id="DejaVuSans-54"/>
       </defs>
       <use xlink:href="#DejaVuSans-54"/>
      </g>
     </g>
    </g>
    <g id="text_8">
     <!-- Chromosome 20 Position -->
     <g style="fill:#262626;" transform="translate(404.20125 374.028125)scale(0.24 -0.24)">
      <defs>
       <path d="M 64.40625 67.28125 
L 64.40625 56.890625 
Q 59.421875 61.53125 53.78125 63.8125 
Q 48.140625 66.109375 41.796875 66.109375 
Q 29.296875 66.109375 22.65625 58.46875 
Q 16.015625 50.828125 16.015625 36.375 
Q 16.015625 21.96875 22.65625 14.328125 
Q 29.296875 6.6875 41.796875 6.6875 
Q 48.140625 6.6875 53.78125 8.984375 
Q 59.421875 11.28125 64.40625 15.921875 
L 64.40625 5.609375 
Q 59.234375 2.09375 53.4375 0.328125 
Q 47.65625 -1.421875 41.21875 -1.421875 
Q 24.65625 -1.421875 15.125 8.703125 
Q 5.609375 18.84375 5.609375 36.375 
Q 5.609375 53.953125 15.125 64.078125 
Q 24.65625 74.21875 41.21875 74.21875 
Q 47.75 74.21875 53.53125 72.484375 
Q 59.328125 70.75 64.40625 67.28125 
z
" id="DejaVuSans-67"/>
       <path d="M 54.890625 33.015625 
L 54.890625 0 
L 45.90625 0 
L 45.90625 32.71875 
Q 45.90625 40.484375 42.875 44.328125 
Q 39.84375 48.1875 33.796875 48.1875 
Q 26.515625 48.1875 22.3125 43.546875 
Q 18.109375 38.921875 18.109375 30.90625 
L 18.109375 0 
L 9.078125 0 
L 9.078125 75.984375 
L 18.109375 75.984375 
L 18.109375 46.1875 
Q 21.34375 51.125 25.703125 53.5625 
Q 30.078125 56 35.796875 56 
Q 45.21875 56 50.046875 50.171875 
Q 54.890625 44.34375 54.890625 33.015625 
z
" id="DejaVuSans-104"/>
       <path d="M 41.109375 46.296875 
Q 39.59375 47.171875 37.8125 47.578125 
Q 36.03125 48 33.890625 48 
Q 26.265625 48 22.1875 43.046875 
Q 18.109375 38.09375 18.109375 28.8125 
L 18.109375 0 
L 9.078125 0 
L 9.078125 54.6875 
L 18.109375 54.6875 
L 18.109375 46.1875 
Q 20.953125 51.171875 25.484375 53.578125 
Q 30.03125 56 36.53125 56 
Q 37.453125 56 38.578125 55.875 
Q 39.703125 55.765625 41.0625 55.515625 
z
" id="DejaVuSans-114"/>
       <path d="M 30.609375 48.390625 
Q 23.390625 48.390625 19.1875 42.75 
Q 14.984375 37.109375 14.984375 27.296875 
Q 14.984375 17.484375 19.15625 11.84375 
Q 23.34375 6.203125 30.609375 6.203125 
Q 37.796875 6.203125 41.984375 11.859375 
Q 46.1875 17.53125 46.1875 27.296875 
Q 46.1875 37.015625 41.984375 42.703125 
Q 37.796875 48.390625 30.609375 48.390625 
z
M 30.609375 56 
Q 42.328125 56 49.015625 48.375 
Q 55.71875 40.765625 55.71875 27.296875 
Q 55.71875 13.875 49.015625 6.21875 
Q 42.328125 -1.421875 30.609375 -1.421875 
Q 18.84375 -1.421875 12.171875 6.21875 
Q 5.515625 13.875 5.515625 27.296875 
Q 5.515625 40.765625 12.171875 48.375 
Q 18.84375 56 30.609375 56 
z
" id="DejaVuSans-111"/>
       <path d="M 52 44.1875 
Q 55.375 50.25 60.0625 53.125 
Q 64.75 56 71.09375 56 
Q 79.640625 56 84.28125 50.015625 
Q 88.921875 44.046875 88.921875 33.015625 
L 88.921875 0 
L 79.890625 0 
L 79.890625 32.71875 
Q 79.890625 40.578125 77.09375 44.375 
Q 74.3125 48.1875 68.609375 48.1875 
Q 61.625 48.1875 57.5625 43.546875 
Q 53.515625 38.921875 53.515625 30.90625 
L 53.515625 0 
L 44.484375 0 
L 44.484375 32.71875 
Q 44.484375 40.625 41.703125 44.40625 
Q 38.921875 48.1875 33.109375 48.1875 
Q 26.21875 48.1875 22.15625 43.53125 
Q 18.109375 38.875 18.109375 30.90625 
L 18.109375 0 
L 9.078125 0 
L 9.078125 54.6875 
L 18.109375 54.6875 
L 18.109375 46.1875 
Q 21.1875 51.21875 25.484375 53.609375 
Q 29.78125 56 35.6875 56 
Q 41.65625 56 45.828125 52.96875 
Q 50 49.953125 52 44.1875 
z
" id="DejaVuSans-109"/>
       <path d="M 44.28125 53.078125 
L 44.28125 44.578125 
Q 40.484375 46.53125 36.375 47.5 
Q 32.28125 48.484375 27.875 48.484375 
Q 21.1875 48.484375 17.84375 46.4375 
Q 14.5 44.390625 14.5 40.28125 
Q 14.5 37.15625 16.890625 35.375 
Q 19.28125 33.59375 26.515625 31.984375 
L 29.59375 31.296875 
Q 39.15625 29.25 43.1875 25.515625 
Q 47.21875 21.78125 47.21875 15.09375 
Q 47.21875 7.46875 41.1875 3.015625 
Q 35.15625 -1.421875 24.609375 -1.421875 
Q 20.21875 -1.421875 15.453125 -0.5625 
Q 10.6875 0.296875 5.421875 2 
L 5.421875 11.28125 
Q 10.40625 8.6875 15.234375 7.390625 
Q 20.0625 6.109375 24.8125 6.109375 
Q 31.15625 6.109375 34.5625 8.28125 
Q 37.984375 10.453125 37.984375 14.40625 
Q 37.984375 18.0625 35.515625 20.015625 
Q 33.0625 21.96875 24.703125 23.78125 
L 21.578125 24.515625 
Q 13.234375 26.265625 9.515625 29.90625 
Q 5.8125 33.546875 5.8125 39.890625 
Q 5.8125 47.609375 11.28125 51.796875 
Q 16.75 56 26.8125 56 
Q 31.78125 56 36.171875 55.265625 
Q 40.578125 54.546875 44.28125 53.078125 
z
" id="DejaVuSans-115"/>
       <path d="M 56.203125 29.59375 
L 56.203125 25.203125 
L 14.890625 25.203125 
Q 15.484375 15.921875 20.484375 11.0625 
Q 25.484375 6.203125 34.421875 6.203125 
Q 39.59375 6.203125 44.453125 7.46875 
Q 49.3125 8.734375 54.109375 11.28125 
L 54.109375 2.78125 
Q 49.265625 0.734375 44.1875 -0.34375 
Q 39.109375 -1.421875 33.890625 -1.421875 
Q 20.796875 -1.421875 13.15625 6.1875 
Q 5.515625 13.8125 5.515625 26.8125 
Q 5.515625 40.234375 12.765625 48.109375 
Q 20.015625 56 32.328125 56 
Q 43.359375 56 49.78125 48.890625 
Q 56.203125 41.796875 56.203125 29.59375 
z
M 47.21875 32.234375 
Q 47.125 39.59375 43.09375 43.984375 
Q 39.0625 48.390625 32.421875 48.390625 
Q 24.90625 48.390625 20.390625 44.140625 
Q 15.875 39.890625 15.1875 32.171875 
z
" id="DejaVuSans-101"/>
       <path id="DejaVuSans-32"/>
       <path d="M 19.671875 64.796875 
L 19.671875 37.40625 
L 32.078125 37.40625 
Q 38.96875 37.40625 42.71875 40.96875 
Q 46.484375 44.53125 46.484375 51.125 
Q 46.484375 57.671875 42.71875 61.234375 
Q 38.96875 64.796875 32.078125 64.796875 
z
M 9.8125 72.90625 
L 32.078125 72.90625 
Q 44.34375 72.90625 50.609375 67.359375 
Q 56.890625 61.8125 56.890625 51.125 
Q 56.890625 40.328125 50.609375 34.8125 
Q 44.34375 29.296875 32.078125 29.296875 
L 19.671875 29.296875 
L 19.671875 0 
L 9.8125 0 
z
" id="DejaVuSans-80"/>
       <path d="M 9.421875 54.6875 
L 18.40625 54.6875 
L 18.40625 0 
L 9.421875 0 
z
M 9.421875 75.984375 
L 18.40625 75.984375 
L 18.40625 64.59375 
L 9.421875 64.59375 
z
" id="DejaVuSans-105"/>
       <path d="M 18.3125 70.21875 
L 18.3125 54.6875 
L 36.8125 54.6875 
L 36.8125 47.703125 
L 18.3125 47.703125 
L 18.3125 18.015625 
Q 18.3125 11.328125 20.140625 9.421875 
Q 21.96875 7.515625 27.59375 7.515625 
L 36.8125 7.515625 
L 36.8125 0 
L 27.59375 0 
Q 17.1875 0 13.234375 3.875 
Q 9.28125 7.765625 9.28125 18.015625 
L 9.28125 47.703125 
L 2.6875 47.703125 
L 2.6875 54.6875 
L 9.28125 54.6875 
L 9.28125 70.21875 
z
" id="DejaVuSans-116"/>
       <path d="M 54.890625 33.015625 
L 54.890625 0 
L 45.90625 0 
L 45.90625 32.71875 
Q 45.90625 40.484375 42.875 44.328125 
Q 39.84375 48.1875 33.796875 48.1875 
Q 26.515625 48.1875 22.3125 43.546875 
Q 18.109375 38.921875 18.109375 30.90625 
L 18.109375 0 
L 9.078125 0 
L 9.078125 54.6875 
L 18.109375 54.6875 
L 18.109375 46.1875 
Q 21.34375 51.125 25.703125 53.5625 
Q 30.078125 56 35.796875 56 
Q 45.21875 56 50.046875 50.171875 
Q 54.890625 44.34375 54.890625 33.015625 
z
" id="DejaVuSans-110"/>
      </defs>
      <use xlink:href="#DejaVuSans-67"/>
      <use x="69.824219" xlink:href="#DejaVuSans-104"/>
      <use x="133.203125" xlink:href="#DejaVuSans-114"/>
      <use x="172.066406" xlink:href="#DejaVuSans-111"/>
      <use x="233.248047" xlink:href="#DejaVuSans-109"/>
      <use x="330.660156" xlink:href="#DejaVuSans-111"/>
      <use x="391.841797" xlink:href="#DejaVuSans-115"/>
      <use x="443.941406" xlink:href="#DejaVuSans-111"/>
      <use x="505.123047" xlink:href="#DejaVuSans-109"/>
      <use x="602.535156" xlink:href="#DejaVuSans-101"/>
      <use x="664.058594" xlink:href="#DejaVuSans-32"/>
      <use x="695.845703" xlink:href="#DejaVuSans-50"/>
      <use x="759.46875" xlink:href="#DejaVuSans-48"/>
      <use x="823.091797" xlink:href="#DejaVuSans-32"/>
      <use x="854.878906" xlink:href="#DejaVuSans-80"/>
      <use x="911.556641" xlink:href="#DejaVuSans-111"/>
      <use x="972.738281" xlink:href="#DejaVuSans-115"/>
      <use x="1024.837891" xlink:href="#DejaVuSans-105"/>
      <use x="1052.621094" xlink:href="#DejaVuSans-116"/>
      <use x="1091.830078" xlink:href="#DejaVuSans-105"/>
      <use x="1119.613281" xlink:href="#DejaVuSans-111"/>
      <use x="1180.794922" xlink:href="#DejaVuSans-110"/>
     </g>
    </g>
    <g id="text_9">
     <!-- 1e7 -->
     <g style="fill:#262626;" transform="translate(930.468125 371.508438)scale(0.22 -0.22)">
      <defs>
       <path d="M 8.203125 72.90625 
L 55.078125 72.90625 
L 55.078125 68.703125 
L 28.609375 0 
L 18.3125 0 
L 43.21875 64.59375 
L 8.203125 64.59375 
z
" id="DejaVuSans-55"/>
      </defs>
      <use xlink:href="#DejaVuSans-49"/>
      <use x="63.623047" xlink:href="#DejaVuSans-101"/>
      <use x="125.146484" xlink:href="#DejaVuSans-55"/>
     </g>
    </g>
   </g>
   <g id="matplotlib.axis_2">
    <g id="ytick_1">
     <g id="text_10">
      <!-- 0.00 -->
      <g style="fill:#262626;" transform="translate(70.515625 311.337649)scale(0.22 -0.22)">
       <defs>
        <path d="M 10.6875 12.40625 
L 21 12.40625 
L 21 0 
L 10.6875 0 
z
" id="DejaVuSans-46"/>
       </defs>
       <use xlink:href="#DejaVuSans-48"/>
       <use x="63.623047" xlink:href="#DejaVuSans-46"/>
       <use x="95.410156" xlink:href="#DejaVuSans-48"/>
       <use x="159.033203" xlink:href="#DejaVuSans-48"/>
      </g>
     </g>
    </g>
    <g id="ytick_2">
     <g id="text_11">
      <!-- 0.01 -->
      <g style="fill:#262626;" transform="translate(70.515625 259.765948)scale(0.22 -0.22)">
       <use xlink:href="#DejaVuSans-48"/>
       <use x="63.623047" xlink:href="#DejaVuSans-46"/>
       <use x="95.410156" xlink:href="#DejaVuSans-48"/>
       <use x="159.033203" xlink:href="#DejaVuSans-49"/>
      </g>
     </g>
    </g>
    <g id="ytick_3">
     <g id="text_12">
      <!-- 0.02 -->
      <g style="fill:#262626;" transform="translate(70.515625 208.194246)scale(0.22 -0.22)">
       <use xlink:href="#DejaVuSans-48"/>
       <use x="63.623047" xlink:href="#DejaVuSans-46"/>
       <use x="95.410156" xlink:href="#DejaVuSans-48"/>
       <use x="159.033203" xlink:href="#DejaVuSans-50"/>
      </g>
     </g>
    </g>
    <g id="ytick_4">
     <g id="text_13">
      <!-- 0.03 -->
      <g style="fill:#262626;" transform="translate(70.515625 156.622545)scale(0.22 -0.22)">
       <use xlink:href="#DejaVuSans-48"/>
       <use x="63.623047" xlink:href="#DejaVuSans-46"/>
       <use x="95.410156" xlink:href="#DejaVuSans-48"/>
       <use x="159.033203" xlink:href="#DejaVuSans-51"/>
      </g>
     </g>
    </g>
    <g id="ytick_5">
     <g id="text_14">
      <!-- 0.04 -->
      <g style="fill:#262626;" transform="translate(70.515625 105.050844)scale(0.22 -0.22)">
       <use xlink:href="#DejaVuSans-48"/>
       <use x="63.623047" xlink:href="#DejaVuSans-46"/>
       <use x="95.410156" xlink:href="#DejaVuSans-48"/>
       <use x="159.033203" xlink:href="#DejaVuSans-52"/>
      </g>
     </g>
    </g>
    <g id="ytick_6">
     <g id="text_15">
      <!-- 0.05 -->
      <g style="fill:#262626;" transform="translate(70.515625 53.479143)scale(0.22 -0.22)">
       <use xlink:href="#DejaVuSans-48"/>
       <use x="63.623047" xlink:href="#DejaVuSans-46"/>
       <use x="95.410156" xlink:href="#DejaVuSans-48"/>
       <use x="159.033203" xlink:href="#DejaVuSans-53"/>
      </g>
     </g>
    </g>
    <g id="text_16">
     <!-- 3D Divergence -->
     <g style="fill:#262626;" transform="translate(34.649625 268.160625)rotate(-90)scale(0.24 -0.24)">
      <defs>
       <path d="M 19.671875 64.796875 
L 19.671875 8.109375 
L 31.59375 8.109375 
Q 46.6875 8.109375 53.6875 14.9375 
Q 60.6875 21.78125 60.6875 36.53125 
Q 60.6875 51.171875 53.6875 57.984375 
Q 46.6875 64.796875 31.59375 64.796875 
z
M 9.8125 72.90625 
L 30.078125 72.90625 
Q 51.265625 72.90625 61.171875 64.09375 
Q 71.09375 55.28125 71.09375 36.53125 
Q 71.09375 17.671875 61.125 8.828125 
Q 51.171875 0 30.078125 0 
L 9.8125 0 
z
" id="DejaVuSans-68"/>
       <path d="M 2.984375 54.6875 
L 12.5 54.6875 
L 29.59375 8.796875 
L 46.6875 54.6875 
L 56.203125 54.6875 
L 35.6875 0 
L 23.484375 0 
z
" id="DejaVuSans-118"/>
       <path d="M 45.40625 27.984375 
Q 45.40625 37.75 41.375 43.109375 
Q 37.359375 48.484375 30.078125 48.484375 
Q 22.859375 48.484375 18.828125 43.109375 
Q 14.796875 37.75 14.796875 27.984375 
Q 14.796875 18.265625 18.828125 12.890625 
Q 22.859375 7.515625 30.078125 7.515625 
Q 37.359375 7.515625 41.375 12.890625 
Q 45.40625 18.265625 45.40625 27.984375 
z
M 54.390625 6.78125 
Q 54.390625 -7.171875 48.1875 -13.984375 
Q 42 -20.796875 29.203125 -20.796875 
Q 24.46875 -20.796875 20.265625 -20.09375 
Q 16.0625 -19.390625 12.109375 -17.921875 
L 12.109375 -9.1875 
Q 16.0625 -11.328125 19.921875 -12.34375 
Q 23.78125 -13.375 27.78125 -13.375 
Q 36.625 -13.375 41.015625 -8.765625 
Q 45.40625 -4.15625 45.40625 5.171875 
L 45.40625 9.625 
Q 42.625 4.78125 38.28125 2.390625 
Q 33.9375 0 27.875 0 
Q 17.828125 0 11.671875 7.65625 
Q 5.515625 15.328125 5.515625 27.984375 
Q 5.515625 40.671875 11.671875 48.328125 
Q 17.828125 56 27.875 56 
Q 33.9375 56 38.28125 53.609375 
Q 42.625 51.21875 45.40625 46.390625 
L 45.40625 54.6875 
L 54.390625 54.6875 
z
" id="DejaVuSans-103"/>
       <path d="M 48.78125 52.59375 
L 48.78125 44.1875 
Q 44.96875 46.296875 41.140625 47.34375 
Q 37.3125 48.390625 33.40625 48.390625 
Q 24.65625 48.390625 19.8125 42.84375 
Q 14.984375 37.3125 14.984375 27.296875 
Q 14.984375 17.28125 19.8125 11.734375 
Q 24.65625 6.203125 33.40625 6.203125 
Q 37.3125 6.203125 41.140625 7.25 
Q 44.96875 8.296875 48.78125 10.40625 
L 48.78125 2.09375 
Q 45.015625 0.34375 40.984375 -0.53125 
Q 36.96875 -1.421875 32.421875 -1.421875 
Q 20.0625 -1.421875 12.78125 6.34375 
Q 5.515625 14.109375 5.515625 27.296875 
Q 5.515625 40.671875 12.859375 48.328125 
Q 20.21875 56 33.015625 56 
Q 37.15625 56 41.109375 55.140625 
Q 45.0625 54.296875 48.78125 52.59375 
z
" id="DejaVuSans-99"/>
      </defs>
      <use xlink:href="#DejaVuSans-51"/>
      <use x="63.623047" xlink:href="#DejaVuSans-68"/>
      <use x="140.625" xlink:href="#DejaVuSans-32"/>
      <use x="172.412109" xlink:href="#DejaVuSans-68"/>
      <use x="249.414062" xlink:href="#DejaVuSans-105"/>
      <use x="277.197266" xlink:href="#DejaVuSans-118"/>
      <use x="336.376953" xlink:href="#DejaVuSans-101"/>
      <use x="397.900391" xlink:href="#DejaVuSans-114"/>
      <use x="437.263672" xlink:href="#DejaVuSans-103"/>
      <use x="500.740234" xlink:href="#DejaVuSans-101"/>
      <use x="562.263672" xlink:href="#DejaVuSans-110"/>
      <use x="625.642578" xlink:href="#DejaVuSans-99"/>
      <use x="680.623047" xlink:href="#DejaVuSans-101"/>
     </g>
     <!-- Standard Deviation -->
     <g style="fill:#262626;" transform="translate(61.524375 294.9075)rotate(-90)scale(0.24 -0.24)">
      <defs>
       <path d="M 53.515625 70.515625 
L 53.515625 60.890625 
Q 47.90625 63.578125 42.921875 64.890625 
Q 37.9375 66.21875 33.296875 66.21875 
Q 25.25 66.21875 20.875 63.09375 
Q 16.5 59.96875 16.5 54.203125 
Q 16.5 49.359375 19.40625 46.890625 
Q 22.3125 44.4375 30.421875 42.921875 
L 36.375 41.703125 
Q 47.40625 39.59375 52.65625 34.296875 
Q 57.90625 29 57.90625 20.125 
Q 57.90625 9.515625 50.796875 4.046875 
Q 43.703125 -1.421875 29.984375 -1.421875 
Q 24.8125 -1.421875 18.96875 -0.25 
Q 13.140625 0.921875 6.890625 3.21875 
L 6.890625 13.375 
Q 12.890625 10.015625 18.65625 8.296875 
Q 24.421875 6.59375 29.984375 6.59375 
Q 38.421875 6.59375 43.015625 9.90625 
Q 47.609375 13.234375 47.609375 19.390625 
Q 47.609375 24.75 44.3125 27.78125 
Q 41.015625 30.8125 33.5 32.328125 
L 27.484375 33.5 
Q 16.453125 35.6875 11.515625 40.375 
Q 6.59375 45.0625 6.59375 53.421875 
Q 6.59375 63.09375 13.40625 68.65625 
Q 20.21875 74.21875 32.171875 74.21875 
Q 37.3125 74.21875 42.625 73.28125 
Q 47.953125 72.359375 53.515625 70.515625 
z
" id="DejaVuSans-83"/>
       <path d="M 34.28125 27.484375 
Q 23.390625 27.484375 19.1875 25 
Q 14.984375 22.515625 14.984375 16.5 
Q 14.984375 11.71875 18.140625 8.90625 
Q 21.296875 6.109375 26.703125 6.109375 
Q 34.1875 6.109375 38.703125 11.40625 
Q 43.21875 16.703125 43.21875 25.484375 
L 43.21875 27.484375 
z
M 52.203125 31.203125 
L 52.203125 0 
L 43.21875 0 
L 43.21875 8.296875 
Q 40.140625 3.328125 35.546875 0.953125 
Q 30.953125 -1.421875 24.3125 -1.421875 
Q 15.921875 -1.421875 10.953125 3.296875 
Q 6 8.015625 6 15.921875 
Q 6 25.140625 12.171875 29.828125 
Q 18.359375 34.515625 30.609375 34.515625 
L 43.21875 34.515625 
L 43.21875 35.40625 
Q 43.21875 41.609375 39.140625 45 
Q 35.0625 48.390625 27.6875 48.390625 
Q 23 48.390625 18.546875 47.265625 
Q 14.109375 46.140625 10.015625 43.890625 
L 10.015625 52.203125 
Q 14.9375 54.109375 19.578125 55.046875 
Q 24.21875 56 28.609375 56 
Q 40.484375 56 46.34375 49.84375 
Q 52.203125 43.703125 52.203125 31.203125 
z
" id="DejaVuSans-97"/>
       <path d="M 45.40625 46.390625 
L 45.40625 75.984375 
L 54.390625 75.984375 
L 54.390625 0 
L 45.40625 0 
L 45.40625 8.203125 
Q 42.578125 3.328125 38.25 0.953125 
Q 33.9375 -1.421875 27.875 -1.421875 
Q 17.96875 -1.421875 11.734375 6.484375 
Q 5.515625 14.40625 5.515625 27.296875 
Q 5.515625 40.1875 11.734375 48.09375 
Q 17.96875 56 27.875 56 
Q 33.9375 56 38.25 53.625 
Q 42.578125 51.265625 45.40625 46.390625 
z
M 14.796875 27.296875 
Q 14.796875 17.390625 18.875 11.75 
Q 22.953125 6.109375 30.078125 6.109375 
Q 37.203125 6.109375 41.296875 11.75 
Q 45.40625 17.390625 45.40625 27.296875 
Q 45.40625 37.203125 41.296875 42.84375 
Q 37.203125 48.484375 30.078125 48.484375 
Q 22.953125 48.484375 18.875 42.84375 
Q 14.796875 37.203125 14.796875 27.296875 
z
" id="DejaVuSans-100"/>
      </defs>
      <use xlink:href="#DejaVuSans-83"/>
      <use x="63.476562" xlink:href="#DejaVuSans-116"/>
      <use x="102.685547" xlink:href="#DejaVuSans-97"/>
      <use x="163.964844" xlink:href="#DejaVuSans-110"/>
      <use x="227.34375" xlink:href="#DejaVuSans-100"/>
      <use x="290.820312" xlink:href="#DejaVuSans-97"/>
      <use x="352.099609" xlink:href="#DejaVuSans-114"/>
      <use x="391.462891" xlink:href="#DejaVuSans-100"/>
      <use x="454.939453" xlink:href="#DejaVuSans-32"/>
      <use x="486.726562" xlink:href="#DejaVuSans-68"/>
      <use x="563.728516" xlink:href="#DejaVuSans-101"/>
      <use x="625.251953" xlink:href="#DejaVuSans-118"/>
      <use x="684.431641" xlink:href="#DejaVuSans-105"/>
      <use x="712.214844" xlink:href="#DejaVuSans-97"/>
      <use x="773.494141" xlink:href="#DejaVuSans-116"/>
      <use x="812.703125" xlink:href="#DejaVuSans-105"/>
      <use x="840.486328" xlink:href="#DejaVuSans-111"/>
      <use x="901.667969" xlink:href="#DejaVuSans-110"/>
     </g>
    </g>
   </g>
   <g id="line2d_1">
    <path clip-path="url(#p925158804e)" d="M 173.045455 271.055161 
L 179.439649 294.856985 
L 185.833843 295.125119 
L 192.228037 287.125235 
L 198.622231 220.078317 
L 205.016425 231.005857 
L 211.410619 297.398114 
L 217.804813 301.301821 
L 224.199007 288.198058 
L 230.593201 289.624064 
L 236.987395 300.61023 
L 243.381589 288.086238 
L 249.775783 287.875952 
L 256.169977 301.614172 
L 262.564171 297.962269 
L 268.958365 299.606745 
L 275.352559 295.713788 
L 281.746753 55.554545 
L 288.140947 285.915966 
L 294.535141 293.05304 
L 300.929335 299.69579 
L 307.323529 293.696785 
L 313.717723 237.419988 
L 320.111917 281.216723 
L 326.506112 298.747436 
L 332.900306 296.928516 
L 339.2945 202.369162 
L 345.688694 204.447586 
L 352.082888 267.571482 
L 358.477082 279.256566 
L 364.871276 295.144396 
L 371.26547 288.782176 
L 377.659664 281.588879 
L 384.053858 276.848311 
L 390.448052 292.001843 
L 396.842246 282.444183 
L 403.23644 268.24498 
L 409.630634 294.112675 
L 416.024828 284.063434 
L 422.419022 296.082516 
L 428.813216 295.154401 
L 435.20741 296.824622 
L 441.601604 295.717774 
L 447.995798 281.289771 
L 454.389992 165.627151 
L 460.784186 268.74687 
L 467.17838 283.547376 
L 473.572574 267.76682 
L 550.302903 293.757607 
L 556.697097 294.956599 
L 563.091291 291.453379 
L 569.485485 283.786911 
L 575.879679 288.777349 
L 582.273873 301.410654 
L 588.668067 279.523483 
L 595.062261 301.804072 
L 614.244843 289.926887 
L 620.639037 296.049129 
L 627.033231 300.805909 
L 633.427426 185.758032 
L 639.82162 292.424464 
L 646.215814 298.135541 
L 652.610008 293.575753 
L 659.004202 299.419401 
L 665.398396 260.328229 
L 671.79259 265.194532 
L 678.186784 160.278727 
L 684.580978 294.655297 
L 690.975172 284.408922 
L 697.369366 288.229958 
L 703.76356 281.554666 
L 710.157754 289.512677 
L 716.551948 292.827098 
L 722.946142 296.71477 
L 729.340336 301.72933 
L 735.73453 295.19056 
L 742.128724 300.583371 
L 748.522918 280.623262 
L 754.917112 300.321444 
L 761.311306 298.279742 
L 767.7055 297.564268 
L 774.099694 297.94998 
L 780.493888 296.129936 
L 786.888083 263.498674 
L 793.282277 269.967207 
L 799.676471 282.708474 
L 806.070665 205.391715 
L 812.464859 294.432594 
L 818.859053 295.973444 
L 825.253247 298.651496 
L 831.647441 279.516916 
L 838.041635 284.199951 
L 844.435829 300.465688 
L 850.830023 300.643235 
L 857.224217 301.764775 
L 863.618411 301.728293 
L 870.012605 302.493333 
L 876.406799 292.409313 
L 882.800993 297.49226 
L 889.195187 274.301066 
L 895.589381 276.932806 
L 901.983575 294.685427 
L 908.377769 298.329426 
L 914.771963 300.519384 
L 921.166157 294.104892 
L 927.560351 298.336447 
L 933.954545 234.610496 
" style="fill:none;stroke:#f77189;stroke-linecap:round;stroke-width:3;"/>
   </g>
   <g id="line2d_2">
    <path clip-path="url(#p925158804e)" d="M 173.045455 274.750696 
L 179.439649 293.609356 
L 185.833843 295.60938 
L 192.228037 289.463807 
L 198.622231 218.697412 
L 205.016425 232.707533 
L 211.410619 300.473908 
L 217.804813 301.520009 
L 224.199007 282.15439 
L 230.593201 268.134524 
L 236.987395 293.692807 
L 243.381589 284.375966 
L 249.775783 283.301944 
L 256.169977 302.12236 
L 262.564171 298.556135 
L 268.958365 302.272788 
L 275.352559 296.278056 
L 281.746753 88.3485 
L 288.140947 298.265309 
L 294.535141 299.112876 
L 300.929335 302.114412 
L 307.323529 298.353159 
L 313.717723 230.428033 
L 320.111917 277.232633 
L 326.506112 299.471527 
L 332.900306 299.377566 
L 339.2945 244.90512 
L 345.688694 259.952905 
L 352.082888 295.650994 
L 358.477082 293.780633 
L 364.871276 301.602196 
L 371.26547 301.3075 
L 377.659664 298.888129 
L 384.053858 292.686281 
L 390.448052 297.238148 
L 396.842246 286.591851 
L 403.23644 272.283519 
L 409.630634 299.972314 
L 416.024828 302.071489 
L 422.419022 300.643146 
L 428.813216 300.846419 
L 435.20741 302.090774 
L 441.601604 296.984068 
L 447.995798 292.887425 
L 454.389992 269.279121 
L 460.784186 285.238233 
L 467.17838 290.731236 
L 473.572574 280.493899 
L 550.302903 300.260099 
L 556.697097 296.512126 
L 563.091291 300.594909 
L 569.485485 301.98176 
L 575.879679 301.892632 
L 582.273873 302.035755 
L 588.668067 279.28081 
L 595.062261 301.365494 
L 614.244843 300.945734 
L 620.639037 302.144552 
L 627.033231 300.753377 
L 633.427426 192.314485 
L 639.82162 287.726765 
L 646.215814 299.204817 
L 652.610008 290.786502 
L 659.004202 292.226204 
L 665.398396 233.435298 
L 671.79259 251.45034 
L 678.186784 273.27034 
L 684.580978 301.860131 
L 690.975172 302.144122 
L 697.369366 302.137118 
L 703.76356 282.342484 
L 710.157754 294.908402 
L 716.551948 301.73002 
L 722.946142 301.767758 
L 729.340336 302.440138 
L 735.73453 294.066091 
L 742.128724 301.5427 
L 748.522918 283.014808 
L 754.917112 299.909666 
L 761.311306 294.74656 
L 767.7055 302.455782 
L 774.099694 301.448847 
L 780.493888 299.693884 
L 786.888083 270.431928 
L 793.282277 266.354351 
L 799.676471 299.504047 
L 806.070665 167.913192 
L 812.464859 291.325807 
L 818.859053 301.131941 
L 825.253247 300.929454 
L 831.647441 292.003635 
L 838.041635 290.277846 
L 844.435829 301.642513 
L 850.830023 298.940137 
L 857.224217 300.559346 
L 863.618411 301.38145 
L 870.012605 302.572798 
L 876.406799 290.403104 
L 882.800993 297.736253 
L 889.195187 272.533138 
L 895.589381 275.498251 
L 901.983575 292.953554 
L 908.377769 299.685654 
L 914.771963 299.178568 
L 921.166157 294.031899 
L 927.560351 297.499903 
L 933.954545 229.707165 
" style="fill:none;stroke:#bb9832;stroke-linecap:round;stroke-width:3;"/>
   </g>
   <g id="line2d_3">
    <path clip-path="url(#p925158804e)" d="M 173.045455 274.546725 
L 179.439649 295.032563 
L 185.833843 290.627064 
L 192.228037 291.103247 
L 198.622231 227.220124 
L 205.016425 239.107275 
L 211.410619 300.928776 
L 217.804813 301.352992 
L 224.199007 293.416878 
L 230.593201 294.597125 
L 236.987395 302.419362 
L 243.381589 257.26358 
L 249.775783 283.285338 
L 256.169977 301.943113 
L 262.564171 301.258325 
L 268.958365 302.443281 
L 275.352559 297.151593 
L 281.746753 131.398705 
L 288.140947 298.182296 
L 294.535141 299.164803 
L 300.929335 301.859945 
L 307.323529 296.897729 
L 313.717723 235.557396 
L 320.111917 278.330369 
L 326.506112 299.471562 
L 332.900306 295.446006 
L 339.2945 265.806475 
L 345.688694 275.982407 
L 352.082888 292.325715 
L 358.477082 294.569452 
L 364.871276 301.595186 
L 371.26547 299.407691 
L 377.659664 296.720547 
L 384.053858 298.58063 
L 390.448052 296.798312 
L 396.842246 297.389036 
L 403.23644 296.738207 
L 409.630634 301.130416 
L 416.024828 301.398487 
L 422.419022 298.02895 
L 428.813216 297.743305 
L 435.20741 302.251265 
L 441.601604 298.096449 
L 447.995798 293.6285 
L 454.389992 285.853562 
L 460.784186 288.849175 
L 467.17838 298.162558 
L 473.572574 293.661112 
L 550.302903 301.503675 
L 556.697097 295.875415 
L 563.091291 301.393575 
L 569.485485 300.157132 
L 575.879679 302.050588 
L 582.273873 299.952207 
L 588.668067 291.386482 
L 595.062261 301.97829 
L 614.244843 298.615781 
L 620.639037 300.364251 
L 627.033231 300.563681 
L 633.427426 205.70414 
L 639.82162 286.527503 
L 646.215814 294.624346 
L 652.610008 283.006297 
L 659.004202 299.75847 
L 665.398396 244.389367 
L 671.79259 270.975477 
L 678.186784 299.478616 
L 684.580978 301.679691 
L 690.975172 302.401571 
L 697.369366 301.968967 
L 703.76356 280.69527 
L 710.157754 294.832089 
L 716.551948 301.263143 
L 722.946142 287.766949 
L 729.340336 293.331298 
L 735.73453 296.028928 
L 742.128724 301.583865 
L 748.522918 287.364317 
L 754.917112 300.086376 
L 761.311306 300.834391 
L 767.7055 302.303203 
L 774.099694 302.212289 
L 780.493888 301.701117 
L 786.888083 261.259793 
L 793.282277 266.206668 
L 799.676471 301.272389 
L 806.070665 171.686373 
L 812.464859 290.974143 
L 818.859053 300.837419 
L 825.253247 300.941124 
L 831.647441 282.080419 
L 838.041635 277.199888 
L 844.435829 299.531087 
L 850.830023 300.251562 
L 857.224217 302.217538 
L 863.618411 302.400803 
L 870.012605 302.62877 
L 876.406799 289.466435 
L 882.800993 296.633066 
L 889.195187 295.902575 
L 895.589381 296.524828 
L 901.983575 298.429536 
L 908.377769 299.792844 
L 914.771963 300.651753 
L 921.166157 295.530574 
L 927.560351 299.60429 
L 933.954545 258.282938 
" style="fill:none;stroke:#50b131;stroke-linecap:round;stroke-width:3;"/>
   </g>
   <g id="line2d_4">
    <path clip-path="url(#p925158804e)" d="M 173.045455 274.74014 
L 179.439649 296.079083 
L 185.833843 297.190748 
L 192.228037 288.577421 
L 198.622231 221.78211 
L 205.016425 235.476995 
L 211.410619 299.961838 
L 217.804813 301.130251 
L 224.199007 285.200401 
L 230.593201 266.551449 
L 236.987395 293.02201 
L 243.381589 288.075856 
L 249.775783 283.587431 
L 256.169977 301.837033 
L 262.564171 300.215587 
L 268.958365 301.54009 
L 275.352559 296.764737 
L 281.746753 106.504691 
L 288.140947 298.564769 
L 294.535141 299.379142 
L 300.929335 300.930769 
L 307.323529 295.334939 
L 313.717723 237.72406 
L 320.111917 278.445385 
L 326.506112 299.693119 
L 332.900306 299.546114 
L 339.2945 248.76479 
L 345.688694 246.216476 
L 352.082888 295.327395 
L 358.477082 293.012808 
L 364.871276 299.724626 
L 371.26547 298.743067 
L 377.659664 296.811484 
L 384.053858 296.447843 
L 390.448052 296.74706 
L 396.842246 284.194888 
L 403.23644 268.421719 
L 409.630634 292.795857 
L 416.024828 302.237587 
L 422.419022 297.698118 
L 428.813216 296.559318 
L 435.20741 296.297649 
L 441.601604 297.115283 
L 447.995798 291.504825 
L 454.389992 271.447273 
L 460.784186 283.037055 
L 467.17838 280.559937 
L 473.572574 248.947137 
L 550.302903 300.799064 
L 556.697097 297.266204 
L 563.091291 299.504588 
L 569.485485 301.122077 
L 575.879679 301.967711 
L 582.273873 302.645455 
L 588.668067 281.450753 
L 595.062261 302.214557 
L 614.244843 300.407709 
L 620.639037 301.298603 
L 627.033231 300.529973 
L 633.427426 197.461157 
L 639.82162 287.009883 
L 646.215814 298.335582 
L 652.610008 293.453242 
L 659.004202 301.455891 
L 665.398396 235.980974 
L 671.79259 260.358978 
L 678.186784 291.996167 
L 684.580978 301.177533 
L 690.975172 298.564398 
L 697.369366 299.490378 
L 703.76356 282.965037 
L 710.157754 295.269746 
L 716.551948 300.642347 
L 722.946142 301.085998 
L 729.340336 302.398625 
L 735.73453 293.901859 
L 742.128724 301.512573 
L 748.522918 287.511039 
L 754.917112 300.061015 
L 761.311306 294.089479 
L 767.7055 301.957161 
L 774.099694 301.868101 
L 780.493888 300.552004 
L 786.888083 258.846482 
L 793.282277 267.461873 
L 799.676471 295.462166 
L 806.070665 164.84439 
L 812.464859 290.821357 
L 818.859053 301.058833 
L 825.253247 300.460535 
L 831.647441 292.084703 
L 838.041635 289.43691 
L 844.435829 301.296501 
L 850.830023 299.215908 
L 857.224217 301.230668 
L 863.618411 301.789507 
L 870.012605 302.378496 
L 876.406799 290.087443 
L 882.800993 297.884517 
L 889.195187 275.706458 
L 895.589381 277.440579 
L 901.983575 297.15665 
L 908.377769 300.228774 
L 914.771963 300.816166 
L 921.166157 294.070888 
L 927.560351 298.234252 
L 933.954545 244.377791 
" style="fill:none;stroke:#36ada4;stroke-linecap:round;stroke-width:3;"/>
   </g>
   <g id="patch_3">
    <path d="M 135 315 
L 135 43.2 
" style="fill:none;stroke:#262626;stroke-linecap:square;stroke-linejoin:miter;stroke-width:2.5;"/>
   </g>
   <g id="patch_4">
    <path d="M 972 315 
L 972 43.2 
" style="fill:none;stroke:#262626;stroke-linecap:square;stroke-linejoin:miter;stroke-width:2.5;"/>
   </g>
   <g id="patch_5">
    <path d="M 135 315 
L 972 315 
" style="fill:none;stroke:#262626;stroke-linecap:square;stroke-linejoin:miter;stroke-width:2.5;"/>
   </g>
   <g id="patch_6">
    <path d="M 135 43.2 
L 972 43.2 
" style="fill:none;stroke:#262626;stroke-linecap:square;stroke-linejoin:miter;stroke-width:2.5;"/>
   </g>
   <g id="legend_1">
    <g id="patch_7">
     <path d="M 836.882187 189.9675 
L 956.6 189.9675 
Q 961 189.9675 961 185.5675 
L 961 58.6 
Q 961 54.2 956.6 54.2 
L 836.882187 54.2 
Q 832.482188 54.2 832.482188 58.6 
L 832.482188 185.5675 
Q 832.482188 189.9675 836.882187 189.9675 
z
" style="fill:#ffffff;opacity:0.8;stroke:#cccccc;stroke-linejoin:miter;stroke-width:2;"/>
    </g>
    <g id="line2d_5">
     <path d="M 841.282187 72.016563 
L 885.282187 72.016563 
" style="fill:none;stroke:#f77189;stroke-linecap:round;stroke-width:3;"/>
    </g>
    <g id="line2d_6"/>
    <g id="text_17">
     <!-- AFR -->
     <g style="fill:#262626;" transform="translate(902.882187 79.716563)scale(0.22 -0.22)">
      <defs>
       <path d="M 34.1875 63.1875 
L 20.796875 26.90625 
L 47.609375 26.90625 
z
M 28.609375 72.90625 
L 39.796875 72.90625 
L 67.578125 0 
L 57.328125 0 
L 50.6875 18.703125 
L 17.828125 18.703125 
L 11.1875 0 
L 0.78125 0 
z
" id="DejaVuSans-65"/>
       <path d="M 9.8125 72.90625 
L 51.703125 72.90625 
L 51.703125 64.59375 
L 19.671875 64.59375 
L 19.671875 43.109375 
L 48.578125 43.109375 
L 48.578125 34.8125 
L 19.671875 34.8125 
L 19.671875 0 
L 9.8125 0 
z
" id="DejaVuSans-70"/>
       <path d="M 44.390625 34.1875 
Q 47.5625 33.109375 50.5625 29.59375 
Q 53.5625 26.078125 56.59375 19.921875 
L 66.609375 0 
L 56 0 
L 46.6875 18.703125 
Q 43.0625 26.03125 39.671875 28.421875 
Q 36.28125 30.8125 30.421875 30.8125 
L 19.671875 30.8125 
L 19.671875 0 
L 9.8125 0 
L 9.8125 72.90625 
L 32.078125 72.90625 
Q 44.578125 72.90625 50.734375 67.671875 
Q 56.890625 62.453125 56.890625 51.90625 
Q 56.890625 45.015625 53.6875 40.46875 
Q 50.484375 35.9375 44.390625 34.1875 
z
M 19.671875 64.796875 
L 19.671875 38.921875 
L 32.078125 38.921875 
Q 39.203125 38.921875 42.84375 42.21875 
Q 46.484375 45.515625 46.484375 51.90625 
Q 46.484375 58.296875 42.84375 61.546875 
Q 39.203125 64.796875 32.078125 64.796875 
z
" id="DejaVuSans-82"/>
      </defs>
      <use xlink:href="#DejaVuSans-65"/>
      <use x="68.408203" xlink:href="#DejaVuSans-70"/>
      <use x="125.927734" xlink:href="#DejaVuSans-82"/>
     </g>
    </g>
    <g id="line2d_7">
     <path d="M 841.282187 104.308438 
L 885.282187 104.308438 
" style="fill:none;stroke:#bb9832;stroke-linecap:round;stroke-width:3;"/>
    </g>
    <g id="line2d_8"/>
    <g id="text_18">
     <!-- EUR -->
     <g style="fill:#262626;" transform="translate(902.882187 112.008438)scale(0.22 -0.22)">
      <defs>
       <path d="M 9.8125 72.90625 
L 55.90625 72.90625 
L 55.90625 64.59375 
L 19.671875 64.59375 
L 19.671875 43.015625 
L 54.390625 43.015625 
L 54.390625 34.71875 
L 19.671875 34.71875 
L 19.671875 8.296875 
L 56.78125 8.296875 
L 56.78125 0 
L 9.8125 0 
z
" id="DejaVuSans-69"/>
       <path d="M 8.6875 72.90625 
L 18.609375 72.90625 
L 18.609375 28.609375 
Q 18.609375 16.890625 22.84375 11.734375 
Q 27.09375 6.59375 36.625 6.59375 
Q 46.09375 6.59375 50.34375 11.734375 
Q 54.59375 16.890625 54.59375 28.609375 
L 54.59375 72.90625 
L 64.5 72.90625 
L 64.5 27.390625 
Q 64.5 13.140625 57.4375 5.859375 
Q 50.390625 -1.421875 36.625 -1.421875 
Q 22.796875 -1.421875 15.734375 5.859375 
Q 8.6875 13.140625 8.6875 27.390625 
z
" id="DejaVuSans-85"/>
      </defs>
      <use xlink:href="#DejaVuSans-69"/>
      <use x="63.183594" xlink:href="#DejaVuSans-85"/>
      <use x="136.376953" xlink:href="#DejaVuSans-82"/>
     </g>
    </g>
    <g id="line2d_9">
     <path d="M 841.282187 136.600313 
L 885.282187 136.600313 
" style="fill:none;stroke:#50b131;stroke-linecap:round;stroke-width:3;"/>
    </g>
    <g id="line2d_10"/>
    <g id="text_19">
     <!-- EAS -->
     <g style="fill:#262626;" transform="translate(902.882187 144.300313)scale(0.22 -0.22)">
      <use xlink:href="#DejaVuSans-69"/>
      <use x="63.183594" xlink:href="#DejaVuSans-65"/>
      <use x="131.591797" xlink:href="#DejaVuSans-83"/>
     </g>
    </g>
    <g id="line2d_11">
     <path d="M 841.282187 168.892188 
L 885.282187 168.892188 
" style="fill:none;stroke:#36ada4;stroke-linecap:round;stroke-width:3;"/>
    </g>
    <g id="line2d_12"/>
    <g id="text_20">
     <!-- AMR -->
     <g style="fill:#262626;" transform="translate(902.882187 176.592188)scale(0.22 -0.22)">
      <defs>
       <path d="M 9.8125 72.90625 
L 24.515625 72.90625 
L 43.109375 23.296875 
L 61.8125 72.90625 
L 76.515625 72.90625 
L 76.515625 0 
L 66.890625 0 
L 66.890625 64.015625 
L 48.09375 14.015625 
L 38.1875 14.015625 
L 19.390625 64.015625 
L 19.390625 0 
L 9.8125 0 
z
" id="DejaVuSans-77"/>
      </defs>
      <use xlink:href="#DejaVuSans-65"/>
      <use x="68.408203" xlink:href="#DejaVuSans-77"/>
      <use x="154.6875" xlink:href="#DejaVuSans-82"/>
     </g>
    </g>
   </g>
  </g>
 </g>
 <defs>
  <clipPath id="p925158804e">
   <rect height="271.8" width="837" x="135" y="43.2"/>
  </clipPath>
 </defs>
</svg>
