<?xml version="1.0" encoding="utf-8" standalone="no"?>
<!DOCTYPE svg PUBLIC "-//W3C//DTD SVG 1.1//EN"
  "http://www.w3.org/Graphics/SVG/1.1/DTD/svg11.dtd">
<!-- Created with matplotlib (https://matplotlib.org/) -->
<svg height="360pt" version="1.1" viewBox="0 0 1080 360" width="1080pt" xmlns="http://www.w3.org/2000/svg" xmlns:xlink="http://www.w3.org/1999/xlink">
 <metadata>
  <rdf:RDF xmlns:cc="http://creativecommons.org/ns#" xmlns:dc="http://purl.org/dc/elements/1.1/" xmlns:rdf="http://www.w3.org/1999/02/22-rdf-syntax-ns#">
   <cc:Work>
    <dc:type rdf:resource="http://purl.org/dc/dcmitype/StillImage"/>
    <dc:date>2022-11-03T14:28:10.030531</dc:date>
    <dc:format>image/svg+xml</dc:format>
    <dc:creator>
     <cc:Agent>
      <dc:title>Matplotlib v3.3.4, https://matplotlib.org/</dc:title>
     </cc:Agent>
    </dc:creator>
   </cc:Work>
  </rdf:RDF>
 </metadata>
 <defs>
  <style type="text/css">*{stroke-linecap:butt;stroke-linejoin:round;}</style>
 </defs>
 <g id="figure_1">
  <g id="patch_1">
   <path d="M 0 360 
L 1080 360 
L 1080 0 
L 0 0 
z
" style="fill:#ffffff;"/>
  </g>
  <g id="axes_1">
   <g id="patch_2">
    <path d="M 135 315 
L 972 315 
L 972 43.2 
L 135 43.2 
z
" style="fill:#ffffff;"/>
   </g>
   <g id="matplotlib.axis_1">
    <g id="xtick_1">
     <g id="text_1">
      <!-- 0 -->
      <g style="fill:#262626;" transform="translate(159.652511 347.216563)scale(0.22 -0.22)">
       <defs>
        <path d="M 31.78125 66.40625 
Q 24.171875 66.40625 20.328125 58.90625 
Q 16.5 51.421875 16.5 36.375 
Q 16.5 21.390625 20.328125 13.890625 
Q 24.171875 6.390625 31.78125 6.390625 
Q 39.453125 6.390625 43.28125 13.890625 
Q 47.125 21.390625 47.125 36.375 
Q 47.125 51.421875 43.28125 58.90625 
Q 39.453125 66.40625 31.78125 66.40625 
z
M 31.78125 74.21875 
Q 44.046875 74.21875 50.515625 64.515625 
Q 56.984375 54.828125 56.984375 36.375 
Q 56.984375 17.96875 50.515625 8.265625 
Q 44.046875 -1.421875 31.78125 -1.421875 
Q 19.53125 -1.421875 13.0625 8.265625 
Q 6.59375 17.96875 6.59375 36.375 
Q 6.59375 54.828125 13.0625 64.515625 
Q 19.53125 74.21875 31.78125 74.21875 
z
" id="DejaVuSans-48"/>
       </defs>
       <use xlink:href="#DejaVuSans-48"/>
      </g>
     </g>
    </g>
    <g id="xtick_2">
     <g id="text_2">
      <!-- 1 -->
      <g style="fill:#262626;" transform="translate(281.612083 347.216563)scale(0.22 -0.22)">
       <defs>
        <path d="M 12.40625 8.296875 
L 28.515625 8.296875 
L 28.515625 63.921875 
L 10.984375 60.40625 
L 10.984375 69.390625 
L 28.421875 72.90625 
L 38.28125 72.90625 
L 38.28125 8.296875 
L 54.390625 8.296875 
L 54.390625 0 
L 12.40625 0 
z
" id="DejaVuSans-49"/>
       </defs>
       <use xlink:href="#DejaVuSans-49"/>
      </g>
     </g>
    </g>
    <g id="xtick_3">
     <g id="text_3">
      <!-- 2 -->
      <g style="fill:#262626;" transform="translate(403.571656 347.216563)scale(0.22 -0.22)">
       <defs>
        <path d="M 19.1875 8.296875 
L 53.609375 8.296875 
L 53.609375 0 
L 7.328125 0 
L 7.328125 8.296875 
Q 12.9375 14.109375 22.625 23.890625 
Q 32.328125 33.6875 34.8125 36.53125 
Q 39.546875 41.84375 41.421875 45.53125 
Q 43.3125 49.21875 43.3125 52.78125 
Q 43.3125 58.59375 39.234375 62.25 
Q 35.15625 65.921875 28.609375 65.921875 
Q 23.96875 65.921875 18.8125 64.3125 
Q 13.671875 62.703125 7.8125 59.421875 
L 7.8125 69.390625 
Q 13.765625 71.78125 18.9375 73 
Q 24.125 74.21875 28.421875 74.21875 
Q 39.75 74.21875 46.484375 68.546875 
Q 53.21875 62.890625 53.21875 53.421875 
Q 53.21875 48.921875 51.53125 44.890625 
Q 49.859375 40.875 45.40625 35.40625 
Q 44.1875 33.984375 37.640625 27.21875 
Q 31.109375 20.453125 19.1875 8.296875 
z
" id="DejaVuSans-50"/>
       </defs>
       <use xlink:href="#DejaVuSans-50"/>
      </g>
     </g>
    </g>
    <g id="xtick_4">
     <g id="text_4">
      <!-- 3 -->
      <g style="fill:#262626;" transform="translate(525.531228 347.216563)scale(0.22 -0.22)">
       <defs>
        <path d="M 40.578125 39.3125 
Q 47.65625 37.796875 51.625 33 
Q 55.609375 28.21875 55.609375 21.1875 
Q 55.609375 10.40625 48.1875 4.484375 
Q 40.765625 -1.421875 27.09375 -1.421875 
Q 22.515625 -1.421875 17.65625 -0.515625 
Q 12.796875 0.390625 7.625 2.203125 
L 7.625 11.71875 
Q 11.71875 9.328125 16.59375 8.109375 
Q 21.484375 6.890625 26.8125 6.890625 
Q 36.078125 6.890625 40.9375 10.546875 
Q 45.796875 14.203125 45.796875 21.1875 
Q 45.796875 27.640625 41.28125 31.265625 
Q 36.765625 34.90625 28.71875 34.90625 
L 20.21875 34.90625 
L 20.21875 43.015625 
L 29.109375 43.015625 
Q 36.375 43.015625 40.234375 45.921875 
Q 44.09375 48.828125 44.09375 54.296875 
Q 44.09375 59.90625 40.109375 62.90625 
Q 36.140625 65.921875 28.71875 65.921875 
Q 24.65625 65.921875 20.015625 65.03125 
Q 15.375 64.15625 9.8125 62.3125 
L 9.8125 71.09375 
Q 15.4375 72.65625 20.34375 73.4375 
Q 25.25 74.21875 29.59375 74.21875 
Q 40.828125 74.21875 47.359375 69.109375 
Q 53.90625 64.015625 53.90625 55.328125 
Q 53.90625 49.265625 50.4375 45.09375 
Q 46.96875 40.921875 40.578125 39.3125 
z
" id="DejaVuSans-51"/>
       </defs>
       <use xlink:href="#DejaVuSans-51"/>
      </g>
     </g>
    </g>
    <g id="xtick_5">
     <g id="text_5">
      <!-- 4 -->
      <g style="fill:#262626;" transform="translate(647.490801 347.216563)scale(0.22 -0.22)">
       <defs>
        <path d="M 37.796875 64.3125 
L 12.890625 25.390625 
L 37.796875 25.390625 
z
M 35.203125 72.90625 
L 47.609375 72.90625 
L 47.609375 25.390625 
L 58.015625 25.390625 
L 58.015625 17.1875 
L 47.609375 17.1875 
L 47.609375 0 
L 37.796875 0 
L 37.796875 17.1875 
L 4.890625 17.1875 
L 4.890625 26.703125 
z
" id="DejaVuSans-52"/>
       </defs>
       <use xlink:href="#DejaVuSans-52"/>
      </g>
     </g>
    </g>
    <g id="xtick_6">
     <g id="text_6">
      <!-- 5 -->
      <g style="fill:#262626;" transform="translate(769.450374 347.216563)scale(0.22 -0.22)">
       <defs>
        <path d="M 10.796875 72.90625 
L 49.515625 72.90625 
L 49.515625 64.59375 
L 19.828125 64.59375 
L 19.828125 46.734375 
Q 21.96875 47.46875 24.109375 47.828125 
Q 26.265625 48.1875 28.421875 48.1875 
Q 40.625 48.1875 47.75 41.5 
Q 54.890625 34.8125 54.890625 23.390625 
Q 54.890625 11.625 47.5625 5.09375 
Q 40.234375 -1.421875 26.90625 -1.421875 
Q 22.3125 -1.421875 17.546875 -0.640625 
Q 12.796875 0.140625 7.71875 1.703125 
L 7.71875 11.625 
Q 12.109375 9.234375 16.796875 8.0625 
Q 21.484375 6.890625 26.703125 6.890625 
Q 35.15625 6.890625 40.078125 11.328125 
Q 45.015625 15.765625 45.015625 23.390625 
Q 45.015625 31 40.078125 35.4375 
Q 35.15625 39.890625 26.703125 39.890625 
Q 22.75 39.890625 18.8125 39.015625 
Q 14.890625 38.140625 10.796875 36.28125 
z
" id="DejaVuSans-53"/>
       </defs>
       <use xlink:href="#DejaVuSans-53"/>
      </g>
     </g>
    </g>
    <g id="xtick_7">
     <g id="text_7">
      <!-- 6 -->
      <g style="fill:#262626;" transform="translate(891.409946 347.216563)scale(0.22 -0.22)">
       <defs>
        <path d="M 33.015625 40.375 
Q 26.375 40.375 22.484375 35.828125 
Q 18.609375 31.296875 18.609375 23.390625 
Q 18.609375 15.53125 22.484375 10.953125 
Q 26.375 6.390625 33.015625 6.390625 
Q 39.65625 6.390625 43.53125 10.953125 
Q 47.40625 15.53125 47.40625 23.390625 
Q 47.40625 31.296875 43.53125 35.828125 
Q 39.65625 40.375 33.015625 40.375 
z
M 52.59375 71.296875 
L 52.59375 62.3125 
Q 48.875 64.0625 45.09375 64.984375 
Q 41.3125 65.921875 37.59375 65.921875 
Q 27.828125 65.921875 22.671875 59.328125 
Q 17.53125 52.734375 16.796875 39.40625 
Q 19.671875 43.65625 24.015625 45.921875 
Q 28.375 48.1875 33.59375 48.1875 
Q 44.578125 48.1875 50.953125 41.515625 
Q 57.328125 34.859375 57.328125 23.390625 
Q 57.328125 12.15625 50.6875 5.359375 
Q 44.046875 -1.421875 33.015625 -1.421875 
Q 20.359375 -1.421875 13.671875 8.265625 
Q 6.984375 17.96875 6.984375 36.375 
Q 6.984375 53.65625 15.1875 63.9375 
Q 23.390625 74.21875 37.203125 74.21875 
Q 40.921875 74.21875 44.703125 73.484375 
Q 48.484375 72.75 52.59375 71.296875 
z
" id="DejaVuSans-54"/>
       </defs>
       <use xlink:href="#DejaVuSans-54"/>
      </g>
     </g>
    </g>
    <g id="text_8">
     <!-- Chromosome 20 Position -->
     <g style="fill:#262626;" transform="translate(404.20125 374.028125)scale(0.24 -0.24)">
      <defs>
       <path d="M 64.40625 67.28125 
L 64.40625 56.890625 
Q 59.421875 61.53125 53.78125 63.8125 
Q 48.140625 66.109375 41.796875 66.109375 
Q 29.296875 66.109375 22.65625 58.46875 
Q 16.015625 50.828125 16.015625 36.375 
Q 16.015625 21.96875 22.65625 14.328125 
Q 29.296875 6.6875 41.796875 6.6875 
Q 48.140625 6.6875 53.78125 8.984375 
Q 59.421875 11.28125 64.40625 15.921875 
L 64.40625 5.609375 
Q 59.234375 2.09375 53.4375 0.328125 
Q 47.65625 -1.421875 41.21875 -1.421875 
Q 24.65625 -1.421875 15.125 8.703125 
Q 5.609375 18.84375 5.609375 36.375 
Q 5.609375 53.953125 15.125 64.078125 
Q 24.65625 74.21875 41.21875 74.21875 
Q 47.75 74.21875 53.53125 72.484375 
Q 59.328125 70.75 64.40625 67.28125 
z
" id="DejaVuSans-67"/>
       <path d="M 54.890625 33.015625 
L 54.890625 0 
L 45.90625 0 
L 45.90625 32.71875 
Q 45.90625 40.484375 42.875 44.328125 
Q 39.84375 48.1875 33.796875 48.1875 
Q 26.515625 48.1875 22.3125 43.546875 
Q 18.109375 38.921875 18.109375 30.90625 
L 18.109375 0 
L 9.078125 0 
L 9.078125 75.984375 
L 18.109375 75.984375 
L 18.109375 46.1875 
Q 21.34375 51.125 25.703125 53.5625 
Q 30.078125 56 35.796875 56 
Q 45.21875 56 50.046875 50.171875 
Q 54.890625 44.34375 54.890625 33.015625 
z
" id="DejaVuSans-104"/>
       <path d="M 41.109375 46.296875 
Q 39.59375 47.171875 37.8125 47.578125 
Q 36.03125 48 33.890625 48 
Q 26.265625 48 22.1875 43.046875 
Q 18.109375 38.09375 18.109375 28.8125 
L 18.109375 0 
L 9.078125 0 
L 9.078125 54.6875 
L 18.109375 54.6875 
L 18.109375 46.1875 
Q 20.953125 51.171875 25.484375 53.578125 
Q 30.03125 56 36.53125 56 
Q 37.453125 56 38.578125 55.875 
Q 39.703125 55.765625 41.0625 55.515625 
z
" id="DejaVuSans-114"/>
       <path d="M 30.609375 48.390625 
Q 23.390625 48.390625 19.1875 42.75 
Q 14.984375 37.109375 14.984375 27.296875 
Q 14.984375 17.484375 19.15625 11.84375 
Q 23.34375 6.203125 30.609375 6.203125 
Q 37.796875 6.203125 41.984375 11.859375 
Q 46.1875 17.53125 46.1875 27.296875 
Q 46.1875 37.015625 41.984375 42.703125 
Q 37.796875 48.390625 30.609375 48.390625 
z
M 30.609375 56 
Q 42.328125 56 49.015625 48.375 
Q 55.71875 40.765625 55.71875 27.296875 
Q 55.71875 13.875 49.015625 6.21875 
Q 42.328125 -1.421875 30.609375 -1.421875 
Q 18.84375 -1.421875 12.171875 6.21875 
Q 5.515625 13.875 5.515625 27.296875 
Q 5.515625 40.765625 12.171875 48.375 
Q 18.84375 56 30.609375 56 
z
" id="DejaVuSans-111"/>
       <path d="M 52 44.1875 
Q 55.375 50.25 60.0625 53.125 
Q 64.75 56 71.09375 56 
Q 79.640625 56 84.28125 50.015625 
Q 88.921875 44.046875 88.921875 33.015625 
L 88.921875 0 
L 79.890625 0 
L 79.890625 32.71875 
Q 79.890625 40.578125 77.09375 44.375 
Q 74.3125 48.1875 68.609375 48.1875 
Q 61.625 48.1875 57.5625 43.546875 
Q 53.515625 38.921875 53.515625 30.90625 
L 53.515625 0 
L 44.484375 0 
L 44.484375 32.71875 
Q 44.484375 40.625 41.703125 44.40625 
Q 38.921875 48.1875 33.109375 48.1875 
Q 26.21875 48.1875 22.15625 43.53125 
Q 18.109375 38.875 18.109375 30.90625 
L 18.109375 0 
L 9.078125 0 
L 9.078125 54.6875 
L 18.109375 54.6875 
L 18.109375 46.1875 
Q 21.1875 51.21875 25.484375 53.609375 
Q 29.78125 56 35.6875 56 
Q 41.65625 56 45.828125 52.96875 
Q 50 49.953125 52 44.1875 
z
" id="DejaVuSans-109"/>
       <path d="M 44.28125 53.078125 
L 44.28125 44.578125 
Q 40.484375 46.53125 36.375 47.5 
Q 32.28125 48.484375 27.875 48.484375 
Q 21.1875 48.484375 17.84375 46.4375 
Q 14.5 44.390625 14.5 40.28125 
Q 14.5 37.15625 16.890625 35.375 
Q 19.28125 33.59375 26.515625 31.984375 
L 29.59375 31.296875 
Q 39.15625 29.25 43.1875 25.515625 
Q 47.21875 21.78125 47.21875 15.09375 
Q 47.21875 7.46875 41.1875 3.015625 
Q 35.15625 -1.421875 24.609375 -1.421875 
Q 20.21875 -1.421875 15.453125 -0.5625 
Q 10.6875 0.296875 5.421875 2 
L 5.421875 11.28125 
Q 10.40625 8.6875 15.234375 7.390625 
Q 20.0625 6.109375 24.8125 6.109375 
Q 31.15625 6.109375 34.5625 8.28125 
Q 37.984375 10.453125 37.984375 14.40625 
Q 37.984375 18.0625 35.515625 20.015625 
Q 33.0625 21.96875 24.703125 23.78125 
L 21.578125 24.515625 
Q 13.234375 26.265625 9.515625 29.90625 
Q 5.8125 33.546875 5.8125 39.890625 
Q 5.8125 47.609375 11.28125 51.796875 
Q 16.75 56 26.8125 56 
Q 31.78125 56 36.171875 55.265625 
Q 40.578125 54.546875 44.28125 53.078125 
z
" id="DejaVuSans-115"/>
       <path d="M 56.203125 29.59375 
L 56.203125 25.203125 
L 14.890625 25.203125 
Q 15.484375 15.921875 20.484375 11.0625 
Q 25.484375 6.203125 34.421875 6.203125 
Q 39.59375 6.203125 44.453125 7.46875 
Q 49.3125 8.734375 54.109375 11.28125 
L 54.109375 2.78125 
Q 49.265625 0.734375 44.1875 -0.34375 
Q 39.109375 -1.421875 33.890625 -1.421875 
Q 20.796875 -1.421875 13.15625 6.1875 
Q 5.515625 13.8125 5.515625 26.8125 
Q 5.515625 40.234375 12.765625 48.109375 
Q 20.015625 56 32.328125 56 
Q 43.359375 56 49.78125 48.890625 
Q 56.203125 41.796875 56.203125 29.59375 
z
M 47.21875 32.234375 
Q 47.125 39.59375 43.09375 43.984375 
Q 39.0625 48.390625 32.421875 48.390625 
Q 24.90625 48.390625 20.390625 44.140625 
Q 15.875 39.890625 15.1875 32.171875 
z
" id="DejaVuSans-101"/>
       <path id="DejaVuSans-32"/>
       <path d="M 19.671875 64.796875 
L 19.671875 37.40625 
L 32.078125 37.40625 
Q 38.96875 37.40625 42.71875 40.96875 
Q 46.484375 44.53125 46.484375 51.125 
Q 46.484375 57.671875 42.71875 61.234375 
Q 38.96875 64.796875 32.078125 64.796875 
z
M 9.8125 72.90625 
L 32.078125 72.90625 
Q 44.34375 72.90625 50.609375 67.359375 
Q 56.890625 61.8125 56.890625 51.125 
Q 56.890625 40.328125 50.609375 34.8125 
Q 44.34375 29.296875 32.078125 29.296875 
L 19.671875 29.296875 
L 19.671875 0 
L 9.8125 0 
z
" id="DejaVuSans-80"/>
       <path d="M 9.421875 54.6875 
L 18.40625 54.6875 
L 18.40625 0 
L 9.421875 0 
z
M 9.421875 75.984375 
L 18.40625 75.984375 
L 18.40625 64.59375 
L 9.421875 64.59375 
z
" id="DejaVuSans-105"/>
       <path d="M 18.3125 70.21875 
L 18.3125 54.6875 
L 36.8125 54.6875 
L 36.8125 47.703125 
L 18.3125 47.703125 
L 18.3125 18.015625 
Q 18.3125 11.328125 20.140625 9.421875 
Q 21.96875 7.515625 27.59375 7.515625 
L 36.8125 7.515625 
L 36.8125 0 
L 27.59375 0 
Q 17.1875 0 13.234375 3.875 
Q 9.28125 7.765625 9.28125 18.015625 
L 9.28125 47.703125 
L 2.6875 47.703125 
L 2.6875 54.6875 
L 9.28125 54.6875 
L 9.28125 70.21875 
z
" id="DejaVuSans-116"/>
       <path d="M 54.890625 33.015625 
L 54.890625 0 
L 45.90625 0 
L 45.90625 32.71875 
Q 45.90625 40.484375 42.875 44.328125 
Q 39.84375 48.1875 33.796875 48.1875 
Q 26.515625 48.1875 22.3125 43.546875 
Q 18.109375 38.921875 18.109375 30.90625 
L 18.109375 0 
L 9.078125 0 
L 9.078125 54.6875 
L 18.109375 54.6875 
L 18.109375 46.1875 
Q 21.34375 51.125 25.703125 53.5625 
Q 30.078125 56 35.796875 56 
Q 45.21875 56 50.046875 50.171875 
Q 54.890625 44.34375 54.890625 33.015625 
z
" id="DejaVuSans-110"/>
      </defs>
      <use xlink:href="#DejaVuSans-67"/>
      <use x="69.824219" xlink:href="#DejaVuSans-104"/>
      <use x="133.203125" xlink:href="#DejaVuSans-114"/>
      <use x="172.066406" xlink:href="#DejaVuSans-111"/>
      <use x="233.248047" xlink:href="#DejaVuSans-109"/>
      <use x="330.660156" xlink:href="#DejaVuSans-111"/>
      <use x="391.841797" xlink:href="#DejaVuSans-115"/>
      <use x="443.941406" xlink:href="#DejaVuSans-111"/>
      <use x="505.123047" xlink:href="#DejaVuSans-109"/>
      <use x="602.535156" xlink:href="#DejaVuSans-101"/>
      <use x="664.058594" xlink:href="#DejaVuSans-32"/>
      <use x="695.845703" xlink:href="#DejaVuSans-50"/>
      <use x="759.46875" xlink:href="#DejaVuSans-48"/>
      <use x="823.091797" xlink:href="#DejaVuSans-32"/>
      <use x="854.878906" xlink:href="#DejaVuSans-80"/>
      <use x="911.556641" xlink:href="#DejaVuSans-111"/>
      <use x="972.738281" xlink:href="#DejaVuSans-115"/>
      <use x="1024.837891" xlink:href="#DejaVuSans-105"/>
      <use x="1052.621094" xlink:href="#DejaVuSans-116"/>
      <use x="1091.830078" xlink:href="#DejaVuSans-105"/>
      <use x="1119.613281" xlink:href="#DejaVuSans-111"/>
      <use x="1180.794922" xlink:href="#DejaVuSans-110"/>
     </g>
    </g>
    <g id="text_9">
     <!-- 1e7 -->
     <g style="fill:#262626;" transform="translate(930.468125 371.508438)scale(0.22 -0.22)">
      <defs>
       <path d="M 8.203125 72.90625 
L 55.078125 72.90625 
L 55.078125 68.703125 
L 28.609375 0 
L 18.3125 0 
L 43.21875 64.59375 
L 8.203125 64.59375 
z
" id="DejaVuSans-55"/>
      </defs>
      <use xlink:href="#DejaVuSans-49"/>
      <use x="63.623047" xlink:href="#DejaVuSans-101"/>
      <use x="125.146484" xlink:href="#DejaVuSans-55"/>
     </g>
    </g>
   </g>
   <g id="matplotlib.axis_2">
    <g id="ytick_1">
     <g id="text_10">
      <!-- −2 -->
      <g style="fill:#262626;" transform="translate(87.067188 313.267268)scale(0.22 -0.22)">
       <defs>
        <path d="M 10.59375 35.5 
L 73.1875 35.5 
L 73.1875 27.203125 
L 10.59375 27.203125 
z
" id="DejaVuSans-8722"/>
       </defs>
       <use xlink:href="#DejaVuSans-8722"/>
       <use x="83.789062" xlink:href="#DejaVuSans-50"/>
      </g>
     </g>
    </g>
    <g id="ytick_2">
     <g id="text_11">
      <!-- −1 -->
      <g style="fill:#262626;" transform="translate(87.067188 228.477696)scale(0.22 -0.22)">
       <use xlink:href="#DejaVuSans-8722"/>
       <use x="83.789062" xlink:href="#DejaVuSans-49"/>
      </g>
     </g>
    </g>
    <g id="ytick_3">
     <g id="text_12">
      <!-- 0 -->
      <g style="fill:#262626;" transform="translate(105.5025 143.688125)scale(0.22 -0.22)">
       <use xlink:href="#DejaVuSans-48"/>
      </g>
     </g>
    </g>
    <g id="ytick_4">
     <g id="text_13">
      <!-- 1 -->
      <g style="fill:#262626;" transform="translate(105.5025 58.898554)scale(0.22 -0.22)">
       <use xlink:href="#DejaVuSans-49"/>
      </g>
     </g>
    </g>
    <g id="text_14">
     <!-- 3D Differentiation -->
     <g style="fill:#262626;" transform="translate(78.075937 286.224375)rotate(-90)scale(0.24 -0.24)">
      <defs>
       <path d="M 19.671875 64.796875 
L 19.671875 8.109375 
L 31.59375 8.109375 
Q 46.6875 8.109375 53.6875 14.9375 
Q 60.6875 21.78125 60.6875 36.53125 
Q 60.6875 51.171875 53.6875 57.984375 
Q 46.6875 64.796875 31.59375 64.796875 
z
M 9.8125 72.90625 
L 30.078125 72.90625 
Q 51.265625 72.90625 61.171875 64.09375 
Q 71.09375 55.28125 71.09375 36.53125 
Q 71.09375 17.671875 61.125 8.828125 
Q 51.171875 0 30.078125 0 
L 9.8125 0 
z
" id="DejaVuSans-68"/>
       <path d="M 37.109375 75.984375 
L 37.109375 68.5 
L 28.515625 68.5 
Q 23.6875 68.5 21.796875 66.546875 
Q 19.921875 64.59375 19.921875 59.515625 
L 19.921875 54.6875 
L 34.71875 54.6875 
L 34.71875 47.703125 
L 19.921875 47.703125 
L 19.921875 0 
L 10.890625 0 
L 10.890625 47.703125 
L 2.296875 47.703125 
L 2.296875 54.6875 
L 10.890625 54.6875 
L 10.890625 58.5 
Q 10.890625 67.625 15.140625 71.796875 
Q 19.390625 75.984375 28.609375 75.984375 
z
" id="DejaVuSans-102"/>
       <path d="M 34.28125 27.484375 
Q 23.390625 27.484375 19.1875 25 
Q 14.984375 22.515625 14.984375 16.5 
Q 14.984375 11.71875 18.140625 8.90625 
Q 21.296875 6.109375 26.703125 6.109375 
Q 34.1875 6.109375 38.703125 11.40625 
Q 43.21875 16.703125 43.21875 25.484375 
L 43.21875 27.484375 
z
M 52.203125 31.203125 
L 52.203125 0 
L 43.21875 0 
L 43.21875 8.296875 
Q 40.140625 3.328125 35.546875 0.953125 
Q 30.953125 -1.421875 24.3125 -1.421875 
Q 15.921875 -1.421875 10.953125 3.296875 
Q 6 8.015625 6 15.921875 
Q 6 25.140625 12.171875 29.828125 
Q 18.359375 34.515625 30.609375 34.515625 
L 43.21875 34.515625 
L 43.21875 35.40625 
Q 43.21875 41.609375 39.140625 45 
Q 35.0625 48.390625 27.6875 48.390625 
Q 23 48.390625 18.546875 47.265625 
Q 14.109375 46.140625 10.015625 43.890625 
L 10.015625 52.203125 
Q 14.9375 54.109375 19.578125 55.046875 
Q 24.21875 56 28.609375 56 
Q 40.484375 56 46.34375 49.84375 
Q 52.203125 43.703125 52.203125 31.203125 
z
" id="DejaVuSans-97"/>
      </defs>
      <use xlink:href="#DejaVuSans-51"/>
      <use x="63.623047" xlink:href="#DejaVuSans-68"/>
      <use x="140.625" xlink:href="#DejaVuSans-32"/>
      <use x="172.412109" xlink:href="#DejaVuSans-68"/>
      <use x="249.414062" xlink:href="#DejaVuSans-105"/>
      <use x="277.197266" xlink:href="#DejaVuSans-102"/>
      <use x="312.402344" xlink:href="#DejaVuSans-102"/>
      <use x="347.607422" xlink:href="#DejaVuSans-101"/>
      <use x="409.130859" xlink:href="#DejaVuSans-114"/>
      <use x="447.994141" xlink:href="#DejaVuSans-101"/>
      <use x="509.517578" xlink:href="#DejaVuSans-110"/>
      <use x="572.896484" xlink:href="#DejaVuSans-116"/>
      <use x="612.105469" xlink:href="#DejaVuSans-105"/>
      <use x="639.888672" xlink:href="#DejaVuSans-97"/>
      <use x="701.167969" xlink:href="#DejaVuSans-116"/>
      <use x="740.376953" xlink:href="#DejaVuSans-105"/>
      <use x="768.160156" xlink:href="#DejaVuSans-111"/>
      <use x="829.341797" xlink:href="#DejaVuSans-110"/>
     </g>
    </g>
   </g>
   <g id="line2d_1">
    <path clip-path="url(#p0a40069bc0)" d="M 173.045455 159.10373 
L 179.439649 162.312073 
L 185.833843 180.877599 
L 192.228037 155.047048 
L 198.622231 139.017025 
L 205.016425 142.73366 
L 211.410619 178.217117 
L 217.804813 150.271573 
L 224.199007 133.585597 
L 230.593201 99.719728 
L 236.987395 103.422162 
L 243.381589 117.544251 
L 249.775783 116.462537 
L 256.169977 187.402632 
L 262.564171 244.904089 
L 268.958365 276.576309 
L 275.352559 143.437335 
L 281.746753 138.734923 
L 288.140947 170.235584 
L 294.535141 147.885046 
L 300.929335 179.503353 
L 307.323529 227.563453 
L 313.717723 121.906419 
L 320.111917 118.285667 
L 326.506112 109.757343 
L 332.900306 137.970414 
L 339.2945 193.490023 
L 345.688694 174.495457 
L 352.082888 152.962369 
L 358.477082 134.252608 
L 364.871276 134.595674 
L 371.26547 236.670112 
L 377.659664 192.698091 
L 384.053858 140.777324 
L 390.448052 164.013126 
L 396.842246 275.711164 
L 403.23644 193.707394 
L 409.630634 165.061951 
L 416.024828 251.241001 
L 422.419022 163.040379 
L 428.813216 190.787076 
L 435.20741 221.884422 
L 441.601604 172.405853 
L 447.995798 174.569862 
L 454.389992 212.895598 
L 460.784186 223.061683 
L 467.17838 194.439102 
L 473.572574 210.797854 
L 550.302903 142.818604 
L 556.697097 136.472686 
L 563.091291 174.922224 
L 569.485485 268.304774 
L 575.879679 302.645455 
L 582.273873 159.840261 
L 588.668067 140.983403 
L 595.062261 157.760149 
L 614.244843 238.559639 
L 620.639037 243.650532 
L 627.033231 159.619174 
L 633.427426 127.870596 
L 639.82162 90.880473 
L 646.215814 128.43348 
L 652.610008 125.34108 
L 659.004202 112.295295 
L 665.398396 77.966486 
L 671.79259 102.271145 
L 678.186784 291.556092 
L 684.580978 217.085076 
L 690.975172 264.191013 
L 697.369366 254.336877 
L 703.76356 127.406338 
L 710.157754 149.303057 
L 716.551948 217.987605 
L 722.946142 214.024448 
L 729.340336 171.838388 
L 735.73453 147.135213 
L 742.128724 172.031525 
L 748.522918 130.881464 
L 754.917112 131.423051 
L 761.311306 168.251165 
L 767.7055 171.051229 
L 774.099694 182.599898 
L 780.493888 185.744312 
L 786.888083 177.017749 
L 793.282277 115.225647 
L 799.676471 165.583576 
L 806.070665 112.123611 
L 812.464859 108.993684 
L 818.859053 133.259163 
L 825.253247 183.382439 
L 831.647441 206.659978 
L 838.041635 138.130919 
L 844.435829 129.577075 
L 850.830023 155.113924 
L 857.224217 162.486783 
L 863.618411 137.714988 
L 870.012605 141.539853 
L 876.406799 114.583404 
L 882.800993 148.734592 
L 889.195187 141.981146 
L 895.589381 132.796751 
L 901.983575 144.115844 
L 908.377769 153.492809 
L 914.771963 145.831577 
L 921.166157 134.332877 
L 927.560351 150.664761 
L 933.954545 112.34987 
" style="fill:none;stroke:#f77189;stroke-linecap:round;stroke-width:3;"/>
   </g>
   <g id="line2d_2">
    <path clip-path="url(#p0a40069bc0)" d="M 173.045455 139.782514 
L 179.439649 124.925628 
L 185.833843 122.746752 
L 192.228037 130.283352 
L 198.622231 141.799986 
L 205.016425 137.599954 
L 211.410619 107.728489 
L 217.804813 121.662577 
L 224.199007 148.475541 
L 230.593201 220.883182 
L 236.987395 239.823469 
L 243.381589 115.209532 
L 249.775783 124.866829 
L 256.169977 91.132055 
L 262.564171 70.782743 
L 268.958365 78.645655 
L 275.352559 136.292478 
L 281.746753 141.200547 
L 288.140947 113.74305 
L 294.535141 115.118203 
L 300.929335 107.543808 
L 307.323529 82.902234 
L 313.717723 137.676718 
L 320.111917 120.138291 
L 326.506112 126.958867 
L 332.900306 135.538545 
L 339.2945 96.96614 
L 345.688694 101.746437 
L 352.082888 90.4585 
L 358.477082 115.688107 
L 364.871276 118.486732 
L 371.26547 89.474382 
L 377.659664 94.878132 
L 384.053858 133.959167 
L 390.448052 121.503679 
L 396.842246 91.982276 
L 403.23644 132.661884 
L 409.630634 94.735522 
L 416.024828 78.277447 
L 422.419022 74.67616 
L 428.813216 76.987204 
L 435.20741 103.269904 
L 441.601604 110.783888 
L 447.995798 116.764858 
L 454.389992 98.318019 
L 460.784186 95.884235 
L 467.17838 98.82246 
L 473.572574 83.899161 
L 550.302903 135.624778 
L 556.697097 126.567813 
L 563.091291 106.109956 
L 569.485485 72.483777 
L 575.879679 70.040864 
L 582.273873 84.131155 
L 588.668067 140.48036 
L 595.062261 112.976893 
L 614.244843 89.247796 
L 620.639037 71.197503 
L 627.033231 105.050577 
L 633.427426 135.581421 
L 639.82162 139.573567 
L 646.215814 79.859843 
L 652.610008 103.819754 
L 659.004202 102.929646 
L 665.398396 150.227301 
L 671.79259 162.461995 
L 678.186784 67.890668 
L 684.580978 105.435791 
L 690.975172 91.33119 
L 697.369366 83.623606 
L 703.76356 107.910199 
L 710.157754 104.931942 
L 716.551948 93.700968 
L 722.946142 88.235543 
L 729.340336 102.88409 
L 735.73453 119.302649 
L 742.128724 112.495879 
L 748.522918 129.363203 
L 754.917112 129.087371 
L 761.311306 104.472658 
L 767.7055 110.123458 
L 774.099694 104.467219 
L 780.493888 125.218374 
L 786.888083 127.547645 
L 793.282277 136.647007 
L 799.676471 111.308506 
L 806.070665 137.174842 
L 812.464859 135.279003 
L 818.859053 134.269021 
L 825.253247 126.665866 
L 831.647441 107.443576 
L 838.041635 103.572818 
L 844.435829 123.253264 
L 850.830023 116.548706 
L 857.224217 115.940145 
L 863.618411 125.244782 
L 870.012605 111.384982 
L 876.406799 119.155887 
L 882.800993 123.549324 
L 889.195187 135.183561 
L 895.589381 139.67443 
L 901.983575 136.427591 
L 908.377769 120.730235 
L 914.771963 73.27803 
L 921.166157 103.382599 
L 927.560351 126.736037 
L 933.954545 179.605153 
" style="fill:none;stroke:#bb9832;stroke-linecap:round;stroke-width:3;"/>
   </g>
   <g id="line2d_3">
    <path clip-path="url(#p0a40069bc0)" d="M 173.045455 122.812476 
L 179.439649 102.38959 
L 185.833843 101.425036 
L 192.228037 124.824652 
L 198.622231 135.692502 
L 205.016425 133.999579 
L 211.410619 107.04535 
L 217.804813 113.007738 
L 224.199007 66.178219 
L 230.593201 60.887046 
L 236.987395 74.624462 
L 243.381589 202.410729 
L 249.775783 128.434904 
L 256.169977 111.341188 
L 262.564171 84.044218 
L 268.958365 74.958893 
L 275.352559 80.864278 
L 281.746753 78.138066 
L 288.140947 103.10917 
L 294.535141 105.629728 
L 300.929335 105.748285 
L 307.323529 100.686904 
L 313.717723 121.309091 
L 320.111917 147.829943 
L 326.506112 174.110741 
L 332.900306 109.191283 
L 339.2945 97.211068 
L 345.688694 102.604897 
L 352.082888 130.278474 
L 358.477082 120.483163 
L 364.871276 110.302093 
L 371.26547 56.559517 
L 377.659664 68.104891 
L 384.053858 105.783919 
L 390.448052 94.787607 
L 396.842246 63.255706 
L 403.23644 64.187394 
L 409.630634 126.377588 
L 416.024828 100.748311 
L 422.419022 143.302463 
L 428.813216 119.08387 
L 435.20741 89.230828 
L 441.601604 105.743921 
L 447.995798 97.993563 
L 454.389992 88.930938 
L 460.784186 63.359378 
L 467.17838 65.54166 
L 473.572574 70.936189 
L 550.302903 69.723823 
L 556.697097 117.929861 
L 563.091291 81.93167 
L 569.485485 66.362747 
L 575.879679 64.875982 
L 582.273873 79.64323 
L 588.668067 81.549892 
L 595.062261 100.703097 
L 614.244843 93.347451 
L 620.639037 103.707279 
L 627.033231 126.940413 
L 633.427426 128.121061 
L 639.82162 149.921102 
L 646.215814 130.712032 
L 652.610008 210.687642 
L 659.004202 218.121341 
L 665.398396 108.544657 
L 671.79259 83.243096 
L 678.186784 63.697067 
L 684.580978 83.291527 
L 690.975172 72.960526 
L 697.369366 90.233365 
L 703.76356 123.164305 
L 710.157754 117.119495 
L 716.551948 109.998289 
L 722.946142 92.343886 
L 729.340336 94.485649 
L 735.73453 119.650151 
L 742.128724 122.914373 
L 748.522918 142.486746 
L 754.917112 144.042945 
L 761.311306 106.090986 
L 767.7055 121.903531 
L 774.099694 111.556166 
L 780.493888 88.276184 
L 786.888083 93.324772 
L 793.282277 111.297942 
L 799.676471 104.789598 
L 806.070665 134.641919 
L 812.464859 138.995153 
L 818.859053 128.503932 
L 825.253247 93.369527 
L 831.647441 91.92229 
L 838.041635 108.958413 
L 844.435829 107.513521 
L 850.830023 108.370532 
L 857.224217 102.102411 
L 863.618411 97.879767 
L 870.012605 107.022313 
L 876.406799 132.563551 
L 882.800993 100.91804 
L 889.195187 101.662736 
L 895.589381 62.572932 
L 901.983575 82.864009 
L 908.377769 113.429475 
L 914.771963 131.305879 
L 921.166157 116.060959 
L 927.560351 112.10667 
L 933.954545 118.632094 
" style="fill:none;stroke:#50b131;stroke-linecap:round;stroke-width:3;"/>
   </g>
   <g id="line2d_4">
    <path clip-path="url(#p0a40069bc0)" d="M 173.045455 92.442206 
L 179.439649 107.18596 
L 185.833843 116.615261 
L 192.228037 125.983062 
L 198.622231 118.721 
L 205.016425 118.877805 
L 211.410619 106.176471 
L 217.804813 117.178146 
L 224.199007 151.149768 
L 230.593201 177.513304 
L 236.987395 167.084354 
L 243.381589 111.69591 
L 249.775783 130.56969 
L 256.169977 114.293011 
L 262.564171 88.833334 
L 268.958365 80.22529 
L 275.352559 119.012713 
L 281.746753 123.823573 
L 288.140947 133.534058 
L 294.535141 144.416018 
L 300.929335 126.263351 
L 307.323529 108.898604 
L 313.717723 143.145596 
L 320.111917 140.480748 
L 326.506112 120.534611 
L 332.900306 133.842922 
L 339.2945 117.085235 
L 345.688694 119.366019 
L 352.082888 100.681144 
L 358.477082 113.138284 
L 364.871276 109.141136 
L 371.26547 56.596285 
L 377.659664 66.432689 
L 384.053858 117.644781 
L 390.448052 120.247786 
L 396.842246 59.752252 
L 403.23644 62.204484 
L 409.630634 107.469171 
L 416.024828 78.919909 
L 422.419022 106.329355 
L 428.813216 98.037791 
L 435.20741 102.35938 
L 441.601604 110.451954 
L 447.995798 112.39404 
L 454.389992 139.805032 
L 460.784186 106.306229 
L 467.17838 110.136479 
L 473.572574 89.761847 
L 550.302903 138.81302 
L 556.697097 132.776169 
L 563.091291 90.774913 
L 569.485485 72.69802 
L 575.879679 70.330014 
L 582.273873 220.489284 
L 588.668067 153.679833 
L 595.062261 149.244792 
L 614.244843 74.991962 
L 620.639037 73.166249 
L 627.033231 118.885549 
L 633.427426 129.364389 
L 639.82162 139.148026 
L 646.215814 94.577791 
L 652.610008 106.31287 
L 659.004202 122.770306 
L 665.398396 161.426274 
L 671.79259 146.503589 
L 678.186784 68.763355 
L 684.580978 92.422048 
L 690.975172 83.698255 
L 697.369366 93.085549 
L 703.76356 148.267601 
L 710.157754 126.241941 
L 716.551948 94.481108 
L 722.946142 102.126692 
L 729.340336 100.400136 
L 735.73453 129.300893 
L 742.128724 118.601702 
L 748.522918 117.646679 
L 754.917112 113.695634 
L 761.311306 104.993273 
L 767.7055 102.645828 
L 774.099694 109.370701 
L 780.493888 127.459139 
L 786.888083 123.071902 
L 793.282277 141.710766 
L 799.676471 112.250619 
L 806.070665 140.090392 
L 812.464859 143.141347 
L 818.859053 135.852775 
L 825.253247 103.362575 
L 831.647441 91.363953 
L 838.041635 97.82917 
L 844.435829 142.378612 
L 850.830023 126.703677 
L 857.224217 110.332036 
L 863.618411 109.246797 
L 870.012605 146.144427 
L 876.406799 154.573804 
L 882.800993 130.461787 
L 889.195187 98.914206 
L 895.589381 110.713167 
L 901.983575 132.239407 
L 908.377769 135.700065 
L 914.771963 134.857757 
L 921.166157 135.234337 
L 927.560351 134.403358 
L 933.954545 86.901439 
" style="fill:none;stroke:#36ada4;stroke-linecap:round;stroke-width:3;"/>
   </g>
   <g id="line2d_5">
    <path clip-path="url(#p0a40069bc0)" d="M 173.045455 120.937645 
L 179.439649 125.098981 
L 185.833843 118.818983 
L 192.228037 124.458682 
L 198.622231 137.362838 
L 205.016425 136.276695 
L 211.410619 116.766275 
L 217.804813 110.327655 
L 224.199007 164.836969 
L 230.593201 122.930514 
L 236.987395 73.709381 
L 243.381589 101.275308 
L 249.775783 143.94915 
L 256.169977 114.320606 
L 262.564171 100.140151 
L 268.958365 83.483183 
L 275.352559 125.554855 
L 281.746753 130.034018 
L 288.140947 95.767224 
L 294.535141 113.724575 
L 300.929335 96.907901 
L 307.323529 85.061772 
L 313.717723 129.250952 
L 320.111917 133.036431 
L 326.506112 127.022691 
L 332.900306 123.392456 
L 339.2945 117.908412 
L 345.688694 113.3962 
L 352.082888 99.808636 
L 358.477082 128.49162 
L 364.871276 144.909432 
L 371.26547 55.554545 
L 377.659664 70.362465 
L 384.053858 122.994285 
L 390.448052 118.522856 
L 396.842246 115.925446 
L 403.23644 189.220279 
L 409.630634 130.359709 
L 416.024828 84.641006 
L 422.419022 157.229143 
L 428.813216 142.639126 
L 435.20741 101.848485 
L 441.601604 109.802466 
L 447.995798 108.284535 
L 454.389992 86.002338 
L 460.784186 99.340088 
L 467.17838 128.619869 
L 473.572574 127.382836 
L 550.302903 122.04733 
L 556.697097 108.688511 
L 563.091291 99.54966 
L 569.485485 88.370381 
L 575.879679 72.258761 
L 582.273873 79.840048 
L 588.668067 121.081045 
L 595.062261 106.177741 
L 614.244843 87.780682 
L 620.639037 68.431437 
L 627.033231 116.999004 
L 633.427426 153.875107 
L 639.82162 146.212992 
L 646.215814 153.775717 
L 652.610008 103.408844 
L 659.004202 110.520504 
L 665.398396 121.448723 
L 671.79259 117.166677 
L 678.186784 80.459113 
L 684.580978 114.202494 
L 690.975172 97.529099 
L 697.369366 83.555464 
L 703.76356 129.563567 
L 710.157754 116.872718 
L 716.551948 97.03472 
L 722.946142 99.025968 
L 729.340336 162.17135 
L 735.73453 124.081343 
L 742.128724 123.423594 
L 748.522918 128.825569 
L 754.917112 120.647793 
L 761.311306 159.886449 
L 767.7055 141.957963 
L 774.099694 136.914905 
L 780.493888 107.028788 
L 786.888083 114.037372 
L 793.282277 113.987462 
L 799.676471 112.776609 
L 806.070665 136.514017 
L 812.464859 134.459429 
L 818.859053 128.636082 
L 825.253247 108.073306 
L 831.647441 100.479751 
L 838.041635 95.032778 
L 844.435829 109.926698 
L 850.830023 110.118288 
L 857.224217 117.872434 
L 863.618411 105.006315 
L 870.012605 122.198214 
L 876.406799 146.644353 
L 882.800993 109.808033 
L 889.195187 183.142506 
L 895.589381 121.548456 
L 901.983575 122.90178 
L 908.377769 113.53859 
L 914.771963 118.737685 
L 921.166157 113.37682 
L 927.560351 111.020857 
L 933.954545 91.904899 
" style="fill:none;stroke:#3ba3ec;stroke-linecap:round;stroke-width:3;"/>
   </g>
   <g id="patch_3">
    <path d="M 135 315 
L 135 43.2 
" style="fill:none;stroke:#262626;stroke-linecap:square;stroke-linejoin:miter;stroke-width:2.5;"/>
   </g>
   <g id="patch_4">
    <path d="M 972 315 
L 972 43.2 
" style="fill:none;stroke:#262626;stroke-linecap:square;stroke-linejoin:miter;stroke-width:2.5;"/>
   </g>
   <g id="patch_5">
    <path d="M 135 315 
L 972 315 
" style="fill:none;stroke:#262626;stroke-linecap:square;stroke-linejoin:miter;stroke-width:2.5;"/>
   </g>
   <g id="patch_6">
    <path d="M 135 43.2 
L 972 43.2 
" style="fill:none;stroke:#262626;stroke-linecap:square;stroke-linejoin:miter;stroke-width:2.5;"/>
   </g>
   <g id="legend_1">
    <g id="patch_7">
     <path d="M 493.641094 304 
L 613.358906 304 
Q 617.758906 304 617.758906 299.6 
L 617.758906 140.340625 
Q 617.758906 135.940625 613.358906 135.940625 
L 493.641094 135.940625 
Q 489.241094 135.940625 489.241094 140.340625 
L 489.241094 299.6 
Q 489.241094 304 493.641094 304 
z
" style="fill:#ffffff;opacity:0.8;stroke:#cccccc;stroke-linejoin:miter;stroke-width:2;"/>
    </g>
    <g id="line2d_6">
     <path d="M 498.041094 153.757187 
L 542.041094 153.757187 
" style="fill:none;stroke:#f77189;stroke-linecap:round;stroke-width:3;"/>
    </g>
    <g id="line2d_7"/>
    <g id="text_15">
     <!-- AFR -->
     <g style="fill:#262626;" transform="translate(559.641094 161.457187)scale(0.22 -0.22)">
      <defs>
       <path d="M 34.1875 63.1875 
L 20.796875 26.90625 
L 47.609375 26.90625 
z
M 28.609375 72.90625 
L 39.796875 72.90625 
L 67.578125 0 
L 57.328125 0 
L 50.6875 18.703125 
L 17.828125 18.703125 
L 11.1875 0 
L 0.78125 0 
z
" id="DejaVuSans-65"/>
       <path d="M 9.8125 72.90625 
L 51.703125 72.90625 
L 51.703125 64.59375 
L 19.671875 64.59375 
L 19.671875 43.109375 
L 48.578125 43.109375 
L 48.578125 34.8125 
L 19.671875 34.8125 
L 19.671875 0 
L 9.8125 0 
z
" id="DejaVuSans-70"/>
       <path d="M 44.390625 34.1875 
Q 47.5625 33.109375 50.5625 29.59375 
Q 53.5625 26.078125 56.59375 19.921875 
L 66.609375 0 
L 56 0 
L 46.6875 18.703125 
Q 43.0625 26.03125 39.671875 28.421875 
Q 36.28125 30.8125 30.421875 30.8125 
L 19.671875 30.8125 
L 19.671875 0 
L 9.8125 0 
L 9.8125 72.90625 
L 32.078125 72.90625 
Q 44.578125 72.90625 50.734375 67.671875 
Q 56.890625 62.453125 56.890625 51.90625 
Q 56.890625 45.015625 53.6875 40.46875 
Q 50.484375 35.9375 44.390625 34.1875 
z
M 19.671875 64.796875 
L 19.671875 38.921875 
L 32.078125 38.921875 
Q 39.203125 38.921875 42.84375 42.21875 
Q 46.484375 45.515625 46.484375 51.90625 
Q 46.484375 58.296875 42.84375 61.546875 
Q 39.203125 64.796875 32.078125 64.796875 
z
" id="DejaVuSans-82"/>
      </defs>
      <use xlink:href="#DejaVuSans-65"/>
      <use x="68.408203" xlink:href="#DejaVuSans-70"/>
      <use x="125.927734" xlink:href="#DejaVuSans-82"/>
     </g>
    </g>
    <g id="line2d_8">
     <path d="M 498.041094 186.049062 
L 542.041094 186.049062 
" style="fill:none;stroke:#bb9832;stroke-linecap:round;stroke-width:3;"/>
    </g>
    <g id="line2d_9"/>
    <g id="text_16">
     <!-- EUR -->
     <g style="fill:#262626;" transform="translate(559.641094 193.749062)scale(0.22 -0.22)">
      <defs>
       <path d="M 9.8125 72.90625 
L 55.90625 72.90625 
L 55.90625 64.59375 
L 19.671875 64.59375 
L 19.671875 43.015625 
L 54.390625 43.015625 
L 54.390625 34.71875 
L 19.671875 34.71875 
L 19.671875 8.296875 
L 56.78125 8.296875 
L 56.78125 0 
L 9.8125 0 
z
" id="DejaVuSans-69"/>
       <path d="M 8.6875 72.90625 
L 18.609375 72.90625 
L 18.609375 28.609375 
Q 18.609375 16.890625 22.84375 11.734375 
Q 27.09375 6.59375 36.625 6.59375 
Q 46.09375 6.59375 50.34375 11.734375 
Q 54.59375 16.890625 54.59375 28.609375 
L 54.59375 72.90625 
L 64.5 72.90625 
L 64.5 27.390625 
Q 64.5 13.140625 57.4375 5.859375 
Q 50.390625 -1.421875 36.625 -1.421875 
Q 22.796875 -1.421875 15.734375 5.859375 
Q 8.6875 13.140625 8.6875 27.390625 
z
" id="DejaVuSans-85"/>
      </defs>
      <use xlink:href="#DejaVuSans-69"/>
      <use x="63.183594" xlink:href="#DejaVuSans-85"/>
      <use x="136.376953" xlink:href="#DejaVuSans-82"/>
     </g>
    </g>
    <g id="line2d_10">
     <path d="M 498.041094 218.340937 
L 542.041094 218.340937 
" style="fill:none;stroke:#50b131;stroke-linecap:round;stroke-width:3;"/>
    </g>
    <g id="line2d_11"/>
    <g id="text_17">
     <!-- EAS -->
     <g style="fill:#262626;" transform="translate(559.641094 226.040937)scale(0.22 -0.22)">
      <defs>
       <path d="M 53.515625 70.515625 
L 53.515625 60.890625 
Q 47.90625 63.578125 42.921875 64.890625 
Q 37.9375 66.21875 33.296875 66.21875 
Q 25.25 66.21875 20.875 63.09375 
Q 16.5 59.96875 16.5 54.203125 
Q 16.5 49.359375 19.40625 46.890625 
Q 22.3125 44.4375 30.421875 42.921875 
L 36.375 41.703125 
Q 47.40625 39.59375 52.65625 34.296875 
Q 57.90625 29 57.90625 20.125 
Q 57.90625 9.515625 50.796875 4.046875 
Q 43.703125 -1.421875 29.984375 -1.421875 
Q 24.8125 -1.421875 18.96875 -0.25 
Q 13.140625 0.921875 6.890625 3.21875 
L 6.890625 13.375 
Q 12.890625 10.015625 18.65625 8.296875 
Q 24.421875 6.59375 29.984375 6.59375 
Q 38.421875 6.59375 43.015625 9.90625 
Q 47.609375 13.234375 47.609375 19.390625 
Q 47.609375 24.75 44.3125 27.78125 
Q 41.015625 30.8125 33.5 32.328125 
L 27.484375 33.5 
Q 16.453125 35.6875 11.515625 40.375 
Q 6.59375 45.0625 6.59375 53.421875 
Q 6.59375 63.09375 13.40625 68.65625 
Q 20.21875 74.21875 32.171875 74.21875 
Q 37.3125 74.21875 42.625 73.28125 
Q 47.953125 72.359375 53.515625 70.515625 
z
" id="DejaVuSans-83"/>
      </defs>
      <use xlink:href="#DejaVuSans-69"/>
      <use x="63.183594" xlink:href="#DejaVuSans-65"/>
      <use x="131.591797" xlink:href="#DejaVuSans-83"/>
     </g>
    </g>
    <g id="line2d_12">
     <path d="M 498.041094 250.632812 
L 542.041094 250.632812 
" style="fill:none;stroke:#36ada4;stroke-linecap:round;stroke-width:3;"/>
    </g>
    <g id="line2d_13"/>
    <g id="text_18">
     <!-- SAS -->
     <g style="fill:#262626;" transform="translate(559.641094 258.332812)scale(0.22 -0.22)">
      <use xlink:href="#DejaVuSans-83"/>
      <use x="65.351562" xlink:href="#DejaVuSans-65"/>
      <use x="133.759766" xlink:href="#DejaVuSans-83"/>
     </g>
    </g>
    <g id="line2d_14">
     <path d="M 498.041094 282.924688 
L 542.041094 282.924688 
" style="fill:none;stroke:#3ba3ec;stroke-linecap:round;stroke-width:3;"/>
    </g>
    <g id="line2d_15"/>
    <g id="text_19">
     <!-- AMR -->
     <g style="fill:#262626;" transform="translate(559.641094 290.624687)scale(0.22 -0.22)">
      <defs>
       <path d="M 9.8125 72.90625 
L 24.515625 72.90625 
L 43.109375 23.296875 
L 61.8125 72.90625 
L 76.515625 72.90625 
L 76.515625 0 
L 66.890625 0 
L 66.890625 64.015625 
L 48.09375 14.015625 
L 38.1875 14.015625 
L 19.390625 64.015625 
L 19.390625 0 
L 9.8125 0 
z
" id="DejaVuSans-77"/>
      </defs>
      <use xlink:href="#DejaVuSans-65"/>
      <use x="68.408203" xlink:href="#DejaVuSans-77"/>
      <use x="154.6875" xlink:href="#DejaVuSans-82"/>
     </g>
    </g>
   </g>
  </g>
 </g>
 <defs>
  <clipPath id="p0a40069bc0">
   <rect height="271.8" width="837" x="135" y="43.2"/>
  </clipPath>
 </defs>
</svg>
