<?xml version="1.0" encoding="utf-8" standalone="no"?>
<!DOCTYPE svg PUBLIC "-//W3C//DTD SVG 1.1//EN"
  "http://www.w3.org/Graphics/SVG/1.1/DTD/svg11.dtd">
<!-- Created with matplotlib (https://matplotlib.org/) -->
<svg height="720pt" version="1.1" viewBox="0 0 1440 720" width="1440pt" xmlns="http://www.w3.org/2000/svg" xmlns:xlink="http://www.w3.org/1999/xlink">
 <metadata>
  <rdf:RDF xmlns:cc="http://creativecommons.org/ns#" xmlns:dc="http://purl.org/dc/elements/1.1/" xmlns:rdf="http://www.w3.org/1999/02/22-rdf-syntax-ns#">
   <cc:Work>
    <dc:type rdf:resource="http://purl.org/dc/dcmitype/StillImage"/>
    <dc:date>2022-11-03T14:47:30.028377</dc:date>
    <dc:format>image/svg+xml</dc:format>
    <dc:creator>
     <cc:Agent>
      <dc:title>Matplotlib v3.3.4, https://matplotlib.org/</dc:title>
     </cc:Agent>
    </dc:creator>
   </cc:Work>
  </rdf:RDF>
 </metadata>
 <defs>
  <style type="text/css">*{stroke-linecap:butt;stroke-linejoin:round;}</style>
 </defs>
 <g id="figure_1">
  <g id="patch_1">
   <path d="M 0 720 
L 1440 720 
L 1440 0 
L 0 0 
z
" style="fill:#ffffff;"/>
  </g>
  <g id="axes_1">
   <g id="patch_2">
    <path clip-path="url(#p6c8cb3657e)" d="M 180 619.41039 
L 1296 619.41039 
L 1296 584.111688 
L 180 584.111688 
z
" style="fill-opacity:0.05098;"/>
   </g>
   <g id="patch_3">
    <path clip-path="url(#p6c8cb3657e)" d="M 180 531.163636 
L 1296 531.163636 
L 1296 495.864935 
L 180 495.864935 
z
" style="fill-opacity:0.05098;"/>
   </g>
   <g id="patch_4">
    <path clip-path="url(#p6c8cb3657e)" d="M 180 442.916883 
L 1296 442.916883 
L 1296 407.618182 
L 180 407.618182 
z
" style="fill-opacity:0.05098;"/>
   </g>
   <g id="matplotlib.axis_1"/>
   <g id="matplotlib.axis_2">
    <g id="ytick_1"/>
    <g id="ytick_2"/>
    <g id="ytick_3"/>
    <g id="ytick_4"/>
    <g id="ytick_5"/>
   </g>
  </g>
  <g id="axes_2">
   <g id="matplotlib.axis_3">
    <g id="ytick_6">
     <g id="text_1">
      <!-- EAS_out -->
      <g style="fill:#262626;" transform="translate(273.593481 609.925101)scale(0.22 -0.22)">
       <defs>
        <path d="M 9.8125 72.90625 
L 55.90625 72.90625 
L 55.90625 64.59375 
L 19.671875 64.59375 
L 19.671875 43.015625 
L 54.390625 43.015625 
L 54.390625 34.71875 
L 19.671875 34.71875 
L 19.671875 8.296875 
L 56.78125 8.296875 
L 56.78125 0 
L 9.8125 0 
z
" id="DejaVuSans-69"/>
        <path d="M 34.1875 63.1875 
L 20.796875 26.90625 
L 47.609375 26.90625 
z
M 28.609375 72.90625 
L 39.796875 72.90625 
L 67.578125 0 
L 57.328125 0 
L 50.6875 18.703125 
L 17.828125 18.703125 
L 11.1875 0 
L 0.78125 0 
z
" id="DejaVuSans-65"/>
        <path d="M 53.515625 70.515625 
L 53.515625 60.890625 
Q 47.90625 63.578125 42.921875 64.890625 
Q 37.9375 66.21875 33.296875 66.21875 
Q 25.25 66.21875 20.875 63.09375 
Q 16.5 59.96875 16.5 54.203125 
Q 16.5 49.359375 19.40625 46.890625 
Q 22.3125 44.4375 30.421875 42.921875 
L 36.375 41.703125 
Q 47.40625 39.59375 52.65625 34.296875 
Q 57.90625 29 57.90625 20.125 
Q 57.90625 9.515625 50.796875 4.046875 
Q 43.703125 -1.421875 29.984375 -1.421875 
Q 24.8125 -1.421875 18.96875 -0.25 
Q 13.140625 0.921875 6.890625 3.21875 
L 6.890625 13.375 
Q 12.890625 10.015625 18.65625 8.296875 
Q 24.421875 6.59375 29.984375 6.59375 
Q 38.421875 6.59375 43.015625 9.90625 
Q 47.609375 13.234375 47.609375 19.390625 
Q 47.609375 24.75 44.3125 27.78125 
Q 41.015625 30.8125 33.5 32.328125 
L 27.484375 33.5 
Q 16.453125 35.6875 11.515625 40.375 
Q 6.59375 45.0625 6.59375 53.421875 
Q 6.59375 63.09375 13.40625 68.65625 
Q 20.21875 74.21875 32.171875 74.21875 
Q 37.3125 74.21875 42.625 73.28125 
Q 47.953125 72.359375 53.515625 70.515625 
z
" id="DejaVuSans-83"/>
        <path d="M 50.984375 -16.609375 
L 50.984375 -23.578125 
L -0.984375 -23.578125 
L -0.984375 -16.609375 
z
" id="DejaVuSans-95"/>
        <path d="M 30.609375 48.390625 
Q 23.390625 48.390625 19.1875 42.75 
Q 14.984375 37.109375 14.984375 27.296875 
Q 14.984375 17.484375 19.15625 11.84375 
Q 23.34375 6.203125 30.609375 6.203125 
Q 37.796875 6.203125 41.984375 11.859375 
Q 46.1875 17.53125 46.1875 27.296875 
Q 46.1875 37.015625 41.984375 42.703125 
Q 37.796875 48.390625 30.609375 48.390625 
z
M 30.609375 56 
Q 42.328125 56 49.015625 48.375 
Q 55.71875 40.765625 55.71875 27.296875 
Q 55.71875 13.875 49.015625 6.21875 
Q 42.328125 -1.421875 30.609375 -1.421875 
Q 18.84375 -1.421875 12.171875 6.21875 
Q 5.515625 13.875 5.515625 27.296875 
Q 5.515625 40.765625 12.171875 48.375 
Q 18.84375 56 30.609375 56 
z
" id="DejaVuSans-111"/>
        <path d="M 8.5 21.578125 
L 8.5 54.6875 
L 17.484375 54.6875 
L 17.484375 21.921875 
Q 17.484375 14.15625 20.5 10.265625 
Q 23.53125 6.390625 29.59375 6.390625 
Q 36.859375 6.390625 41.078125 11.03125 
Q 45.3125 15.671875 45.3125 23.6875 
L 45.3125 54.6875 
L 54.296875 54.6875 
L 54.296875 0 
L 45.3125 0 
L 45.3125 8.40625 
Q 42.046875 3.421875 37.71875 1 
Q 33.40625 -1.421875 27.6875 -1.421875 
Q 18.265625 -1.421875 13.375 4.4375 
Q 8.5 10.296875 8.5 21.578125 
z
M 31.109375 56 
z
" id="DejaVuSans-117"/>
        <path d="M 18.3125 70.21875 
L 18.3125 54.6875 
L 36.8125 54.6875 
L 36.8125 47.703125 
L 18.3125 47.703125 
L 18.3125 18.015625 
Q 18.3125 11.328125 20.140625 9.421875 
Q 21.96875 7.515625 27.59375 7.515625 
L 36.8125 7.515625 
L 36.8125 0 
L 27.59375 0 
Q 17.1875 0 13.234375 3.875 
Q 9.28125 7.765625 9.28125 18.015625 
L 9.28125 47.703125 
L 2.6875 47.703125 
L 2.6875 54.6875 
L 9.28125 54.6875 
L 9.28125 70.21875 
z
" id="DejaVuSans-116"/>
       </defs>
       <use xlink:href="#DejaVuSans-69"/>
       <use x="63.183594" xlink:href="#DejaVuSans-65"/>
       <use x="131.591797" xlink:href="#DejaVuSans-83"/>
       <use x="195.068359" xlink:href="#DejaVuSans-95"/>
       <use x="245.068359" xlink:href="#DejaVuSans-111"/>
       <use x="306.25" xlink:href="#DejaVuSans-117"/>
       <use x="369.628906" xlink:href="#DejaVuSans-116"/>
      </g>
     </g>
    </g>
    <g id="ytick_7">
     <g id="text_2">
      <!-- EUR_out -->
      <g style="fill:#262626;" transform="translate(271.221606 565.690006)scale(0.22 -0.22)">
       <defs>
        <path d="M 8.6875 72.90625 
L 18.609375 72.90625 
L 18.609375 28.609375 
Q 18.609375 16.890625 22.84375 11.734375 
Q 27.09375 6.59375 36.625 6.59375 
Q 46.09375 6.59375 50.34375 11.734375 
Q 54.59375 16.890625 54.59375 28.609375 
L 54.59375 72.90625 
L 64.5 72.90625 
L 64.5 27.390625 
Q 64.5 13.140625 57.4375 5.859375 
Q 50.390625 -1.421875 36.625 -1.421875 
Q 22.796875 -1.421875 15.734375 5.859375 
Q 8.6875 13.140625 8.6875 27.390625 
z
" id="DejaVuSans-85"/>
        <path d="M 44.390625 34.1875 
Q 47.5625 33.109375 50.5625 29.59375 
Q 53.5625 26.078125 56.59375 19.921875 
L 66.609375 0 
L 56 0 
L 46.6875 18.703125 
Q 43.0625 26.03125 39.671875 28.421875 
Q 36.28125 30.8125 30.421875 30.8125 
L 19.671875 30.8125 
L 19.671875 0 
L 9.8125 0 
L 9.8125 72.90625 
L 32.078125 72.90625 
Q 44.578125 72.90625 50.734375 67.671875 
Q 56.890625 62.453125 56.890625 51.90625 
Q 56.890625 45.015625 53.6875 40.46875 
Q 50.484375 35.9375 44.390625 34.1875 
z
M 19.671875 64.796875 
L 19.671875 38.921875 
L 32.078125 38.921875 
Q 39.203125 38.921875 42.84375 42.21875 
Q 46.484375 45.515625 46.484375 51.90625 
Q 46.484375 58.296875 42.84375 61.546875 
Q 39.203125 64.796875 32.078125 64.796875 
z
" id="DejaVuSans-82"/>
       </defs>
       <use xlink:href="#DejaVuSans-69"/>
       <use x="63.183594" xlink:href="#DejaVuSans-85"/>
       <use x="136.376953" xlink:href="#DejaVuSans-82"/>
       <use x="205.859375" xlink:href="#DejaVuSans-95"/>
       <use x="255.859375" xlink:href="#DejaVuSans-111"/>
       <use x="317.041016" xlink:href="#DejaVuSans-117"/>
       <use x="380.419922" xlink:href="#DejaVuSans-116"/>
      </g>
     </g>
    </g>
    <g id="ytick_8">
     <g id="text_3">
      <!-- AMR_out -->
      <g style="fill:#262626;" transform="translate(267.192856 521.566629)scale(0.22 -0.22)">
       <defs>
        <path d="M 9.8125 72.90625 
L 24.515625 72.90625 
L 43.109375 23.296875 
L 61.8125 72.90625 
L 76.515625 72.90625 
L 76.515625 0 
L 66.890625 0 
L 66.890625 64.015625 
L 48.09375 14.015625 
L 38.1875 14.015625 
L 19.390625 64.015625 
L 19.390625 0 
L 9.8125 0 
z
" id="DejaVuSans-77"/>
       </defs>
       <use xlink:href="#DejaVuSans-65"/>
       <use x="68.408203" xlink:href="#DejaVuSans-77"/>
       <use x="154.6875" xlink:href="#DejaVuSans-82"/>
       <use x="224.169922" xlink:href="#DejaVuSans-95"/>
       <use x="274.169922" xlink:href="#DejaVuSans-111"/>
       <use x="335.351562" xlink:href="#DejaVuSans-117"/>
       <use x="398.730469" xlink:href="#DejaVuSans-116"/>
      </g>
     </g>
    </g>
    <g id="ytick_9">
     <g id="text_4">
      <!-- SAS_out -->
      <g style="fill:#262626;" transform="translate(273.115669 477.554972)scale(0.22 -0.22)">
       <use xlink:href="#DejaVuSans-83"/>
       <use x="65.351562" xlink:href="#DejaVuSans-65"/>
       <use x="133.759766" xlink:href="#DejaVuSans-83"/>
       <use x="197.236328" xlink:href="#DejaVuSans-95"/>
       <use x="247.236328" xlink:href="#DejaVuSans-111"/>
       <use x="308.417969" xlink:href="#DejaVuSans-117"/>
       <use x="371.796875" xlink:href="#DejaVuSans-116"/>
      </g>
     </g>
    </g>
    <g id="ytick_10">
     <g id="text_5">
      <!-- AFR_out -->
      <g style="fill:#262626;" transform="translate(273.521294 433.319876)scale(0.22 -0.22)">
       <defs>
        <path d="M 9.8125 72.90625 
L 51.703125 72.90625 
L 51.703125 64.59375 
L 19.671875 64.59375 
L 19.671875 43.109375 
L 48.578125 43.109375 
L 48.578125 34.8125 
L 19.671875 34.8125 
L 19.671875 0 
L 9.8125 0 
z
" id="DejaVuSans-70"/>
       </defs>
       <use xlink:href="#DejaVuSans-65"/>
       <use x="68.408203" xlink:href="#DejaVuSans-70"/>
       <use x="125.927734" xlink:href="#DejaVuSans-82"/>
       <use x="195.410156" xlink:href="#DejaVuSans-95"/>
       <use x="245.410156" xlink:href="#DejaVuSans-111"/>
       <use x="306.591797" xlink:href="#DejaVuSans-117"/>
       <use x="369.970703" xlink:href="#DejaVuSans-116"/>
      </g>
     </g>
    </g>
   </g>
   <g id="LineCollection_1">
    <path clip-path="url(#pfb6826d458)" d="M 385.618324 601.761039 
L 385.618324 601.761039 
" style="fill:none;stroke:#000000;stroke-width:2;"/>
    <path clip-path="url(#pfb6826d458)" d="M 422.77676 557.637662 
L 422.77676 557.637662 
" style="fill:none;stroke:#000000;stroke-width:2;"/>
    <path clip-path="url(#pfb6826d458)" d="M 459.935196 513.514286 
L 459.935196 513.514286 
" style="fill:none;stroke:#000000;stroke-width:2;"/>
    <path clip-path="url(#pfb6826d458)" d="M 497.093631 469.390909 
L 497.093631 469.390909 
" style="fill:none;stroke:#000000;stroke-width:2;"/>
    <path clip-path="url(#pfb6826d458)" d="M 534.252067 425.267532 
L 534.252067 425.267532 
" style="fill:none;stroke:#000000;stroke-width:2;"/>
    <path clip-path="url(#pfb6826d458)" d="M 571.410503 601.761039 
L 571.410503 425.267532 
" style="fill:none;stroke:#000000;stroke-width:2;"/>
    <path clip-path="url(#pfb6826d458)" d="M 608.568939 601.761039 
L 608.568939 557.637662 
" style="fill:none;stroke:#000000;stroke-width:2;"/>
    <path clip-path="url(#pfb6826d458)" d="M 645.727374 601.761039 
L 645.727374 469.390909 
" style="fill:none;stroke:#000000;stroke-width:2;"/>
    <path clip-path="url(#pfb6826d458)" d="M 682.88581 601.761039 
L 682.88581 513.514286 
" style="fill:none;stroke:#000000;stroke-width:2;"/>
    <path clip-path="url(#pfb6826d458)" d="M 720.044246 557.637662 
L 720.044246 469.390909 
" style="fill:none;stroke:#000000;stroke-width:2;"/>
    <path clip-path="url(#pfb6826d458)" d="M 757.202682 557.637662 
L 757.202682 513.514286 
" style="fill:none;stroke:#000000;stroke-width:2;"/>
    <path clip-path="url(#pfb6826d458)" d="M 794.361117 557.637662 
L 794.361117 425.267532 
" style="fill:none;stroke:#000000;stroke-width:2;"/>
    <path clip-path="url(#pfb6826d458)" d="M 831.519553 601.761039 
L 831.519553 425.267532 
" style="fill:none;stroke:#000000;stroke-width:2;"/>
    <path clip-path="url(#pfb6826d458)" d="M 868.677989 601.761039 
L 868.677989 469.390909 
" style="fill:none;stroke:#000000;stroke-width:2;"/>
    <path clip-path="url(#pfb6826d458)" d="M 905.836425 513.514286 
L 905.836425 469.390909 
" style="fill:none;stroke:#000000;stroke-width:2;"/>
    <path clip-path="url(#pfb6826d458)" d="M 942.99486 601.761039 
L 942.99486 425.267532 
" style="fill:none;stroke:#000000;stroke-width:2;"/>
    <path clip-path="url(#pfb6826d458)" d="M 980.153296 469.390909 
L 980.153296 425.267532 
" style="fill:none;stroke:#000000;stroke-width:2;"/>
    <path clip-path="url(#pfb6826d458)" d="M 1017.311732 601.761039 
L 1017.311732 425.267532 
" style="fill:none;stroke:#000000;stroke-width:2;"/>
    <path clip-path="url(#pfb6826d458)" d="M 1054.470168 557.637662 
L 1054.470168 425.267532 
" style="fill:none;stroke:#000000;stroke-width:2;"/>
    <path clip-path="url(#pfb6826d458)" d="M 1091.628603 513.514286 
L 1091.628603 425.267532 
" style="fill:none;stroke:#000000;stroke-width:2;"/>
    <path clip-path="url(#pfb6826d458)" d="M 1128.787039 557.637662 
L 1128.787039 469.390909 
" style="fill:none;stroke:#000000;stroke-width:2;"/>
    <path clip-path="url(#pfb6826d458)" d="M 1165.945475 601.761039 
L 1165.945475 513.514286 
" style="fill:none;stroke:#000000;stroke-width:2;"/>
    <path clip-path="url(#pfb6826d458)" d="M 1203.103911 601.761039 
L 1203.103911 469.390909 
" style="fill:none;stroke:#000000;stroke-width:2;"/>
    <path clip-path="url(#pfb6826d458)" d="M 1240.262346 601.761039 
L 1240.262346 425.267532 
" style="fill:none;stroke:#000000;stroke-width:2;"/>
    <path clip-path="url(#pfb6826d458)" d="M 1277.420782 557.637662 
L 1277.420782 425.267532 
" style="fill:none;stroke:#000000;stroke-width:2;"/>
   </g>
   <g id="PathCollection_1">
    <defs>
     <path d="M 0 7.071068 
C 1.875269 7.071068 3.673985 6.326016 5 5 
C 6.326016 3.673985 7.071068 1.875269 7.071068 -0 
C 7.071068 -1.875269 6.326016 -3.673985 5 -5 
C 3.673985 -6.326016 1.875269 -7.071068 0 -7.071068 
C -1.875269 -7.071068 -3.673985 -6.326016 -5 -5 
C -6.326016 -3.673985 -7.071068 -1.875269 -7.071068 0 
C -7.071068 1.875269 -6.326016 3.673985 -5 5 
C -3.673985 6.326016 -1.875269 7.071068 0 7.071068 
z
" id="C0_0_ec5a2da6ef"/>
    </defs>
    <g clip-path="url(#pfb6826d458)">
     <use style="stroke:#000000;" x="385.618324" xlink:href="#C0_0_ec5a2da6ef" y="601.761039"/>
    </g>
    <g clip-path="url(#pfb6826d458)">
     <use style="fill-opacity:0.180392;" x="385.618324" xlink:href="#C0_0_ec5a2da6ef" y="557.637662"/>
    </g>
    <g clip-path="url(#pfb6826d458)">
     <use style="fill-opacity:0.180392;" x="385.618324" xlink:href="#C0_0_ec5a2da6ef" y="513.514286"/>
    </g>
    <g clip-path="url(#pfb6826d458)">
     <use style="fill-opacity:0.180392;" x="385.618324" xlink:href="#C0_0_ec5a2da6ef" y="469.390909"/>
    </g>
    <g clip-path="url(#pfb6826d458)">
     <use style="fill-opacity:0.180392;" x="385.618324" xlink:href="#C0_0_ec5a2da6ef" y="425.267532"/>
    </g>
    <g clip-path="url(#pfb6826d458)">
     <use style="fill-opacity:0.180392;" x="422.77676" xlink:href="#C0_0_ec5a2da6ef" y="601.761039"/>
    </g>
    <g clip-path="url(#pfb6826d458)">
     <use style="stroke:#000000;" x="422.77676" xlink:href="#C0_0_ec5a2da6ef" y="557.637662"/>
    </g>
    <g clip-path="url(#pfb6826d458)">
     <use style="fill-opacity:0.180392;" x="422.77676" xlink:href="#C0_0_ec5a2da6ef" y="513.514286"/>
    </g>
    <g clip-path="url(#pfb6826d458)">
     <use style="fill-opacity:0.180392;" x="422.77676" xlink:href="#C0_0_ec5a2da6ef" y="469.390909"/>
    </g>
    <g clip-path="url(#pfb6826d458)">
     <use style="fill-opacity:0.180392;" x="422.77676" xlink:href="#C0_0_ec5a2da6ef" y="425.267532"/>
    </g>
    <g clip-path="url(#pfb6826d458)">
     <use style="fill-opacity:0.180392;" x="459.935196" xlink:href="#C0_0_ec5a2da6ef" y="601.761039"/>
    </g>
    <g clip-path="url(#pfb6826d458)">
     <use style="fill-opacity:0.180392;" x="459.935196" xlink:href="#C0_0_ec5a2da6ef" y="557.637662"/>
    </g>
    <g clip-path="url(#pfb6826d458)">
     <use style="stroke:#000000;" x="459.935196" xlink:href="#C0_0_ec5a2da6ef" y="513.514286"/>
    </g>
    <g clip-path="url(#pfb6826d458)">
     <use style="fill-opacity:0.180392;" x="459.935196" xlink:href="#C0_0_ec5a2da6ef" y="469.390909"/>
    </g>
    <g clip-path="url(#pfb6826d458)">
     <use style="fill-opacity:0.180392;" x="459.935196" xlink:href="#C0_0_ec5a2da6ef" y="425.267532"/>
    </g>
    <g clip-path="url(#pfb6826d458)">
     <use style="fill-opacity:0.180392;" x="497.093631" xlink:href="#C0_0_ec5a2da6ef" y="601.761039"/>
    </g>
    <g clip-path="url(#pfb6826d458)">
     <use style="fill-opacity:0.180392;" x="497.093631" xlink:href="#C0_0_ec5a2da6ef" y="557.637662"/>
    </g>
    <g clip-path="url(#pfb6826d458)">
     <use style="fill-opacity:0.180392;" x="497.093631" xlink:href="#C0_0_ec5a2da6ef" y="513.514286"/>
    </g>
    <g clip-path="url(#pfb6826d458)">
     <use style="stroke:#000000;" x="497.093631" xlink:href="#C0_0_ec5a2da6ef" y="469.390909"/>
    </g>
    <g clip-path="url(#pfb6826d458)">
     <use style="fill-opacity:0.180392;" x="497.093631" xlink:href="#C0_0_ec5a2da6ef" y="425.267532"/>
    </g>
    <g clip-path="url(#pfb6826d458)">
     <use style="fill-opacity:0.180392;" x="534.252067" xlink:href="#C0_0_ec5a2da6ef" y="601.761039"/>
    </g>
    <g clip-path="url(#pfb6826d458)">
     <use style="fill-opacity:0.180392;" x="534.252067" xlink:href="#C0_0_ec5a2da6ef" y="557.637662"/>
    </g>
    <g clip-path="url(#pfb6826d458)">
     <use style="fill-opacity:0.180392;" x="534.252067" xlink:href="#C0_0_ec5a2da6ef" y="513.514286"/>
    </g>
    <g clip-path="url(#pfb6826d458)">
     <use style="fill-opacity:0.180392;" x="534.252067" xlink:href="#C0_0_ec5a2da6ef" y="469.390909"/>
    </g>
    <g clip-path="url(#pfb6826d458)">
     <use style="stroke:#000000;" x="534.252067" xlink:href="#C0_0_ec5a2da6ef" y="425.267532"/>
    </g>
    <g clip-path="url(#pfb6826d458)">
     <use style="stroke:#000000;" x="571.410503" xlink:href="#C0_0_ec5a2da6ef" y="601.761039"/>
    </g>
    <g clip-path="url(#pfb6826d458)">
     <use style="fill-opacity:0.180392;" x="571.410503" xlink:href="#C0_0_ec5a2da6ef" y="557.637662"/>
    </g>
    <g clip-path="url(#pfb6826d458)">
     <use style="fill-opacity:0.180392;" x="571.410503" xlink:href="#C0_0_ec5a2da6ef" y="513.514286"/>
    </g>
    <g clip-path="url(#pfb6826d458)">
     <use style="fill-opacity:0.180392;" x="571.410503" xlink:href="#C0_0_ec5a2da6ef" y="469.390909"/>
    </g>
    <g clip-path="url(#pfb6826d458)">
     <use style="stroke:#000000;" x="571.410503" xlink:href="#C0_0_ec5a2da6ef" y="425.267532"/>
    </g>
    <g clip-path="url(#pfb6826d458)">
     <use style="stroke:#000000;" x="608.568939" xlink:href="#C0_0_ec5a2da6ef" y="601.761039"/>
    </g>
    <g clip-path="url(#pfb6826d458)">
     <use style="stroke:#000000;" x="608.568939" xlink:href="#C0_0_ec5a2da6ef" y="557.637662"/>
    </g>
    <g clip-path="url(#pfb6826d458)">
     <use style="fill-opacity:0.180392;" x="608.568939" xlink:href="#C0_0_ec5a2da6ef" y="513.514286"/>
    </g>
    <g clip-path="url(#pfb6826d458)">
     <use style="fill-opacity:0.180392;" x="608.568939" xlink:href="#C0_0_ec5a2da6ef" y="469.390909"/>
    </g>
    <g clip-path="url(#pfb6826d458)">
     <use style="fill-opacity:0.180392;" x="608.568939" xlink:href="#C0_0_ec5a2da6ef" y="425.267532"/>
    </g>
    <g clip-path="url(#pfb6826d458)">
     <use style="stroke:#000000;" x="645.727374" xlink:href="#C0_0_ec5a2da6ef" y="601.761039"/>
    </g>
    <g clip-path="url(#pfb6826d458)">
     <use style="fill-opacity:0.180392;" x="645.727374" xlink:href="#C0_0_ec5a2da6ef" y="557.637662"/>
    </g>
    <g clip-path="url(#pfb6826d458)">
     <use style="fill-opacity:0.180392;" x="645.727374" xlink:href="#C0_0_ec5a2da6ef" y="513.514286"/>
    </g>
    <g clip-path="url(#pfb6826d458)">
     <use style="stroke:#000000;" x="645.727374" xlink:href="#C0_0_ec5a2da6ef" y="469.390909"/>
    </g>
    <g clip-path="url(#pfb6826d458)">
     <use style="fill-opacity:0.180392;" x="645.727374" xlink:href="#C0_0_ec5a2da6ef" y="425.267532"/>
    </g>
    <g clip-path="url(#pfb6826d458)">
     <use style="stroke:#000000;" x="682.88581" xlink:href="#C0_0_ec5a2da6ef" y="601.761039"/>
    </g>
    <g clip-path="url(#pfb6826d458)">
     <use style="fill-opacity:0.180392;" x="682.88581" xlink:href="#C0_0_ec5a2da6ef" y="557.637662"/>
    </g>
    <g clip-path="url(#pfb6826d458)">
     <use style="stroke:#000000;" x="682.88581" xlink:href="#C0_0_ec5a2da6ef" y="513.514286"/>
    </g>
    <g clip-path="url(#pfb6826d458)">
     <use style="fill-opacity:0.180392;" x="682.88581" xlink:href="#C0_0_ec5a2da6ef" y="469.390909"/>
    </g>
    <g clip-path="url(#pfb6826d458)">
     <use style="fill-opacity:0.180392;" x="682.88581" xlink:href="#C0_0_ec5a2da6ef" y="425.267532"/>
    </g>
    <g clip-path="url(#pfb6826d458)">
     <use style="fill-opacity:0.180392;" x="720.044246" xlink:href="#C0_0_ec5a2da6ef" y="601.761039"/>
    </g>
    <g clip-path="url(#pfb6826d458)">
     <use style="stroke:#000000;" x="720.044246" xlink:href="#C0_0_ec5a2da6ef" y="557.637662"/>
    </g>
    <g clip-path="url(#pfb6826d458)">
     <use style="fill-opacity:0.180392;" x="720.044246" xlink:href="#C0_0_ec5a2da6ef" y="513.514286"/>
    </g>
    <g clip-path="url(#pfb6826d458)">
     <use style="stroke:#000000;" x="720.044246" xlink:href="#C0_0_ec5a2da6ef" y="469.390909"/>
    </g>
    <g clip-path="url(#pfb6826d458)">
     <use style="fill-opacity:0.180392;" x="720.044246" xlink:href="#C0_0_ec5a2da6ef" y="425.267532"/>
    </g>
    <g clip-path="url(#pfb6826d458)">
     <use style="fill-opacity:0.180392;" x="757.202682" xlink:href="#C0_0_ec5a2da6ef" y="601.761039"/>
    </g>
    <g clip-path="url(#pfb6826d458)">
     <use style="stroke:#000000;" x="757.202682" xlink:href="#C0_0_ec5a2da6ef" y="557.637662"/>
    </g>
    <g clip-path="url(#pfb6826d458)">
     <use style="stroke:#000000;" x="757.202682" xlink:href="#C0_0_ec5a2da6ef" y="513.514286"/>
    </g>
    <g clip-path="url(#pfb6826d458)">
     <use style="fill-opacity:0.180392;" x="757.202682" xlink:href="#C0_0_ec5a2da6ef" y="469.390909"/>
    </g>
    <g clip-path="url(#pfb6826d458)">
     <use style="fill-opacity:0.180392;" x="757.202682" xlink:href="#C0_0_ec5a2da6ef" y="425.267532"/>
    </g>
    <g clip-path="url(#pfb6826d458)">
     <use style="fill-opacity:0.180392;" x="794.361117" xlink:href="#C0_0_ec5a2da6ef" y="601.761039"/>
    </g>
    <g clip-path="url(#pfb6826d458)">
     <use style="stroke:#000000;" x="794.361117" xlink:href="#C0_0_ec5a2da6ef" y="557.637662"/>
    </g>
    <g clip-path="url(#pfb6826d458)">
     <use style="fill-opacity:0.180392;" x="794.361117" xlink:href="#C0_0_ec5a2da6ef" y="513.514286"/>
    </g>
    <g clip-path="url(#pfb6826d458)">
     <use style="fill-opacity:0.180392;" x="794.361117" xlink:href="#C0_0_ec5a2da6ef" y="469.390909"/>
    </g>
    <g clip-path="url(#pfb6826d458)">
     <use style="stroke:#000000;" x="794.361117" xlink:href="#C0_0_ec5a2da6ef" y="425.267532"/>
    </g>
    <g clip-path="url(#pfb6826d458)">
     <use style="stroke:#000000;" x="831.519553" xlink:href="#C0_0_ec5a2da6ef" y="601.761039"/>
    </g>
    <g clip-path="url(#pfb6826d458)">
     <use style="fill-opacity:0.180392;" x="831.519553" xlink:href="#C0_0_ec5a2da6ef" y="557.637662"/>
    </g>
    <g clip-path="url(#pfb6826d458)">
     <use style="fill-opacity:0.180392;" x="831.519553" xlink:href="#C0_0_ec5a2da6ef" y="513.514286"/>
    </g>
    <g clip-path="url(#pfb6826d458)">
     <use style="stroke:#000000;" x="831.519553" xlink:href="#C0_0_ec5a2da6ef" y="469.390909"/>
    </g>
    <g clip-path="url(#pfb6826d458)">
     <use style="stroke:#000000;" x="831.519553" xlink:href="#C0_0_ec5a2da6ef" y="425.267532"/>
    </g>
    <g clip-path="url(#pfb6826d458)">
     <use style="stroke:#000000;" x="868.677989" xlink:href="#C0_0_ec5a2da6ef" y="601.761039"/>
    </g>
    <g clip-path="url(#pfb6826d458)">
     <use style="stroke:#000000;" x="868.677989" xlink:href="#C0_0_ec5a2da6ef" y="557.637662"/>
    </g>
    <g clip-path="url(#pfb6826d458)">
     <use style="fill-opacity:0.180392;" x="868.677989" xlink:href="#C0_0_ec5a2da6ef" y="513.514286"/>
    </g>
    <g clip-path="url(#pfb6826d458)">
     <use style="stroke:#000000;" x="868.677989" xlink:href="#C0_0_ec5a2da6ef" y="469.390909"/>
    </g>
    <g clip-path="url(#pfb6826d458)">
     <use style="fill-opacity:0.180392;" x="868.677989" xlink:href="#C0_0_ec5a2da6ef" y="425.267532"/>
    </g>
    <g clip-path="url(#pfb6826d458)">
     <use style="fill-opacity:0.180392;" x="905.836425" xlink:href="#C0_0_ec5a2da6ef" y="601.761039"/>
    </g>
    <g clip-path="url(#pfb6826d458)">
     <use style="fill-opacity:0.180392;" x="905.836425" xlink:href="#C0_0_ec5a2da6ef" y="557.637662"/>
    </g>
    <g clip-path="url(#pfb6826d458)">
     <use style="stroke:#000000;" x="905.836425" xlink:href="#C0_0_ec5a2da6ef" y="513.514286"/>
    </g>
    <g clip-path="url(#pfb6826d458)">
     <use style="stroke:#000000;" x="905.836425" xlink:href="#C0_0_ec5a2da6ef" y="469.390909"/>
    </g>
    <g clip-path="url(#pfb6826d458)">
     <use style="fill-opacity:0.180392;" x="905.836425" xlink:href="#C0_0_ec5a2da6ef" y="425.267532"/>
    </g>
    <g clip-path="url(#pfb6826d458)">
     <use style="stroke:#000000;" x="942.99486" xlink:href="#C0_0_ec5a2da6ef" y="601.761039"/>
    </g>
    <g clip-path="url(#pfb6826d458)">
     <use style="fill-opacity:0.180392;" x="942.99486" xlink:href="#C0_0_ec5a2da6ef" y="557.637662"/>
    </g>
    <g clip-path="url(#pfb6826d458)">
     <use style="stroke:#000000;" x="942.99486" xlink:href="#C0_0_ec5a2da6ef" y="513.514286"/>
    </g>
    <g clip-path="url(#pfb6826d458)">
     <use style="fill-opacity:0.180392;" x="942.99486" xlink:href="#C0_0_ec5a2da6ef" y="469.390909"/>
    </g>
    <g clip-path="url(#pfb6826d458)">
     <use style="stroke:#000000;" x="942.99486" xlink:href="#C0_0_ec5a2da6ef" y="425.267532"/>
    </g>
    <g clip-path="url(#pfb6826d458)">
     <use style="fill-opacity:0.180392;" x="980.153296" xlink:href="#C0_0_ec5a2da6ef" y="601.761039"/>
    </g>
    <g clip-path="url(#pfb6826d458)">
     <use style="fill-opacity:0.180392;" x="980.153296" xlink:href="#C0_0_ec5a2da6ef" y="557.637662"/>
    </g>
    <g clip-path="url(#pfb6826d458)">
     <use style="fill-opacity:0.180392;" x="980.153296" xlink:href="#C0_0_ec5a2da6ef" y="513.514286"/>
    </g>
    <g clip-path="url(#pfb6826d458)">
     <use style="stroke:#000000;" x="980.153296" xlink:href="#C0_0_ec5a2da6ef" y="469.390909"/>
    </g>
    <g clip-path="url(#pfb6826d458)">
     <use style="stroke:#000000;" x="980.153296" xlink:href="#C0_0_ec5a2da6ef" y="425.267532"/>
    </g>
    <g clip-path="url(#pfb6826d458)">
     <use style="stroke:#000000;" x="1017.311732" xlink:href="#C0_0_ec5a2da6ef" y="601.761039"/>
    </g>
    <g clip-path="url(#pfb6826d458)">
     <use style="stroke:#000000;" x="1017.311732" xlink:href="#C0_0_ec5a2da6ef" y="557.637662"/>
    </g>
    <g clip-path="url(#pfb6826d458)">
     <use style="fill-opacity:0.180392;" x="1017.311732" xlink:href="#C0_0_ec5a2da6ef" y="513.514286"/>
    </g>
    <g clip-path="url(#pfb6826d458)">
     <use style="fill-opacity:0.180392;" x="1017.311732" xlink:href="#C0_0_ec5a2da6ef" y="469.390909"/>
    </g>
    <g clip-path="url(#pfb6826d458)">
     <use style="stroke:#000000;" x="1017.311732" xlink:href="#C0_0_ec5a2da6ef" y="425.267532"/>
    </g>
    <g clip-path="url(#pfb6826d458)">
     <use style="fill-opacity:0.180392;" x="1054.470168" xlink:href="#C0_0_ec5a2da6ef" y="601.761039"/>
    </g>
    <g clip-path="url(#pfb6826d458)">
     <use style="stroke:#000000;" x="1054.470168" xlink:href="#C0_0_ec5a2da6ef" y="557.637662"/>
    </g>
    <g clip-path="url(#pfb6826d458)">
     <use style="fill-opacity:0.180392;" x="1054.470168" xlink:href="#C0_0_ec5a2da6ef" y="513.514286"/>
    </g>
    <g clip-path="url(#pfb6826d458)">
     <use style="stroke:#000000;" x="1054.470168" xlink:href="#C0_0_ec5a2da6ef" y="469.390909"/>
    </g>
    <g clip-path="url(#pfb6826d458)">
     <use style="stroke:#000000;" x="1054.470168" xlink:href="#C0_0_ec5a2da6ef" y="425.267532"/>
    </g>
    <g clip-path="url(#pfb6826d458)">
     <use style="fill-opacity:0.180392;" x="1091.628603" xlink:href="#C0_0_ec5a2da6ef" y="601.761039"/>
    </g>
    <g clip-path="url(#pfb6826d458)">
     <use style="fill-opacity:0.180392;" x="1091.628603" xlink:href="#C0_0_ec5a2da6ef" y="557.637662"/>
    </g>
    <g clip-path="url(#pfb6826d458)">
     <use style="stroke:#000000;" x="1091.628603" xlink:href="#C0_0_ec5a2da6ef" y="513.514286"/>
    </g>
    <g clip-path="url(#pfb6826d458)">
     <use style="fill-opacity:0.180392;" x="1091.628603" xlink:href="#C0_0_ec5a2da6ef" y="469.390909"/>
    </g>
    <g clip-path="url(#pfb6826d458)">
     <use style="stroke:#000000;" x="1091.628603" xlink:href="#C0_0_ec5a2da6ef" y="425.267532"/>
    </g>
    <g clip-path="url(#pfb6826d458)">
     <use style="fill-opacity:0.180392;" x="1128.787039" xlink:href="#C0_0_ec5a2da6ef" y="601.761039"/>
    </g>
    <g clip-path="url(#pfb6826d458)">
     <use style="stroke:#000000;" x="1128.787039" xlink:href="#C0_0_ec5a2da6ef" y="557.637662"/>
    </g>
    <g clip-path="url(#pfb6826d458)">
     <use style="stroke:#000000;" x="1128.787039" xlink:href="#C0_0_ec5a2da6ef" y="513.514286"/>
    </g>
    <g clip-path="url(#pfb6826d458)">
     <use style="stroke:#000000;" x="1128.787039" xlink:href="#C0_0_ec5a2da6ef" y="469.390909"/>
    </g>
    <g clip-path="url(#pfb6826d458)">
     <use style="fill-opacity:0.180392;" x="1128.787039" xlink:href="#C0_0_ec5a2da6ef" y="425.267532"/>
    </g>
    <g clip-path="url(#pfb6826d458)">
     <use style="stroke:#000000;" x="1165.945475" xlink:href="#C0_0_ec5a2da6ef" y="601.761039"/>
    </g>
    <g clip-path="url(#pfb6826d458)">
     <use style="stroke:#000000;" x="1165.945475" xlink:href="#C0_0_ec5a2da6ef" y="557.637662"/>
    </g>
    <g clip-path="url(#pfb6826d458)">
     <use style="stroke:#000000;" x="1165.945475" xlink:href="#C0_0_ec5a2da6ef" y="513.514286"/>
    </g>
    <g clip-path="url(#pfb6826d458)">
     <use style="fill-opacity:0.180392;" x="1165.945475" xlink:href="#C0_0_ec5a2da6ef" y="469.390909"/>
    </g>
    <g clip-path="url(#pfb6826d458)">
     <use style="fill-opacity:0.180392;" x="1165.945475" xlink:href="#C0_0_ec5a2da6ef" y="425.267532"/>
    </g>
    <g clip-path="url(#pfb6826d458)">
     <use style="stroke:#000000;" x="1203.103911" xlink:href="#C0_0_ec5a2da6ef" y="601.761039"/>
    </g>
    <g clip-path="url(#pfb6826d458)">
     <use style="fill-opacity:0.180392;" x="1203.103911" xlink:href="#C0_0_ec5a2da6ef" y="557.637662"/>
    </g>
    <g clip-path="url(#pfb6826d458)">
     <use style="stroke:#000000;" x="1203.103911" xlink:href="#C0_0_ec5a2da6ef" y="513.514286"/>
    </g>
    <g clip-path="url(#pfb6826d458)">
     <use style="stroke:#000000;" x="1203.103911" xlink:href="#C0_0_ec5a2da6ef" y="469.390909"/>
    </g>
    <g clip-path="url(#pfb6826d458)">
     <use style="fill-opacity:0.180392;" x="1203.103911" xlink:href="#C0_0_ec5a2da6ef" y="425.267532"/>
    </g>
    <g clip-path="url(#pfb6826d458)">
     <use style="stroke:#000000;" x="1240.262346" xlink:href="#C0_0_ec5a2da6ef" y="601.761039"/>
    </g>
    <g clip-path="url(#pfb6826d458)">
     <use style="stroke:#000000;" x="1240.262346" xlink:href="#C0_0_ec5a2da6ef" y="557.637662"/>
    </g>
    <g clip-path="url(#pfb6826d458)">
     <use style="fill-opacity:0.180392;" x="1240.262346" xlink:href="#C0_0_ec5a2da6ef" y="513.514286"/>
    </g>
    <g clip-path="url(#pfb6826d458)">
     <use style="stroke:#000000;" x="1240.262346" xlink:href="#C0_0_ec5a2da6ef" y="469.390909"/>
    </g>
    <g clip-path="url(#pfb6826d458)">
     <use style="stroke:#000000;" x="1240.262346" xlink:href="#C0_0_ec5a2da6ef" y="425.267532"/>
    </g>
    <g clip-path="url(#pfb6826d458)">
     <use style="fill-opacity:0.180392;" x="1277.420782" xlink:href="#C0_0_ec5a2da6ef" y="601.761039"/>
    </g>
    <g clip-path="url(#pfb6826d458)">
     <use style="stroke:#000000;" x="1277.420782" xlink:href="#C0_0_ec5a2da6ef" y="557.637662"/>
    </g>
    <g clip-path="url(#pfb6826d458)">
     <use style="stroke:#000000;" x="1277.420782" xlink:href="#C0_0_ec5a2da6ef" y="513.514286"/>
    </g>
    <g clip-path="url(#pfb6826d458)">
     <use style="stroke:#000000;" x="1277.420782" xlink:href="#C0_0_ec5a2da6ef" y="469.390909"/>
    </g>
    <g clip-path="url(#pfb6826d458)">
     <use style="stroke:#000000;" x="1277.420782" xlink:href="#C0_0_ec5a2da6ef" y="425.267532"/>
    </g>
   </g>
  </g>
  <g id="axes_3">
   <g id="matplotlib.axis_4">
    <g id="xtick_1">
     <g id="line2d_1">
      <path clip-path="url(#pdfe546e655)" d="M 248.581006 630 
L 248.581006 397.028571 
" style="fill:none;stroke:#cccccc;stroke-linecap:round;stroke-width:2;"/>
     </g>
     <g id="text_6">
      <!-- 0 -->
      <g style="fill:#262626;" transform="translate(241.582256 662.216563)scale(0.22 -0.22)">
       <defs>
        <path d="M 31.78125 66.40625 
Q 24.171875 66.40625 20.328125 58.90625 
Q 16.5 51.421875 16.5 36.375 
Q 16.5 21.390625 20.328125 13.890625 
Q 24.171875 6.390625 31.78125 6.390625 
Q 39.453125 6.390625 43.28125 13.890625 
Q 47.125 21.390625 47.125 36.375 
Q 47.125 51.421875 43.28125 58.90625 
Q 39.453125 66.40625 31.78125 66.40625 
z
M 31.78125 74.21875 
Q 44.046875 74.21875 50.515625 64.515625 
Q 56.984375 54.828125 56.984375 36.375 
Q 56.984375 17.96875 50.515625 8.265625 
Q 44.046875 -1.421875 31.78125 -1.421875 
Q 19.53125 -1.421875 13.0625 8.265625 
Q 6.59375 17.96875 6.59375 36.375 
Q 6.59375 54.828125 13.0625 64.515625 
Q 19.53125 74.21875 31.78125 74.21875 
z
" id="DejaVuSans-48"/>
       </defs>
       <use xlink:href="#DejaVuSans-48"/>
      </g>
     </g>
    </g>
    <g id="xtick_2">
     <g id="line2d_2">
      <path clip-path="url(#pdfe546e655)" d="M 214.013966 630 
L 214.013966 397.028571 
" style="fill:none;stroke:#cccccc;stroke-linecap:round;stroke-width:2;"/>
     </g>
     <g id="text_7">
      <!-- 500 -->
      <g style="fill:#262626;" transform="translate(193.017716 662.216563)scale(0.22 -0.22)">
       <defs>
        <path d="M 10.796875 72.90625 
L 49.515625 72.90625 
L 49.515625 64.59375 
L 19.828125 64.59375 
L 19.828125 46.734375 
Q 21.96875 47.46875 24.109375 47.828125 
Q 26.265625 48.1875 28.421875 48.1875 
Q 40.625 48.1875 47.75 41.5 
Q 54.890625 34.8125 54.890625 23.390625 
Q 54.890625 11.625 47.5625 5.09375 
Q 40.234375 -1.421875 26.90625 -1.421875 
Q 22.3125 -1.421875 17.546875 -0.640625 
Q 12.796875 0.140625 7.71875 1.703125 
L 7.71875 11.625 
Q 12.109375 9.234375 16.796875 8.0625 
Q 21.484375 6.890625 26.703125 6.890625 
Q 35.15625 6.890625 40.078125 11.328125 
Q 45.015625 15.765625 45.015625 23.390625 
Q 45.015625 31 40.078125 35.4375 
Q 35.15625 39.890625 26.703125 39.890625 
Q 22.75 39.890625 18.8125 39.015625 
Q 14.890625 38.140625 10.796875 36.28125 
z
" id="DejaVuSans-53"/>
       </defs>
       <use xlink:href="#DejaVuSans-53"/>
       <use x="63.623047" xlink:href="#DejaVuSans-48"/>
       <use x="127.246094" xlink:href="#DejaVuSans-48"/>
      </g>
     </g>
    </g>
   </g>
   <g id="patch_5">
    <path clip-path="url(#pdfe546e655)" d="M 248.581006 612.791883 
L 180 612.791883 
L 180 590.730195 
L 248.581006 590.730195 
z
" style="stroke:#ffffff;stroke-linejoin:miter;stroke-width:2;"/>
   </g>
   <g id="patch_6">
    <path clip-path="url(#pdfe546e655)" d="M 248.581006 568.668506 
L 222.240922 568.668506 
L 222.240922 546.606818 
L 248.581006 546.606818 
z
" style="stroke:#ffffff;stroke-linejoin:miter;stroke-width:2;"/>
   </g>
   <g id="patch_7">
    <path clip-path="url(#pdfe546e655)" d="M 248.581006 524.54513 
L 235.583799 524.54513 
L 235.583799 502.483442 
L 248.581006 502.483442 
z
" style="stroke:#ffffff;stroke-linejoin:miter;stroke-width:2;"/>
   </g>
   <g id="patch_8">
    <path clip-path="url(#pdfe546e655)" d="M 248.581006 480.421753 
L 237.381285 480.421753 
L 237.381285 458.360065 
L 248.581006 458.360065 
z
" style="stroke:#ffffff;stroke-linejoin:miter;stroke-width:2;"/>
   </g>
   <g id="patch_9">
    <path clip-path="url(#pdfe546e655)" d="M 248.581006 436.298377 
L 238.902235 436.298377 
L 238.902235 414.236688 
L 248.581006 414.236688 
z
" style="stroke:#ffffff;stroke-linejoin:miter;stroke-width:2;"/>
   </g>
   <g id="patch_10">
    <path d="M 180 630 
L 248.581006 630 
" style="fill:none;stroke:#262626;stroke-linecap:square;stroke-linejoin:miter;stroke-width:2.5;"/>
   </g>
  </g>
  <g id="axes_4">
   <g id="patch_11">
    <path d="M 367.039106 371.142857 
L 1296 371.142857 
L 1296 86.4 
L 367.039106 86.4 
z
" style="fill:#ffffff;"/>
   </g>
   <g id="matplotlib.axis_5">
    <g id="ytick_11">
     <g id="line2d_3">
      <path clip-path="url(#p3d62172fce)" d="M 367.039106 371.142857 
L 1296 371.142857 
" style="fill:none;stroke:#cccccc;stroke-linecap:round;stroke-width:2;"/>
     </g>
     <g id="text_8">
      <!-- 0 -->
      <g style="fill:#262626;" transform="translate(337.541606 379.501138)scale(0.22 -0.22)">
       <use xlink:href="#DejaVuSans-48"/>
      </g>
     </g>
    </g>
    <g id="ytick_12">
     <g id="line2d_4">
      <path clip-path="url(#p3d62172fce)" d="M 367.039106 307.108932 
L 1296 307.108932 
" style="fill:none;stroke:#cccccc;stroke-linecap:round;stroke-width:2;"/>
     </g>
     <g id="text_9">
      <!-- 200 -->
      <g style="fill:#262626;" transform="translate(309.546606 315.467213)scale(0.22 -0.22)">
       <defs>
        <path d="M 19.1875 8.296875 
L 53.609375 8.296875 
L 53.609375 0 
L 7.328125 0 
L 7.328125 8.296875 
Q 12.9375 14.109375 22.625 23.890625 
Q 32.328125 33.6875 34.8125 36.53125 
Q 39.546875 41.84375 41.421875 45.53125 
Q 43.3125 49.21875 43.3125 52.78125 
Q 43.3125 58.59375 39.234375 62.25 
Q 35.15625 65.921875 28.609375 65.921875 
Q 23.96875 65.921875 18.8125 64.3125 
Q 13.671875 62.703125 7.8125 59.421875 
L 7.8125 69.390625 
Q 13.765625 71.78125 18.9375 73 
Q 24.125 74.21875 28.421875 74.21875 
Q 39.75 74.21875 46.484375 68.546875 
Q 53.21875 62.890625 53.21875 53.421875 
Q 53.21875 48.921875 51.53125 44.890625 
Q 49.859375 40.875 45.40625 35.40625 
Q 44.1875 33.984375 37.640625 27.21875 
Q 31.109375 20.453125 19.1875 8.296875 
z
" id="DejaVuSans-50"/>
       </defs>
       <use xlink:href="#DejaVuSans-50"/>
       <use x="63.623047" xlink:href="#DejaVuSans-48"/>
       <use x="127.246094" xlink:href="#DejaVuSans-48"/>
      </g>
     </g>
    </g>
    <g id="ytick_13">
     <g id="line2d_5">
      <path clip-path="url(#p3d62172fce)" d="M 367.039106 243.075007 
L 1296 243.075007 
" style="fill:none;stroke:#cccccc;stroke-linecap:round;stroke-width:2;"/>
     </g>
     <g id="text_10">
      <!-- 400 -->
      <g style="fill:#262626;" transform="translate(309.546606 251.433288)scale(0.22 -0.22)">
       <defs>
        <path d="M 37.796875 64.3125 
L 12.890625 25.390625 
L 37.796875 25.390625 
z
M 35.203125 72.90625 
L 47.609375 72.90625 
L 47.609375 25.390625 
L 58.015625 25.390625 
L 58.015625 17.1875 
L 47.609375 17.1875 
L 47.609375 0 
L 37.796875 0 
L 37.796875 17.1875 
L 4.890625 17.1875 
L 4.890625 26.703125 
z
" id="DejaVuSans-52"/>
       </defs>
       <use xlink:href="#DejaVuSans-52"/>
       <use x="63.623047" xlink:href="#DejaVuSans-48"/>
       <use x="127.246094" xlink:href="#DejaVuSans-48"/>
      </g>
     </g>
    </g>
    <g id="ytick_14">
     <g id="line2d_6">
      <path clip-path="url(#p3d62172fce)" d="M 367.039106 179.041081 
L 1296 179.041081 
" style="fill:none;stroke:#cccccc;stroke-linecap:round;stroke-width:2;"/>
     </g>
     <g id="text_11">
      <!-- 600 -->
      <g style="fill:#262626;" transform="translate(309.546606 187.399363)scale(0.22 -0.22)">
       <defs>
        <path d="M 33.015625 40.375 
Q 26.375 40.375 22.484375 35.828125 
Q 18.609375 31.296875 18.609375 23.390625 
Q 18.609375 15.53125 22.484375 10.953125 
Q 26.375 6.390625 33.015625 6.390625 
Q 39.65625 6.390625 43.53125 10.953125 
Q 47.40625 15.53125 47.40625 23.390625 
Q 47.40625 31.296875 43.53125 35.828125 
Q 39.65625 40.375 33.015625 40.375 
z
M 52.59375 71.296875 
L 52.59375 62.3125 
Q 48.875 64.0625 45.09375 64.984375 
Q 41.3125 65.921875 37.59375 65.921875 
Q 27.828125 65.921875 22.671875 59.328125 
Q 17.53125 52.734375 16.796875 39.40625 
Q 19.671875 43.65625 24.015625 45.921875 
Q 28.375 48.1875 33.59375 48.1875 
Q 44.578125 48.1875 50.953125 41.515625 
Q 57.328125 34.859375 57.328125 23.390625 
Q 57.328125 12.15625 50.6875 5.359375 
Q 44.046875 -1.421875 33.015625 -1.421875 
Q 20.359375 -1.421875 13.671875 8.265625 
Q 6.984375 17.96875 6.984375 36.375 
Q 6.984375 53.65625 15.1875 63.9375 
Q 23.390625 74.21875 37.203125 74.21875 
Q 40.921875 74.21875 44.703125 73.484375 
Q 48.484375 72.75 52.59375 71.296875 
z
" id="DejaVuSans-54"/>
       </defs>
       <use xlink:href="#DejaVuSans-54"/>
       <use x="63.623047" xlink:href="#DejaVuSans-48"/>
       <use x="127.246094" xlink:href="#DejaVuSans-48"/>
      </g>
     </g>
    </g>
    <g id="ytick_15">
     <g id="line2d_7">
      <path clip-path="url(#p3d62172fce)" d="M 367.039106 115.007156 
L 1296 115.007156 
" style="fill:none;stroke:#cccccc;stroke-linecap:round;stroke-width:2;"/>
     </g>
     <g id="text_12">
      <!-- 800 -->
      <g style="fill:#262626;" transform="translate(309.546606 123.365437)scale(0.22 -0.22)">
       <defs>
        <path d="M 31.78125 34.625 
Q 24.75 34.625 20.71875 30.859375 
Q 16.703125 27.09375 16.703125 20.515625 
Q 16.703125 13.921875 20.71875 10.15625 
Q 24.75 6.390625 31.78125 6.390625 
Q 38.8125 6.390625 42.859375 10.171875 
Q 46.921875 13.96875 46.921875 20.515625 
Q 46.921875 27.09375 42.890625 30.859375 
Q 38.875 34.625 31.78125 34.625 
z
M 21.921875 38.8125 
Q 15.578125 40.375 12.03125 44.71875 
Q 8.5 49.078125 8.5 55.328125 
Q 8.5 64.0625 14.71875 69.140625 
Q 20.953125 74.21875 31.78125 74.21875 
Q 42.671875 74.21875 48.875 69.140625 
Q 55.078125 64.0625 55.078125 55.328125 
Q 55.078125 49.078125 51.53125 44.71875 
Q 48 40.375 41.703125 38.8125 
Q 48.828125 37.15625 52.796875 32.3125 
Q 56.78125 27.484375 56.78125 20.515625 
Q 56.78125 9.90625 50.3125 4.234375 
Q 43.84375 -1.421875 31.78125 -1.421875 
Q 19.734375 -1.421875 13.25 4.234375 
Q 6.78125 9.90625 6.78125 20.515625 
Q 6.78125 27.484375 10.78125 32.3125 
Q 14.796875 37.15625 21.921875 38.8125 
z
M 18.3125 54.390625 
Q 18.3125 48.734375 21.84375 45.5625 
Q 25.390625 42.390625 31.78125 42.390625 
Q 38.140625 42.390625 41.71875 45.5625 
Q 45.3125 48.734375 45.3125 54.390625 
Q 45.3125 60.0625 41.71875 63.234375 
Q 38.140625 66.40625 31.78125 66.40625 
Q 25.390625 66.40625 21.84375 63.234375 
Q 18.3125 60.0625 18.3125 54.390625 
z
" id="DejaVuSans-56"/>
       </defs>
       <use xlink:href="#DejaVuSans-56"/>
       <use x="63.623047" xlink:href="#DejaVuSans-48"/>
       <use x="127.246094" xlink:href="#DejaVuSans-48"/>
      </g>
     </g>
    </g>
    <g id="text_13">
     <!-- Intersection size -->
     <g style="fill:#262626;" transform="translate(300.555356 327.237054)rotate(-90)scale(0.24 -0.24)">
      <defs>
       <path d="M 9.8125 72.90625 
L 19.671875 72.90625 
L 19.671875 0 
L 9.8125 0 
z
" id="DejaVuSans-73"/>
       <path d="M 54.890625 33.015625 
L 54.890625 0 
L 45.90625 0 
L 45.90625 32.71875 
Q 45.90625 40.484375 42.875 44.328125 
Q 39.84375 48.1875 33.796875 48.1875 
Q 26.515625 48.1875 22.3125 43.546875 
Q 18.109375 38.921875 18.109375 30.90625 
L 18.109375 0 
L 9.078125 0 
L 9.078125 54.6875 
L 18.109375 54.6875 
L 18.109375 46.1875 
Q 21.34375 51.125 25.703125 53.5625 
Q 30.078125 56 35.796875 56 
Q 45.21875 56 50.046875 50.171875 
Q 54.890625 44.34375 54.890625 33.015625 
z
" id="DejaVuSans-110"/>
       <path d="M 56.203125 29.59375 
L 56.203125 25.203125 
L 14.890625 25.203125 
Q 15.484375 15.921875 20.484375 11.0625 
Q 25.484375 6.203125 34.421875 6.203125 
Q 39.59375 6.203125 44.453125 7.46875 
Q 49.3125 8.734375 54.109375 11.28125 
L 54.109375 2.78125 
Q 49.265625 0.734375 44.1875 -0.34375 
Q 39.109375 -1.421875 33.890625 -1.421875 
Q 20.796875 -1.421875 13.15625 6.1875 
Q 5.515625 13.8125 5.515625 26.8125 
Q 5.515625 40.234375 12.765625 48.109375 
Q 20.015625 56 32.328125 56 
Q 43.359375 56 49.78125 48.890625 
Q 56.203125 41.796875 56.203125 29.59375 
z
M 47.21875 32.234375 
Q 47.125 39.59375 43.09375 43.984375 
Q 39.0625 48.390625 32.421875 48.390625 
Q 24.90625 48.390625 20.390625 44.140625 
Q 15.875 39.890625 15.1875 32.171875 
z
" id="DejaVuSans-101"/>
       <path d="M 41.109375 46.296875 
Q 39.59375 47.171875 37.8125 47.578125 
Q 36.03125 48 33.890625 48 
Q 26.265625 48 22.1875 43.046875 
Q 18.109375 38.09375 18.109375 28.8125 
L 18.109375 0 
L 9.078125 0 
L 9.078125 54.6875 
L 18.109375 54.6875 
L 18.109375 46.1875 
Q 20.953125 51.171875 25.484375 53.578125 
Q 30.03125 56 36.53125 56 
Q 37.453125 56 38.578125 55.875 
Q 39.703125 55.765625 41.0625 55.515625 
z
" id="DejaVuSans-114"/>
       <path d="M 44.28125 53.078125 
L 44.28125 44.578125 
Q 40.484375 46.53125 36.375 47.5 
Q 32.28125 48.484375 27.875 48.484375 
Q 21.1875 48.484375 17.84375 46.4375 
Q 14.5 44.390625 14.5 40.28125 
Q 14.5 37.15625 16.890625 35.375 
Q 19.28125 33.59375 26.515625 31.984375 
L 29.59375 31.296875 
Q 39.15625 29.25 43.1875 25.515625 
Q 47.21875 21.78125 47.21875 15.09375 
Q 47.21875 7.46875 41.1875 3.015625 
Q 35.15625 -1.421875 24.609375 -1.421875 
Q 20.21875 -1.421875 15.453125 -0.5625 
Q 10.6875 0.296875 5.421875 2 
L 5.421875 11.28125 
Q 10.40625 8.6875 15.234375 7.390625 
Q 20.0625 6.109375 24.8125 6.109375 
Q 31.15625 6.109375 34.5625 8.28125 
Q 37.984375 10.453125 37.984375 14.40625 
Q 37.984375 18.0625 35.515625 20.015625 
Q 33.0625 21.96875 24.703125 23.78125 
L 21.578125 24.515625 
Q 13.234375 26.265625 9.515625 29.90625 
Q 5.8125 33.546875 5.8125 39.890625 
Q 5.8125 47.609375 11.28125 51.796875 
Q 16.75 56 26.8125 56 
Q 31.78125 56 36.171875 55.265625 
Q 40.578125 54.546875 44.28125 53.078125 
z
" id="DejaVuSans-115"/>
       <path d="M 48.78125 52.59375 
L 48.78125 44.1875 
Q 44.96875 46.296875 41.140625 47.34375 
Q 37.3125 48.390625 33.40625 48.390625 
Q 24.65625 48.390625 19.8125 42.84375 
Q 14.984375 37.3125 14.984375 27.296875 
Q 14.984375 17.28125 19.8125 11.734375 
Q 24.65625 6.203125 33.40625 6.203125 
Q 37.3125 6.203125 41.140625 7.25 
Q 44.96875 8.296875 48.78125 10.40625 
L 48.78125 2.09375 
Q 45.015625 0.34375 40.984375 -0.53125 
Q 36.96875 -1.421875 32.421875 -1.421875 
Q 20.0625 -1.421875 12.78125 6.34375 
Q 5.515625 14.109375 5.515625 27.296875 
Q 5.515625 40.671875 12.859375 48.328125 
Q 20.21875 56 33.015625 56 
Q 37.15625 56 41.109375 55.140625 
Q 45.0625 54.296875 48.78125 52.59375 
z
" id="DejaVuSans-99"/>
       <path d="M 9.421875 54.6875 
L 18.40625 54.6875 
L 18.40625 0 
L 9.421875 0 
z
M 9.421875 75.984375 
L 18.40625 75.984375 
L 18.40625 64.59375 
L 9.421875 64.59375 
z
" id="DejaVuSans-105"/>
       <path id="DejaVuSans-32"/>
       <path d="M 5.515625 54.6875 
L 48.1875 54.6875 
L 48.1875 46.484375 
L 14.40625 7.171875 
L 48.1875 7.171875 
L 48.1875 0 
L 4.296875 0 
L 4.296875 8.203125 
L 38.09375 47.515625 
L 5.515625 47.515625 
z
" id="DejaVuSans-122"/>
      </defs>
      <use xlink:href="#DejaVuSans-73"/>
      <use x="29.492188" xlink:href="#DejaVuSans-110"/>
      <use x="92.871094" xlink:href="#DejaVuSans-116"/>
      <use x="132.080078" xlink:href="#DejaVuSans-101"/>
      <use x="193.603516" xlink:href="#DejaVuSans-114"/>
      <use x="234.716797" xlink:href="#DejaVuSans-115"/>
      <use x="286.816406" xlink:href="#DejaVuSans-101"/>
      <use x="348.339844" xlink:href="#DejaVuSans-99"/>
      <use x="403.320312" xlink:href="#DejaVuSans-116"/>
      <use x="442.529297" xlink:href="#DejaVuSans-105"/>
      <use x="470.3125" xlink:href="#DejaVuSans-111"/>
      <use x="531.494141" xlink:href="#DejaVuSans-110"/>
      <use x="594.873047" xlink:href="#DejaVuSans-32"/>
      <use x="626.660156" xlink:href="#DejaVuSans-115"/>
      <use x="678.759766" xlink:href="#DejaVuSans-105"/>
      <use x="706.542969" xlink:href="#DejaVuSans-122"/>
      <use x="759.033203" xlink:href="#DejaVuSans-101"/>
     </g>
    </g>
   </g>
   <g id="patch_12">
    <path d="M 367.039106 371.142857 
L 367.039106 86.4 
" style="fill:none;stroke:#262626;stroke-linecap:square;stroke-linejoin:miter;stroke-width:2.5;"/>
   </g>
   <g id="patch_13">
    <path clip-path="url(#p3d62172fce)" d="M 376.328715 371.142857 
L 394.907933 371.142857 
L 394.907933 99.959184 
L 376.328715 99.959184 
z
" style="stroke:#000000;stroke-linejoin:miter;stroke-width:2;"/>
   </g>
   <g id="patch_14">
    <path clip-path="url(#p3d62172fce)" d="M 413.487151 371.142857 
L 432.066369 371.142857 
L 432.066369 280.534853 
L 413.487151 280.534853 
z
" style="stroke:#000000;stroke-linejoin:miter;stroke-width:2;"/>
   </g>
   <g id="patch_15">
    <path clip-path="url(#p3d62172fce)" d="M 450.645587 371.142857 
L 469.224804 371.142857 
L 469.224804 328.240127 
L 450.645587 328.240127 
z
" style="stroke:#000000;stroke-linejoin:miter;stroke-width:2;"/>
   </g>
   <g id="patch_16">
    <path clip-path="url(#p3d62172fce)" d="M 487.804022 371.142857 
L 506.38324 371.142857 
L 506.38324 342.327591 
L 487.804022 342.327591 
z
" style="stroke:#000000;stroke-linejoin:miter;stroke-width:2;"/>
   </g>
   <g id="patch_17">
    <path clip-path="url(#p3d62172fce)" d="M 524.962458 371.142857 
L 543.541676 371.142857 
L 543.541676 347.770474 
L 524.962458 347.770474 
z
" style="stroke:#000000;stroke-linejoin:miter;stroke-width:2;"/>
   </g>
   <g id="patch_18">
    <path clip-path="url(#p3d62172fce)" d="M 562.120894 371.142857 
L 580.700112 371.142857 
L 580.700112 358.656242 
L 562.120894 358.656242 
z
" style="stroke:#000000;stroke-linejoin:miter;stroke-width:2;"/>
   </g>
   <g id="patch_19">
    <path clip-path="url(#p3d62172fce)" d="M 599.27933 371.142857 
L 617.858547 371.142857 
L 617.858547 359.296581 
L 599.27933 359.296581 
z
" style="stroke:#000000;stroke-linejoin:miter;stroke-width:2;"/>
   </g>
   <g id="patch_20">
    <path clip-path="url(#p3d62172fce)" d="M 636.437765 371.142857 
L 655.016983 371.142857 
L 655.016983 362.818447 
L 636.437765 362.818447 
z
" style="stroke:#000000;stroke-linejoin:miter;stroke-width:2;"/>
   </g>
   <g id="patch_21">
    <path clip-path="url(#p3d62172fce)" d="M 673.596201 371.142857 
L 692.175419 371.142857 
L 692.175419 363.458786 
L 673.596201 363.458786 
z
" style="stroke:#000000;stroke-linejoin:miter;stroke-width:2;"/>
   </g>
   <g id="patch_22">
    <path clip-path="url(#p3d62172fce)" d="M 710.754637 371.142857 
L 729.333855 371.142857 
L 729.333855 363.778956 
L 710.754637 363.778956 
z
" style="stroke:#000000;stroke-linejoin:miter;stroke-width:2;"/>
   </g>
   <g id="patch_23">
    <path clip-path="url(#p3d62172fce)" d="M 747.913073 371.142857 
L 766.492291 371.142857 
L 766.492291 366.340313 
L 747.913073 366.340313 
z
" style="stroke:#000000;stroke-linejoin:miter;stroke-width:2;"/>
   </g>
   <g id="patch_24">
    <path clip-path="url(#p3d62172fce)" d="M 785.071508 371.142857 
L 803.650726 371.142857 
L 803.650726 368.261331 
L 785.071508 368.261331 
z
" style="stroke:#000000;stroke-linejoin:miter;stroke-width:2;"/>
   </g>
   <g id="patch_25">
    <path clip-path="url(#p3d62172fce)" d="M 822.229944 371.142857 
L 840.809162 371.142857 
L 840.809162 369.542009 
L 822.229944 369.542009 
z
" style="stroke:#000000;stroke-linejoin:miter;stroke-width:2;"/>
   </g>
   <g id="patch_26">
    <path clip-path="url(#p3d62172fce)" d="M 859.38838 371.142857 
L 877.967598 371.142857 
L 877.967598 369.862179 
L 859.38838 369.862179 
z
" style="stroke:#000000;stroke-linejoin:miter;stroke-width:2;"/>
   </g>
   <g id="patch_27">
    <path clip-path="url(#p3d62172fce)" d="M 896.546816 371.142857 
L 915.126034 371.142857 
L 915.126034 370.182348 
L 896.546816 370.182348 
z
" style="stroke:#000000;stroke-linejoin:miter;stroke-width:2;"/>
   </g>
   <g id="patch_28">
    <path clip-path="url(#p3d62172fce)" d="M 933.705251 371.142857 
L 952.284469 371.142857 
L 952.284469 370.182348 
L 933.705251 370.182348 
z
" style="stroke:#000000;stroke-linejoin:miter;stroke-width:2;"/>
   </g>
   <g id="patch_29">
    <path clip-path="url(#p3d62172fce)" d="M 970.863687 371.142857 
L 989.442905 371.142857 
L 989.442905 370.182348 
L 970.863687 370.182348 
z
" style="stroke:#000000;stroke-linejoin:miter;stroke-width:2;"/>
   </g>
   <g id="patch_30">
    <path clip-path="url(#p3d62172fce)" d="M 1008.022123 371.142857 
L 1026.601341 371.142857 
L 1026.601341 370.502518 
L 1008.022123 370.502518 
z
" style="stroke:#000000;stroke-linejoin:miter;stroke-width:2;"/>
   </g>
   <g id="patch_31">
    <path clip-path="url(#p3d62172fce)" d="M 1045.180559 371.142857 
L 1063.759777 371.142857 
L 1063.759777 370.502518 
L 1045.180559 370.502518 
z
" style="stroke:#000000;stroke-linejoin:miter;stroke-width:2;"/>
   </g>
   <g id="patch_32">
    <path clip-path="url(#p3d62172fce)" d="M 1082.338994 371.142857 
L 1100.918212 371.142857 
L 1100.918212 370.502518 
L 1082.338994 370.502518 
z
" style="stroke:#000000;stroke-linejoin:miter;stroke-width:2;"/>
   </g>
   <g id="patch_33">
    <path clip-path="url(#p3d62172fce)" d="M 1119.49743 371.142857 
L 1138.076648 371.142857 
L 1138.076648 370.502518 
L 1119.49743 370.502518 
z
" style="stroke:#000000;stroke-linejoin:miter;stroke-width:2;"/>
   </g>
   <g id="patch_34">
    <path clip-path="url(#p3d62172fce)" d="M 1156.655866 371.142857 
L 1175.235084 371.142857 
L 1175.235084 370.502518 
L 1156.655866 370.502518 
z
" style="stroke:#000000;stroke-linejoin:miter;stroke-width:2;"/>
   </g>
   <g id="patch_35">
    <path clip-path="url(#p3d62172fce)" d="M 1193.814302 371.142857 
L 1212.39352 371.142857 
L 1212.39352 370.502518 
L 1193.814302 370.502518 
z
" style="stroke:#000000;stroke-linejoin:miter;stroke-width:2;"/>
   </g>
   <g id="patch_36">
    <path clip-path="url(#p3d62172fce)" d="M 1230.972737 371.142857 
L 1249.551955 371.142857 
L 1249.551955 370.822688 
L 1230.972737 370.822688 
z
" style="stroke:#000000;stroke-linejoin:miter;stroke-width:2;"/>
   </g>
   <g id="patch_37">
    <path clip-path="url(#p3d62172fce)" d="M 1268.131173 371.142857 
L 1286.710391 371.142857 
L 1286.710391 370.822688 
L 1268.131173 370.822688 
z
" style="stroke:#000000;stroke-linejoin:miter;stroke-width:2;"/>
   </g>
  </g>
 </g>
 <defs>
  <clipPath id="p6c8cb3657e">
   <rect height="232.971429" width="1116" x="180" y="397.028571"/>
  </clipPath>
  <clipPath id="pfb6826d458">
   <rect height="232.971429" width="928.960894" x="367.039106" y="397.028571"/>
  </clipPath>
  <clipPath id="pdfe546e655">
   <rect height="232.971429" width="68.581006" x="180" y="397.028571"/>
  </clipPath>
  <clipPath id="p3d62172fce">
   <rect height="284.742857" width="928.960894" x="367.039106" y="86.4"/>
  </clipPath>
 </defs>
</svg>
