<?xml version="1.0" encoding="utf-8" standalone="no"?>
<!DOCTYPE svg PUBLIC "-//W3C//DTD SVG 1.1//EN"
  "http://www.w3.org/Graphics/SVG/1.1/DTD/svg11.dtd">
<!-- Created with matplotlib (https://matplotlib.org/) -->
<svg height="720pt" version="1.1" viewBox="0 0 1440 720" width="1440pt" xmlns="http://www.w3.org/2000/svg" xmlns:xlink="http://www.w3.org/1999/xlink">
 <metadata>
  <rdf:RDF xmlns:cc="http://creativecommons.org/ns#" xmlns:dc="http://purl.org/dc/elements/1.1/" xmlns:rdf="http://www.w3.org/1999/02/22-rdf-syntax-ns#">
   <cc:Work>
    <dc:type rdf:resource="http://purl.org/dc/dcmitype/StillImage"/>
    <dc:date>2023-01-11T09:24:09.277188</dc:date>
    <dc:format>image/svg+xml</dc:format>
    <dc:creator>
     <cc:Agent>
      <dc:title>Matplotlib v3.3.4, https://matplotlib.org/</dc:title>
     </cc:Agent>
    </dc:creator>
   </cc:Work>
  </rdf:RDF>
 </metadata>
 <defs>
  <style type="text/css">*{stroke-linecap:butt;stroke-linejoin:round;}</style>
 </defs>
 <g id="figure_1">
  <g id="patch_1">
   <path d="M 0 720 
L 1440 720 
L 1440 0 
L 0 0 
z
" style="fill:#ffffff;"/>
  </g>
  <g id="axes_1">
   <g id="patch_2">
    <path clip-path="url(#pbb10628ac5)" d="M 180 619.41039 
L 1296 619.41039 
L 1296 584.111688 
L 180 584.111688 
z
" style="fill-opacity:0.05098;"/>
   </g>
   <g id="patch_3">
    <path clip-path="url(#pbb10628ac5)" d="M 180 531.163636 
L 1296 531.163636 
L 1296 495.864935 
L 180 495.864935 
z
" style="fill-opacity:0.05098;"/>
   </g>
   <g id="patch_4">
    <path clip-path="url(#pbb10628ac5)" d="M 180 442.916883 
L 1296 442.916883 
L 1296 407.618182 
L 180 407.618182 
z
" style="fill-opacity:0.05098;"/>
   </g>
   <g id="matplotlib.axis_1"/>
   <g id="matplotlib.axis_2">
    <g id="ytick_1"/>
    <g id="ytick_2"/>
    <g id="ytick_3"/>
    <g id="ytick_4"/>
    <g id="ytick_5"/>
   </g>
  </g>
  <g id="axes_2">
   <g id="matplotlib.axis_3">
    <g id="ytick_6">
     <g id="text_1">
      <!-- EAS_out -->
      <g style="fill:#262626;" transform="translate(267.527348 609.925101)scale(0.22 -0.22)">
       <defs>
        <path d="M 9.8125 72.90625 
L 55.90625 72.90625 
L 55.90625 64.59375 
L 19.671875 64.59375 
L 19.671875 43.015625 
L 54.390625 43.015625 
L 54.390625 34.71875 
L 19.671875 34.71875 
L 19.671875 8.296875 
L 56.78125 8.296875 
L 56.78125 0 
L 9.8125 0 
z
" id="DejaVuSans-69"/>
        <path d="M 34.1875 63.1875 
L 20.796875 26.90625 
L 47.609375 26.90625 
z
M 28.609375 72.90625 
L 39.796875 72.90625 
L 67.578125 0 
L 57.328125 0 
L 50.6875 18.703125 
L 17.828125 18.703125 
L 11.1875 0 
L 0.78125 0 
z
" id="DejaVuSans-65"/>
        <path d="M 53.515625 70.515625 
L 53.515625 60.890625 
Q 47.90625 63.578125 42.921875 64.890625 
Q 37.9375 66.21875 33.296875 66.21875 
Q 25.25 66.21875 20.875 63.09375 
Q 16.5 59.96875 16.5 54.203125 
Q 16.5 49.359375 19.40625 46.890625 
Q 22.3125 44.4375 30.421875 42.921875 
L 36.375 41.703125 
Q 47.40625 39.59375 52.65625 34.296875 
Q 57.90625 29 57.90625 20.125 
Q 57.90625 9.515625 50.796875 4.046875 
Q 43.703125 -1.421875 29.984375 -1.421875 
Q 24.8125 -1.421875 18.96875 -0.25 
Q 13.140625 0.921875 6.890625 3.21875 
L 6.890625 13.375 
Q 12.890625 10.015625 18.65625 8.296875 
Q 24.421875 6.59375 29.984375 6.59375 
Q 38.421875 6.59375 43.015625 9.90625 
Q 47.609375 13.234375 47.609375 19.390625 
Q 47.609375 24.75 44.3125 27.78125 
Q 41.015625 30.8125 33.5 32.328125 
L 27.484375 33.5 
Q 16.453125 35.6875 11.515625 40.375 
Q 6.59375 45.0625 6.59375 53.421875 
Q 6.59375 63.09375 13.40625 68.65625 
Q 20.21875 74.21875 32.171875 74.21875 
Q 37.3125 74.21875 42.625 73.28125 
Q 47.953125 72.359375 53.515625 70.515625 
z
" id="DejaVuSans-83"/>
        <path d="M 50.984375 -16.609375 
L 50.984375 -23.578125 
L -0.984375 -23.578125 
L -0.984375 -16.609375 
z
" id="DejaVuSans-95"/>
        <path d="M 30.609375 48.390625 
Q 23.390625 48.390625 19.1875 42.75 
Q 14.984375 37.109375 14.984375 27.296875 
Q 14.984375 17.484375 19.15625 11.84375 
Q 23.34375 6.203125 30.609375 6.203125 
Q 37.796875 6.203125 41.984375 11.859375 
Q 46.1875 17.53125 46.1875 27.296875 
Q 46.1875 37.015625 41.984375 42.703125 
Q 37.796875 48.390625 30.609375 48.390625 
z
M 30.609375 56 
Q 42.328125 56 49.015625 48.375 
Q 55.71875 40.765625 55.71875 27.296875 
Q 55.71875 13.875 49.015625 6.21875 
Q 42.328125 -1.421875 30.609375 -1.421875 
Q 18.84375 -1.421875 12.171875 6.21875 
Q 5.515625 13.875 5.515625 27.296875 
Q 5.515625 40.765625 12.171875 48.375 
Q 18.84375 56 30.609375 56 
z
" id="DejaVuSans-111"/>
        <path d="M 8.5 21.578125 
L 8.5 54.6875 
L 17.484375 54.6875 
L 17.484375 21.921875 
Q 17.484375 14.15625 20.5 10.265625 
Q 23.53125 6.390625 29.59375 6.390625 
Q 36.859375 6.390625 41.078125 11.03125 
Q 45.3125 15.671875 45.3125 23.6875 
L 45.3125 54.6875 
L 54.296875 54.6875 
L 54.296875 0 
L 45.3125 0 
L 45.3125 8.40625 
Q 42.046875 3.421875 37.71875 1 
Q 33.40625 -1.421875 27.6875 -1.421875 
Q 18.265625 -1.421875 13.375 4.4375 
Q 8.5 10.296875 8.5 21.578125 
z
M 31.109375 56 
z
" id="DejaVuSans-117"/>
        <path d="M 18.3125 70.21875 
L 18.3125 54.6875 
L 36.8125 54.6875 
L 36.8125 47.703125 
L 18.3125 47.703125 
L 18.3125 18.015625 
Q 18.3125 11.328125 20.140625 9.421875 
Q 21.96875 7.515625 27.59375 7.515625 
L 36.8125 7.515625 
L 36.8125 0 
L 27.59375 0 
Q 17.1875 0 13.234375 3.875 
Q 9.28125 7.765625 9.28125 18.015625 
L 9.28125 47.703125 
L 2.6875 47.703125 
L 2.6875 54.6875 
L 9.28125 54.6875 
L 9.28125 70.21875 
z
" id="DejaVuSans-116"/>
       </defs>
       <use xlink:href="#DejaVuSans-69"/>
       <use x="63.183594" xlink:href="#DejaVuSans-65"/>
       <use x="131.591797" xlink:href="#DejaVuSans-83"/>
       <use x="195.068359" xlink:href="#DejaVuSans-95"/>
       <use x="245.068359" xlink:href="#DejaVuSans-111"/>
       <use x="306.25" xlink:href="#DejaVuSans-117"/>
       <use x="369.628906" xlink:href="#DejaVuSans-116"/>
      </g>
     </g>
    </g>
    <g id="ytick_7">
     <g id="text_2">
      <!-- EUR_out -->
      <g style="fill:#262626;" transform="translate(265.155473 565.690006)scale(0.22 -0.22)">
       <defs>
        <path d="M 8.6875 72.90625 
L 18.609375 72.90625 
L 18.609375 28.609375 
Q 18.609375 16.890625 22.84375 11.734375 
Q 27.09375 6.59375 36.625 6.59375 
Q 46.09375 6.59375 50.34375 11.734375 
Q 54.59375 16.890625 54.59375 28.609375 
L 54.59375 72.90625 
L 64.5 72.90625 
L 64.5 27.390625 
Q 64.5 13.140625 57.4375 5.859375 
Q 50.390625 -1.421875 36.625 -1.421875 
Q 22.796875 -1.421875 15.734375 5.859375 
Q 8.6875 13.140625 8.6875 27.390625 
z
" id="DejaVuSans-85"/>
        <path d="M 44.390625 34.1875 
Q 47.5625 33.109375 50.5625 29.59375 
Q 53.5625 26.078125 56.59375 19.921875 
L 66.609375 0 
L 56 0 
L 46.6875 18.703125 
Q 43.0625 26.03125 39.671875 28.421875 
Q 36.28125 30.8125 30.421875 30.8125 
L 19.671875 30.8125 
L 19.671875 0 
L 9.8125 0 
L 9.8125 72.90625 
L 32.078125 72.90625 
Q 44.578125 72.90625 50.734375 67.671875 
Q 56.890625 62.453125 56.890625 51.90625 
Q 56.890625 45.015625 53.6875 40.46875 
Q 50.484375 35.9375 44.390625 34.1875 
z
M 19.671875 64.796875 
L 19.671875 38.921875 
L 32.078125 38.921875 
Q 39.203125 38.921875 42.84375 42.21875 
Q 46.484375 45.515625 46.484375 51.90625 
Q 46.484375 58.296875 42.84375 61.546875 
Q 39.203125 64.796875 32.078125 64.796875 
z
" id="DejaVuSans-82"/>
       </defs>
       <use xlink:href="#DejaVuSans-69"/>
       <use x="63.183594" xlink:href="#DejaVuSans-85"/>
       <use x="136.376953" xlink:href="#DejaVuSans-82"/>
       <use x="205.859375" xlink:href="#DejaVuSans-95"/>
       <use x="255.859375" xlink:href="#DejaVuSans-111"/>
       <use x="317.041016" xlink:href="#DejaVuSans-117"/>
       <use x="380.419922" xlink:href="#DejaVuSans-116"/>
      </g>
     </g>
    </g>
    <g id="ytick_8">
     <g id="text_3">
      <!-- AMR_out -->
      <g style="fill:#262626;" transform="translate(261.126723 521.566629)scale(0.22 -0.22)">
       <defs>
        <path d="M 9.8125 72.90625 
L 24.515625 72.90625 
L 43.109375 23.296875 
L 61.8125 72.90625 
L 76.515625 72.90625 
L 76.515625 0 
L 66.890625 0 
L 66.890625 64.015625 
L 48.09375 14.015625 
L 38.1875 14.015625 
L 19.390625 64.015625 
L 19.390625 0 
L 9.8125 0 
z
" id="DejaVuSans-77"/>
       </defs>
       <use xlink:href="#DejaVuSans-65"/>
       <use x="68.408203" xlink:href="#DejaVuSans-77"/>
       <use x="154.6875" xlink:href="#DejaVuSans-82"/>
       <use x="224.169922" xlink:href="#DejaVuSans-95"/>
       <use x="274.169922" xlink:href="#DejaVuSans-111"/>
       <use x="335.351562" xlink:href="#DejaVuSans-117"/>
       <use x="398.730469" xlink:href="#DejaVuSans-116"/>
      </g>
     </g>
    </g>
    <g id="ytick_9">
     <g id="text_4">
      <!-- SAS_out -->
      <g style="fill:#262626;" transform="translate(267.049535 477.554972)scale(0.22 -0.22)">
       <use xlink:href="#DejaVuSans-83"/>
       <use x="65.351562" xlink:href="#DejaVuSans-65"/>
       <use x="133.759766" xlink:href="#DejaVuSans-83"/>
       <use x="197.236328" xlink:href="#DejaVuSans-95"/>
       <use x="247.236328" xlink:href="#DejaVuSans-111"/>
       <use x="308.417969" xlink:href="#DejaVuSans-117"/>
       <use x="371.796875" xlink:href="#DejaVuSans-116"/>
      </g>
     </g>
    </g>
    <g id="ytick_10">
     <g id="text_5">
      <!-- AFR_out -->
      <g style="fill:#262626;" transform="translate(267.45516 433.319876)scale(0.22 -0.22)">
       <defs>
        <path d="M 9.8125 72.90625 
L 51.703125 72.90625 
L 51.703125 64.59375 
L 19.671875 64.59375 
L 19.671875 43.109375 
L 48.578125 43.109375 
L 48.578125 34.8125 
L 19.671875 34.8125 
L 19.671875 0 
L 9.8125 0 
z
" id="DejaVuSans-70"/>
       </defs>
       <use xlink:href="#DejaVuSans-65"/>
       <use x="68.408203" xlink:href="#DejaVuSans-70"/>
       <use x="125.927734" xlink:href="#DejaVuSans-82"/>
       <use x="195.410156" xlink:href="#DejaVuSans-95"/>
       <use x="245.410156" xlink:href="#DejaVuSans-111"/>
       <use x="306.591797" xlink:href="#DejaVuSans-117"/>
       <use x="369.970703" xlink:href="#DejaVuSans-116"/>
      </g>
     </g>
    </g>
   </g>
   <g id="LineCollection_1">
    <path clip-path="url(#p2c0f693828)" d="M 378.954262 601.761039 
L 378.954262 601.761039 
" style="fill:none;stroke:#000000;stroke-width:2;"/>
    <path clip-path="url(#p2c0f693828)" d="M 414.91684 557.637662 
L 414.91684 557.637662 
" style="fill:none;stroke:#000000;stroke-width:2;"/>
    <path clip-path="url(#p2c0f693828)" d="M 450.879418 513.514286 
L 450.879418 513.514286 
" style="fill:none;stroke:#000000;stroke-width:2;"/>
    <path clip-path="url(#p2c0f693828)" d="M 486.841996 469.390909 
L 486.841996 469.390909 
" style="fill:none;stroke:#000000;stroke-width:2;"/>
    <path clip-path="url(#p2c0f693828)" d="M 522.804574 425.267532 
L 522.804574 425.267532 
" style="fill:none;stroke:#000000;stroke-width:2;"/>
    <path clip-path="url(#p2c0f693828)" d="M 558.767152 601.761039 
L 558.767152 425.267532 
" style="fill:none;stroke:#000000;stroke-width:2;"/>
    <path clip-path="url(#p2c0f693828)" d="M 594.72973 601.761039 
L 594.72973 469.390909 
" style="fill:none;stroke:#000000;stroke-width:2;"/>
    <path clip-path="url(#p2c0f693828)" d="M 630.692308 601.761039 
L 630.692308 557.637662 
" style="fill:none;stroke:#000000;stroke-width:2;"/>
    <path clip-path="url(#p2c0f693828)" d="M 666.654886 557.637662 
L 666.654886 469.390909 
" style="fill:none;stroke:#000000;stroke-width:2;"/>
    <path clip-path="url(#p2c0f693828)" d="M 702.617464 557.637662 
L 702.617464 513.514286 
" style="fill:none;stroke:#000000;stroke-width:2;"/>
    <path clip-path="url(#p2c0f693828)" d="M 738.580042 557.637662 
L 738.580042 425.267532 
" style="fill:none;stroke:#000000;stroke-width:2;"/>
    <path clip-path="url(#p2c0f693828)" d="M 774.54262 601.761039 
L 774.54262 513.514286 
" style="fill:none;stroke:#000000;stroke-width:2;"/>
    <path clip-path="url(#p2c0f693828)" d="M 810.505198 601.761039 
L 810.505198 425.267532 
" style="fill:none;stroke:#000000;stroke-width:2;"/>
    <path clip-path="url(#p2c0f693828)" d="M 846.467775 469.390909 
L 846.467775 425.267532 
" style="fill:none;stroke:#000000;stroke-width:2;"/>
    <path clip-path="url(#p2c0f693828)" d="M 882.430353 601.761039 
L 882.430353 513.514286 
" style="fill:none;stroke:#000000;stroke-width:2;"/>
    <path clip-path="url(#p2c0f693828)" d="M 918.392931 513.514286 
L 918.392931 469.390909 
" style="fill:none;stroke:#000000;stroke-width:2;"/>
    <path clip-path="url(#p2c0f693828)" d="M 954.355509 557.637662 
L 954.355509 469.390909 
" style="fill:none;stroke:#000000;stroke-width:2;"/>
    <path clip-path="url(#p2c0f693828)" d="M 990.318087 601.761039 
L 990.318087 469.390909 
" style="fill:none;stroke:#000000;stroke-width:2;"/>
    <path clip-path="url(#p2c0f693828)" d="M 1026.280665 557.637662 
L 1026.280665 425.267532 
" style="fill:none;stroke:#000000;stroke-width:2;"/>
    <path clip-path="url(#p2c0f693828)" d="M 1062.243243 513.514286 
L 1062.243243 425.267532 
" style="fill:none;stroke:#000000;stroke-width:2;"/>
    <path clip-path="url(#p2c0f693828)" d="M 1098.205821 557.637662 
L 1098.205821 425.267532 
" style="fill:none;stroke:#000000;stroke-width:2;"/>
    <path clip-path="url(#p2c0f693828)" d="M 1134.168399 601.761039 
L 1134.168399 425.267532 
" style="fill:none;stroke:#000000;stroke-width:2;"/>
    <path clip-path="url(#p2c0f693828)" d="M 1170.130977 601.761039 
L 1170.130977 425.267532 
" style="fill:none;stroke:#000000;stroke-width:2;"/>
    <path clip-path="url(#p2c0f693828)" d="M 1206.093555 601.761039 
L 1206.093555 425.267532 
" style="fill:none;stroke:#000000;stroke-width:2;"/>
    <path clip-path="url(#p2c0f693828)" d="M 1242.056133 513.514286 
L 1242.056133 425.267532 
" style="fill:none;stroke:#000000;stroke-width:2;"/>
    <path clip-path="url(#p2c0f693828)" d="M 1278.018711 601.761039 
L 1278.018711 425.267532 
" style="fill:none;stroke:#000000;stroke-width:2;"/>
   </g>
   <g id="PathCollection_1">
    <defs>
     <path d="M 0 7.071068 
C 1.875269 7.071068 3.673985 6.326016 5 5 
C 6.326016 3.673985 7.071068 1.875269 7.071068 -0 
C 7.071068 -1.875269 6.326016 -3.673985 5 -5 
C 3.673985 -6.326016 1.875269 -7.071068 0 -7.071068 
C -1.875269 -7.071068 -3.673985 -6.326016 -5 -5 
C -6.326016 -3.673985 -7.071068 -1.875269 -7.071068 0 
C -7.071068 1.875269 -6.326016 3.673985 -5 5 
C -3.673985 6.326016 -1.875269 7.071068 0 7.071068 
z
" id="C0_0_c94d279491"/>
    </defs>
    <g clip-path="url(#p2c0f693828)">
     <use style="stroke:#000000;" x="378.954262" xlink:href="#C0_0_c94d279491" y="601.761039"/>
    </g>
    <g clip-path="url(#p2c0f693828)">
     <use style="fill-opacity:0.180392;" x="378.954262" xlink:href="#C0_0_c94d279491" y="557.637662"/>
    </g>
    <g clip-path="url(#p2c0f693828)">
     <use style="fill-opacity:0.180392;" x="378.954262" xlink:href="#C0_0_c94d279491" y="513.514286"/>
    </g>
    <g clip-path="url(#p2c0f693828)">
     <use style="fill-opacity:0.180392;" x="378.954262" xlink:href="#C0_0_c94d279491" y="469.390909"/>
    </g>
    <g clip-path="url(#p2c0f693828)">
     <use style="fill-opacity:0.180392;" x="378.954262" xlink:href="#C0_0_c94d279491" y="425.267532"/>
    </g>
    <g clip-path="url(#p2c0f693828)">
     <use style="fill-opacity:0.180392;" x="414.91684" xlink:href="#C0_0_c94d279491" y="601.761039"/>
    </g>
    <g clip-path="url(#p2c0f693828)">
     <use style="stroke:#000000;" x="414.91684" xlink:href="#C0_0_c94d279491" y="557.637662"/>
    </g>
    <g clip-path="url(#p2c0f693828)">
     <use style="fill-opacity:0.180392;" x="414.91684" xlink:href="#C0_0_c94d279491" y="513.514286"/>
    </g>
    <g clip-path="url(#p2c0f693828)">
     <use style="fill-opacity:0.180392;" x="414.91684" xlink:href="#C0_0_c94d279491" y="469.390909"/>
    </g>
    <g clip-path="url(#p2c0f693828)">
     <use style="fill-opacity:0.180392;" x="414.91684" xlink:href="#C0_0_c94d279491" y="425.267532"/>
    </g>
    <g clip-path="url(#p2c0f693828)">
     <use style="fill-opacity:0.180392;" x="450.879418" xlink:href="#C0_0_c94d279491" y="601.761039"/>
    </g>
    <g clip-path="url(#p2c0f693828)">
     <use style="fill-opacity:0.180392;" x="450.879418" xlink:href="#C0_0_c94d279491" y="557.637662"/>
    </g>
    <g clip-path="url(#p2c0f693828)">
     <use style="stroke:#000000;" x="450.879418" xlink:href="#C0_0_c94d279491" y="513.514286"/>
    </g>
    <g clip-path="url(#p2c0f693828)">
     <use style="fill-opacity:0.180392;" x="450.879418" xlink:href="#C0_0_c94d279491" y="469.390909"/>
    </g>
    <g clip-path="url(#p2c0f693828)">
     <use style="fill-opacity:0.180392;" x="450.879418" xlink:href="#C0_0_c94d279491" y="425.267532"/>
    </g>
    <g clip-path="url(#p2c0f693828)">
     <use style="fill-opacity:0.180392;" x="486.841996" xlink:href="#C0_0_c94d279491" y="601.761039"/>
    </g>
    <g clip-path="url(#p2c0f693828)">
     <use style="fill-opacity:0.180392;" x="486.841996" xlink:href="#C0_0_c94d279491" y="557.637662"/>
    </g>
    <g clip-path="url(#p2c0f693828)">
     <use style="fill-opacity:0.180392;" x="486.841996" xlink:href="#C0_0_c94d279491" y="513.514286"/>
    </g>
    <g clip-path="url(#p2c0f693828)">
     <use style="stroke:#000000;" x="486.841996" xlink:href="#C0_0_c94d279491" y="469.390909"/>
    </g>
    <g clip-path="url(#p2c0f693828)">
     <use style="fill-opacity:0.180392;" x="486.841996" xlink:href="#C0_0_c94d279491" y="425.267532"/>
    </g>
    <g clip-path="url(#p2c0f693828)">
     <use style="fill-opacity:0.180392;" x="522.804574" xlink:href="#C0_0_c94d279491" y="601.761039"/>
    </g>
    <g clip-path="url(#p2c0f693828)">
     <use style="fill-opacity:0.180392;" x="522.804574" xlink:href="#C0_0_c94d279491" y="557.637662"/>
    </g>
    <g clip-path="url(#p2c0f693828)">
     <use style="fill-opacity:0.180392;" x="522.804574" xlink:href="#C0_0_c94d279491" y="513.514286"/>
    </g>
    <g clip-path="url(#p2c0f693828)">
     <use style="fill-opacity:0.180392;" x="522.804574" xlink:href="#C0_0_c94d279491" y="469.390909"/>
    </g>
    <g clip-path="url(#p2c0f693828)">
     <use style="stroke:#000000;" x="522.804574" xlink:href="#C0_0_c94d279491" y="425.267532"/>
    </g>
    <g clip-path="url(#p2c0f693828)">
     <use style="stroke:#000000;" x="558.767152" xlink:href="#C0_0_c94d279491" y="601.761039"/>
    </g>
    <g clip-path="url(#p2c0f693828)">
     <use style="fill-opacity:0.180392;" x="558.767152" xlink:href="#C0_0_c94d279491" y="557.637662"/>
    </g>
    <g clip-path="url(#p2c0f693828)">
     <use style="fill-opacity:0.180392;" x="558.767152" xlink:href="#C0_0_c94d279491" y="513.514286"/>
    </g>
    <g clip-path="url(#p2c0f693828)">
     <use style="fill-opacity:0.180392;" x="558.767152" xlink:href="#C0_0_c94d279491" y="469.390909"/>
    </g>
    <g clip-path="url(#p2c0f693828)">
     <use style="stroke:#000000;" x="558.767152" xlink:href="#C0_0_c94d279491" y="425.267532"/>
    </g>
    <g clip-path="url(#p2c0f693828)">
     <use style="stroke:#000000;" x="594.72973" xlink:href="#C0_0_c94d279491" y="601.761039"/>
    </g>
    <g clip-path="url(#p2c0f693828)">
     <use style="fill-opacity:0.180392;" x="594.72973" xlink:href="#C0_0_c94d279491" y="557.637662"/>
    </g>
    <g clip-path="url(#p2c0f693828)">
     <use style="fill-opacity:0.180392;" x="594.72973" xlink:href="#C0_0_c94d279491" y="513.514286"/>
    </g>
    <g clip-path="url(#p2c0f693828)">
     <use style="stroke:#000000;" x="594.72973" xlink:href="#C0_0_c94d279491" y="469.390909"/>
    </g>
    <g clip-path="url(#p2c0f693828)">
     <use style="fill-opacity:0.180392;" x="594.72973" xlink:href="#C0_0_c94d279491" y="425.267532"/>
    </g>
    <g clip-path="url(#p2c0f693828)">
     <use style="stroke:#000000;" x="630.692308" xlink:href="#C0_0_c94d279491" y="601.761039"/>
    </g>
    <g clip-path="url(#p2c0f693828)">
     <use style="stroke:#000000;" x="630.692308" xlink:href="#C0_0_c94d279491" y="557.637662"/>
    </g>
    <g clip-path="url(#p2c0f693828)">
     <use style="fill-opacity:0.180392;" x="630.692308" xlink:href="#C0_0_c94d279491" y="513.514286"/>
    </g>
    <g clip-path="url(#p2c0f693828)">
     <use style="fill-opacity:0.180392;" x="630.692308" xlink:href="#C0_0_c94d279491" y="469.390909"/>
    </g>
    <g clip-path="url(#p2c0f693828)">
     <use style="fill-opacity:0.180392;" x="630.692308" xlink:href="#C0_0_c94d279491" y="425.267532"/>
    </g>
    <g clip-path="url(#p2c0f693828)">
     <use style="fill-opacity:0.180392;" x="666.654886" xlink:href="#C0_0_c94d279491" y="601.761039"/>
    </g>
    <g clip-path="url(#p2c0f693828)">
     <use style="stroke:#000000;" x="666.654886" xlink:href="#C0_0_c94d279491" y="557.637662"/>
    </g>
    <g clip-path="url(#p2c0f693828)">
     <use style="fill-opacity:0.180392;" x="666.654886" xlink:href="#C0_0_c94d279491" y="513.514286"/>
    </g>
    <g clip-path="url(#p2c0f693828)">
     <use style="stroke:#000000;" x="666.654886" xlink:href="#C0_0_c94d279491" y="469.390909"/>
    </g>
    <g clip-path="url(#p2c0f693828)">
     <use style="fill-opacity:0.180392;" x="666.654886" xlink:href="#C0_0_c94d279491" y="425.267532"/>
    </g>
    <g clip-path="url(#p2c0f693828)">
     <use style="fill-opacity:0.180392;" x="702.617464" xlink:href="#C0_0_c94d279491" y="601.761039"/>
    </g>
    <g clip-path="url(#p2c0f693828)">
     <use style="stroke:#000000;" x="702.617464" xlink:href="#C0_0_c94d279491" y="557.637662"/>
    </g>
    <g clip-path="url(#p2c0f693828)">
     <use style="stroke:#000000;" x="702.617464" xlink:href="#C0_0_c94d279491" y="513.514286"/>
    </g>
    <g clip-path="url(#p2c0f693828)">
     <use style="fill-opacity:0.180392;" x="702.617464" xlink:href="#C0_0_c94d279491" y="469.390909"/>
    </g>
    <g clip-path="url(#p2c0f693828)">
     <use style="fill-opacity:0.180392;" x="702.617464" xlink:href="#C0_0_c94d279491" y="425.267532"/>
    </g>
    <g clip-path="url(#p2c0f693828)">
     <use style="fill-opacity:0.180392;" x="738.580042" xlink:href="#C0_0_c94d279491" y="601.761039"/>
    </g>
    <g clip-path="url(#p2c0f693828)">
     <use style="stroke:#000000;" x="738.580042" xlink:href="#C0_0_c94d279491" y="557.637662"/>
    </g>
    <g clip-path="url(#p2c0f693828)">
     <use style="fill-opacity:0.180392;" x="738.580042" xlink:href="#C0_0_c94d279491" y="513.514286"/>
    </g>
    <g clip-path="url(#p2c0f693828)">
     <use style="fill-opacity:0.180392;" x="738.580042" xlink:href="#C0_0_c94d279491" y="469.390909"/>
    </g>
    <g clip-path="url(#p2c0f693828)">
     <use style="stroke:#000000;" x="738.580042" xlink:href="#C0_0_c94d279491" y="425.267532"/>
    </g>
    <g clip-path="url(#p2c0f693828)">
     <use style="stroke:#000000;" x="774.54262" xlink:href="#C0_0_c94d279491" y="601.761039"/>
    </g>
    <g clip-path="url(#p2c0f693828)">
     <use style="fill-opacity:0.180392;" x="774.54262" xlink:href="#C0_0_c94d279491" y="557.637662"/>
    </g>
    <g clip-path="url(#p2c0f693828)">
     <use style="stroke:#000000;" x="774.54262" xlink:href="#C0_0_c94d279491" y="513.514286"/>
    </g>
    <g clip-path="url(#p2c0f693828)">
     <use style="fill-opacity:0.180392;" x="774.54262" xlink:href="#C0_0_c94d279491" y="469.390909"/>
    </g>
    <g clip-path="url(#p2c0f693828)">
     <use style="fill-opacity:0.180392;" x="774.54262" xlink:href="#C0_0_c94d279491" y="425.267532"/>
    </g>
    <g clip-path="url(#p2c0f693828)">
     <use style="stroke:#000000;" x="810.505198" xlink:href="#C0_0_c94d279491" y="601.761039"/>
    </g>
    <g clip-path="url(#p2c0f693828)">
     <use style="stroke:#000000;" x="810.505198" xlink:href="#C0_0_c94d279491" y="557.637662"/>
    </g>
    <g clip-path="url(#p2c0f693828)">
     <use style="fill-opacity:0.180392;" x="810.505198" xlink:href="#C0_0_c94d279491" y="513.514286"/>
    </g>
    <g clip-path="url(#p2c0f693828)">
     <use style="fill-opacity:0.180392;" x="810.505198" xlink:href="#C0_0_c94d279491" y="469.390909"/>
    </g>
    <g clip-path="url(#p2c0f693828)">
     <use style="stroke:#000000;" x="810.505198" xlink:href="#C0_0_c94d279491" y="425.267532"/>
    </g>
    <g clip-path="url(#p2c0f693828)">
     <use style="fill-opacity:0.180392;" x="846.467775" xlink:href="#C0_0_c94d279491" y="601.761039"/>
    </g>
    <g clip-path="url(#p2c0f693828)">
     <use style="fill-opacity:0.180392;" x="846.467775" xlink:href="#C0_0_c94d279491" y="557.637662"/>
    </g>
    <g clip-path="url(#p2c0f693828)">
     <use style="fill-opacity:0.180392;" x="846.467775" xlink:href="#C0_0_c94d279491" y="513.514286"/>
    </g>
    <g clip-path="url(#p2c0f693828)">
     <use style="stroke:#000000;" x="846.467775" xlink:href="#C0_0_c94d279491" y="469.390909"/>
    </g>
    <g clip-path="url(#p2c0f693828)">
     <use style="stroke:#000000;" x="846.467775" xlink:href="#C0_0_c94d279491" y="425.267532"/>
    </g>
    <g clip-path="url(#p2c0f693828)">
     <use style="stroke:#000000;" x="882.430353" xlink:href="#C0_0_c94d279491" y="601.761039"/>
    </g>
    <g clip-path="url(#p2c0f693828)">
     <use style="stroke:#000000;" x="882.430353" xlink:href="#C0_0_c94d279491" y="557.637662"/>
    </g>
    <g clip-path="url(#p2c0f693828)">
     <use style="stroke:#000000;" x="882.430353" xlink:href="#C0_0_c94d279491" y="513.514286"/>
    </g>
    <g clip-path="url(#p2c0f693828)">
     <use style="fill-opacity:0.180392;" x="882.430353" xlink:href="#C0_0_c94d279491" y="469.390909"/>
    </g>
    <g clip-path="url(#p2c0f693828)">
     <use style="fill-opacity:0.180392;" x="882.430353" xlink:href="#C0_0_c94d279491" y="425.267532"/>
    </g>
    <g clip-path="url(#p2c0f693828)">
     <use style="fill-opacity:0.180392;" x="918.392931" xlink:href="#C0_0_c94d279491" y="601.761039"/>
    </g>
    <g clip-path="url(#p2c0f693828)">
     <use style="fill-opacity:0.180392;" x="918.392931" xlink:href="#C0_0_c94d279491" y="557.637662"/>
    </g>
    <g clip-path="url(#p2c0f693828)">
     <use style="stroke:#000000;" x="918.392931" xlink:href="#C0_0_c94d279491" y="513.514286"/>
    </g>
    <g clip-path="url(#p2c0f693828)">
     <use style="stroke:#000000;" x="918.392931" xlink:href="#C0_0_c94d279491" y="469.390909"/>
    </g>
    <g clip-path="url(#p2c0f693828)">
     <use style="fill-opacity:0.180392;" x="918.392931" xlink:href="#C0_0_c94d279491" y="425.267532"/>
    </g>
    <g clip-path="url(#p2c0f693828)">
     <use style="fill-opacity:0.180392;" x="954.355509" xlink:href="#C0_0_c94d279491" y="601.761039"/>
    </g>
    <g clip-path="url(#p2c0f693828)">
     <use style="stroke:#000000;" x="954.355509" xlink:href="#C0_0_c94d279491" y="557.637662"/>
    </g>
    <g clip-path="url(#p2c0f693828)">
     <use style="stroke:#000000;" x="954.355509" xlink:href="#C0_0_c94d279491" y="513.514286"/>
    </g>
    <g clip-path="url(#p2c0f693828)">
     <use style="stroke:#000000;" x="954.355509" xlink:href="#C0_0_c94d279491" y="469.390909"/>
    </g>
    <g clip-path="url(#p2c0f693828)">
     <use style="fill-opacity:0.180392;" x="954.355509" xlink:href="#C0_0_c94d279491" y="425.267532"/>
    </g>
    <g clip-path="url(#p2c0f693828)">
     <use style="stroke:#000000;" x="990.318087" xlink:href="#C0_0_c94d279491" y="601.761039"/>
    </g>
    <g clip-path="url(#p2c0f693828)">
     <use style="stroke:#000000;" x="990.318087" xlink:href="#C0_0_c94d279491" y="557.637662"/>
    </g>
    <g clip-path="url(#p2c0f693828)">
     <use style="fill-opacity:0.180392;" x="990.318087" xlink:href="#C0_0_c94d279491" y="513.514286"/>
    </g>
    <g clip-path="url(#p2c0f693828)">
     <use style="stroke:#000000;" x="990.318087" xlink:href="#C0_0_c94d279491" y="469.390909"/>
    </g>
    <g clip-path="url(#p2c0f693828)">
     <use style="fill-opacity:0.180392;" x="990.318087" xlink:href="#C0_0_c94d279491" y="425.267532"/>
    </g>
    <g clip-path="url(#p2c0f693828)">
     <use style="fill-opacity:0.180392;" x="1026.280665" xlink:href="#C0_0_c94d279491" y="601.761039"/>
    </g>
    <g clip-path="url(#p2c0f693828)">
     <use style="stroke:#000000;" x="1026.280665" xlink:href="#C0_0_c94d279491" y="557.637662"/>
    </g>
    <g clip-path="url(#p2c0f693828)">
     <use style="stroke:#000000;" x="1026.280665" xlink:href="#C0_0_c94d279491" y="513.514286"/>
    </g>
    <g clip-path="url(#p2c0f693828)">
     <use style="fill-opacity:0.180392;" x="1026.280665" xlink:href="#C0_0_c94d279491" y="469.390909"/>
    </g>
    <g clip-path="url(#p2c0f693828)">
     <use style="stroke:#000000;" x="1026.280665" xlink:href="#C0_0_c94d279491" y="425.267532"/>
    </g>
    <g clip-path="url(#p2c0f693828)">
     <use style="fill-opacity:0.180392;" x="1062.243243" xlink:href="#C0_0_c94d279491" y="601.761039"/>
    </g>
    <g clip-path="url(#p2c0f693828)">
     <use style="fill-opacity:0.180392;" x="1062.243243" xlink:href="#C0_0_c94d279491" y="557.637662"/>
    </g>
    <g clip-path="url(#p2c0f693828)">
     <use style="stroke:#000000;" x="1062.243243" xlink:href="#C0_0_c94d279491" y="513.514286"/>
    </g>
    <g clip-path="url(#p2c0f693828)">
     <use style="fill-opacity:0.180392;" x="1062.243243" xlink:href="#C0_0_c94d279491" y="469.390909"/>
    </g>
    <g clip-path="url(#p2c0f693828)">
     <use style="stroke:#000000;" x="1062.243243" xlink:href="#C0_0_c94d279491" y="425.267532"/>
    </g>
    <g clip-path="url(#p2c0f693828)">
     <use style="fill-opacity:0.180392;" x="1098.205821" xlink:href="#C0_0_c94d279491" y="601.761039"/>
    </g>
    <g clip-path="url(#p2c0f693828)">
     <use style="stroke:#000000;" x="1098.205821" xlink:href="#C0_0_c94d279491" y="557.637662"/>
    </g>
    <g clip-path="url(#p2c0f693828)">
     <use style="fill-opacity:0.180392;" x="1098.205821" xlink:href="#C0_0_c94d279491" y="513.514286"/>
    </g>
    <g clip-path="url(#p2c0f693828)">
     <use style="stroke:#000000;" x="1098.205821" xlink:href="#C0_0_c94d279491" y="469.390909"/>
    </g>
    <g clip-path="url(#p2c0f693828)">
     <use style="stroke:#000000;" x="1098.205821" xlink:href="#C0_0_c94d279491" y="425.267532"/>
    </g>
    <g clip-path="url(#p2c0f693828)">
     <use style="stroke:#000000;" x="1134.168399" xlink:href="#C0_0_c94d279491" y="601.761039"/>
    </g>
    <g clip-path="url(#p2c0f693828)">
     <use style="fill-opacity:0.180392;" x="1134.168399" xlink:href="#C0_0_c94d279491" y="557.637662"/>
    </g>
    <g clip-path="url(#p2c0f693828)">
     <use style="fill-opacity:0.180392;" x="1134.168399" xlink:href="#C0_0_c94d279491" y="513.514286"/>
    </g>
    <g clip-path="url(#p2c0f693828)">
     <use style="stroke:#000000;" x="1134.168399" xlink:href="#C0_0_c94d279491" y="469.390909"/>
    </g>
    <g clip-path="url(#p2c0f693828)">
     <use style="stroke:#000000;" x="1134.168399" xlink:href="#C0_0_c94d279491" y="425.267532"/>
    </g>
    <g clip-path="url(#p2c0f693828)">
     <use style="stroke:#000000;" x="1170.130977" xlink:href="#C0_0_c94d279491" y="601.761039"/>
    </g>
    <g clip-path="url(#p2c0f693828)">
     <use style="stroke:#000000;" x="1170.130977" xlink:href="#C0_0_c94d279491" y="557.637662"/>
    </g>
    <g clip-path="url(#p2c0f693828)">
     <use style="stroke:#000000;" x="1170.130977" xlink:href="#C0_0_c94d279491" y="513.514286"/>
    </g>
    <g clip-path="url(#p2c0f693828)">
     <use style="fill-opacity:0.180392;" x="1170.130977" xlink:href="#C0_0_c94d279491" y="469.390909"/>
    </g>
    <g clip-path="url(#p2c0f693828)">
     <use style="stroke:#000000;" x="1170.130977" xlink:href="#C0_0_c94d279491" y="425.267532"/>
    </g>
    <g clip-path="url(#p2c0f693828)">
     <use style="stroke:#000000;" x="1206.093555" xlink:href="#C0_0_c94d279491" y="601.761039"/>
    </g>
    <g clip-path="url(#p2c0f693828)">
     <use style="stroke:#000000;" x="1206.093555" xlink:href="#C0_0_c94d279491" y="557.637662"/>
    </g>
    <g clip-path="url(#p2c0f693828)">
     <use style="fill-opacity:0.180392;" x="1206.093555" xlink:href="#C0_0_c94d279491" y="513.514286"/>
    </g>
    <g clip-path="url(#p2c0f693828)">
     <use style="stroke:#000000;" x="1206.093555" xlink:href="#C0_0_c94d279491" y="469.390909"/>
    </g>
    <g clip-path="url(#p2c0f693828)">
     <use style="stroke:#000000;" x="1206.093555" xlink:href="#C0_0_c94d279491" y="425.267532"/>
    </g>
    <g clip-path="url(#p2c0f693828)">
     <use style="fill-opacity:0.180392;" x="1242.056133" xlink:href="#C0_0_c94d279491" y="601.761039"/>
    </g>
    <g clip-path="url(#p2c0f693828)">
     <use style="fill-opacity:0.180392;" x="1242.056133" xlink:href="#C0_0_c94d279491" y="557.637662"/>
    </g>
    <g clip-path="url(#p2c0f693828)">
     <use style="stroke:#000000;" x="1242.056133" xlink:href="#C0_0_c94d279491" y="513.514286"/>
    </g>
    <g clip-path="url(#p2c0f693828)">
     <use style="stroke:#000000;" x="1242.056133" xlink:href="#C0_0_c94d279491" y="469.390909"/>
    </g>
    <g clip-path="url(#p2c0f693828)">
     <use style="stroke:#000000;" x="1242.056133" xlink:href="#C0_0_c94d279491" y="425.267532"/>
    </g>
    <g clip-path="url(#p2c0f693828)">
     <use style="stroke:#000000;" x="1278.018711" xlink:href="#C0_0_c94d279491" y="601.761039"/>
    </g>
    <g clip-path="url(#p2c0f693828)">
     <use style="stroke:#000000;" x="1278.018711" xlink:href="#C0_0_c94d279491" y="557.637662"/>
    </g>
    <g clip-path="url(#p2c0f693828)">
     <use style="stroke:#000000;" x="1278.018711" xlink:href="#C0_0_c94d279491" y="513.514286"/>
    </g>
    <g clip-path="url(#p2c0f693828)">
     <use style="stroke:#000000;" x="1278.018711" xlink:href="#C0_0_c94d279491" y="469.390909"/>
    </g>
    <g clip-path="url(#p2c0f693828)">
     <use style="stroke:#000000;" x="1278.018711" xlink:href="#C0_0_c94d279491" y="425.267532"/>
    </g>
   </g>
  </g>
  <g id="axes_3">
   <g id="matplotlib.axis_4">
    <g id="xtick_1">
     <g id="line2d_1">
      <path clip-path="url(#pd6795cdc3c)" d="M 246.356757 630 
L 246.356757 397.028571 
" style="fill:none;stroke:#cccccc;stroke-linecap:round;stroke-width:2;"/>
     </g>
     <g id="text_6">
      <!-- 0 -->
      <g style="fill:#262626;" transform="translate(239.358007 662.216563)scale(0.22 -0.22)">
       <defs>
        <path d="M 31.78125 66.40625 
Q 24.171875 66.40625 20.328125 58.90625 
Q 16.5 51.421875 16.5 36.375 
Q 16.5 21.390625 20.328125 13.890625 
Q 24.171875 6.390625 31.78125 6.390625 
Q 39.453125 6.390625 43.28125 13.890625 
Q 47.125 21.390625 47.125 36.375 
Q 47.125 51.421875 43.28125 58.90625 
Q 39.453125 66.40625 31.78125 66.40625 
z
M 31.78125 74.21875 
Q 44.046875 74.21875 50.515625 64.515625 
Q 56.984375 54.828125 56.984375 36.375 
Q 56.984375 17.96875 50.515625 8.265625 
Q 44.046875 -1.421875 31.78125 -1.421875 
Q 19.53125 -1.421875 13.0625 8.265625 
Q 6.59375 17.96875 6.59375 36.375 
Q 6.59375 54.828125 13.0625 64.515625 
Q 19.53125 74.21875 31.78125 74.21875 
z
" id="DejaVuSans-48"/>
       </defs>
       <use xlink:href="#DejaVuSans-48"/>
      </g>
     </g>
    </g>
    <g id="xtick_2">
     <g id="line2d_2">
      <path clip-path="url(#pd6795cdc3c)" d="M 180.656998 630 
L 180.656998 397.028571 
" style="fill:none;stroke:#cccccc;stroke-linecap:round;stroke-width:2;"/>
     </g>
     <g id="text_7">
      <!-- 1000 -->
      <g style="fill:#262626;" transform="translate(152.661998 662.216563)scale(0.22 -0.22)">
       <defs>
        <path d="M 12.40625 8.296875 
L 28.515625 8.296875 
L 28.515625 63.921875 
L 10.984375 60.40625 
L 10.984375 69.390625 
L 28.421875 72.90625 
L 38.28125 72.90625 
L 38.28125 8.296875 
L 54.390625 8.296875 
L 54.390625 0 
L 12.40625 0 
z
" id="DejaVuSans-49"/>
       </defs>
       <use xlink:href="#DejaVuSans-49"/>
       <use x="63.623047" xlink:href="#DejaVuSans-48"/>
       <use x="127.246094" xlink:href="#DejaVuSans-48"/>
       <use x="190.869141" xlink:href="#DejaVuSans-48"/>
      </g>
     </g>
    </g>
   </g>
   <g id="patch_5">
    <path clip-path="url(#pd6795cdc3c)" d="M 246.356757 612.791883 
L 180 612.791883 
L 180 590.730195 
L 246.356757 590.730195 
z
" style="stroke:#ffffff;stroke-linejoin:miter;stroke-width:2;"/>
   </g>
   <g id="patch_6">
    <path clip-path="url(#pd6795cdc3c)" d="M 246.356757 568.668506 
L 221.193749 568.668506 
L 221.193749 546.606818 
L 246.356757 546.606818 
z
" style="stroke:#ffffff;stroke-linejoin:miter;stroke-width:2;"/>
   </g>
   <g id="patch_7">
    <path clip-path="url(#pd6795cdc3c)" d="M 246.356757 524.54513 
L 233.545304 524.54513 
L 233.545304 502.483442 
L 246.356757 502.483442 
z
" style="stroke:#ffffff;stroke-linejoin:miter;stroke-width:2;"/>
   </g>
   <g id="patch_8">
    <path clip-path="url(#pd6795cdc3c)" d="M 246.356757 480.421753 
L 235.581996 480.421753 
L 235.581996 458.360065 
L 246.356757 458.360065 
z
" style="stroke:#ffffff;stroke-linejoin:miter;stroke-width:2;"/>
   </g>
   <g id="patch_9">
    <path clip-path="url(#pd6795cdc3c)" d="M 246.356757 436.298377 
L 236.895991 436.298377 
L 236.895991 414.236688 
L 246.356757 414.236688 
z
" style="stroke:#ffffff;stroke-linejoin:miter;stroke-width:2;"/>
   </g>
   <g id="patch_10">
    <path d="M 180 630 
L 246.356757 630 
" style="fill:none;stroke:#262626;stroke-linecap:square;stroke-linejoin:miter;stroke-width:2.5;"/>
   </g>
   <g id="text_8">
    <!-- 1010 -->
    <g style="fill:#262626;" transform="translate(118.223254 608.383539)scale(0.24 -0.24)">
     <use xlink:href="#DejaVuSans-49"/>
     <use x="63.623047" xlink:href="#DejaVuSans-48"/>
     <use x="127.246094" xlink:href="#DejaVuSans-49"/>
     <use x="190.869141" xlink:href="#DejaVuSans-48"/>
    </g>
   </g>
   <g id="text_9">
    <!-- 383 -->
    <g style="fill:#262626;" transform="translate(174.687003 564.260162)scale(0.24 -0.24)">
     <defs>
      <path d="M 40.578125 39.3125 
Q 47.65625 37.796875 51.625 33 
Q 55.609375 28.21875 55.609375 21.1875 
Q 55.609375 10.40625 48.1875 4.484375 
Q 40.765625 -1.421875 27.09375 -1.421875 
Q 22.515625 -1.421875 17.65625 -0.515625 
Q 12.796875 0.390625 7.625 2.203125 
L 7.625 11.71875 
Q 11.71875 9.328125 16.59375 8.109375 
Q 21.484375 6.890625 26.8125 6.890625 
Q 36.078125 6.890625 40.9375 10.546875 
Q 45.796875 14.203125 45.796875 21.1875 
Q 45.796875 27.640625 41.28125 31.265625 
Q 36.765625 34.90625 28.71875 34.90625 
L 20.21875 34.90625 
L 20.21875 43.015625 
L 29.109375 43.015625 
Q 36.375 43.015625 40.234375 45.921875 
Q 44.09375 48.828125 44.09375 54.296875 
Q 44.09375 59.90625 40.109375 62.90625 
Q 36.140625 65.921875 28.71875 65.921875 
Q 24.65625 65.921875 20.015625 65.03125 
Q 15.375 64.15625 9.8125 62.3125 
L 9.8125 71.09375 
Q 15.4375 72.65625 20.34375 73.4375 
Q 25.25 74.21875 29.59375 74.21875 
Q 40.828125 74.21875 47.359375 69.109375 
Q 53.90625 64.015625 53.90625 55.328125 
Q 53.90625 49.265625 50.4375 45.09375 
Q 46.96875 40.921875 40.578125 39.3125 
z
" id="DejaVuSans-51"/>
      <path d="M 31.78125 34.625 
Q 24.75 34.625 20.71875 30.859375 
Q 16.703125 27.09375 16.703125 20.515625 
Q 16.703125 13.921875 20.71875 10.15625 
Q 24.75 6.390625 31.78125 6.390625 
Q 38.8125 6.390625 42.859375 10.171875 
Q 46.921875 13.96875 46.921875 20.515625 
Q 46.921875 27.09375 42.890625 30.859375 
Q 38.875 34.625 31.78125 34.625 
z
M 21.921875 38.8125 
Q 15.578125 40.375 12.03125 44.71875 
Q 8.5 49.078125 8.5 55.328125 
Q 8.5 64.0625 14.71875 69.140625 
Q 20.953125 74.21875 31.78125 74.21875 
Q 42.671875 74.21875 48.875 69.140625 
Q 55.078125 64.0625 55.078125 55.328125 
Q 55.078125 49.078125 51.53125 44.71875 
Q 48 40.375 41.703125 38.8125 
Q 48.828125 37.15625 52.796875 32.3125 
Q 56.78125 27.484375 56.78125 20.515625 
Q 56.78125 9.90625 50.3125 4.234375 
Q 43.84375 -1.421875 31.78125 -1.421875 
Q 19.734375 -1.421875 13.25 4.234375 
Q 6.78125 9.90625 6.78125 20.515625 
Q 6.78125 27.484375 10.78125 32.3125 
Q 14.796875 37.15625 21.921875 38.8125 
z
M 18.3125 54.390625 
Q 18.3125 48.734375 21.84375 45.5625 
Q 25.390625 42.390625 31.78125 42.390625 
Q 38.140625 42.390625 41.71875 45.5625 
Q 45.3125 48.734375 45.3125 54.390625 
Q 45.3125 60.0625 41.71875 63.234375 
Q 38.140625 66.40625 31.78125 66.40625 
Q 25.390625 66.40625 21.84375 63.234375 
Q 18.3125 60.0625 18.3125 54.390625 
z
" id="DejaVuSans-56"/>
     </defs>
     <use xlink:href="#DejaVuSans-51"/>
     <use x="63.623047" xlink:href="#DejaVuSans-56"/>
     <use x="127.246094" xlink:href="#DejaVuSans-51"/>
    </g>
   </g>
   <g id="text_10">
    <!-- 195 -->
    <g style="fill:#262626;" transform="translate(187.038558 520.136786)scale(0.24 -0.24)">
     <defs>
      <path d="M 10.984375 1.515625 
L 10.984375 10.5 
Q 14.703125 8.734375 18.5 7.8125 
Q 22.3125 6.890625 25.984375 6.890625 
Q 35.75 6.890625 40.890625 13.453125 
Q 46.046875 20.015625 46.78125 33.40625 
Q 43.953125 29.203125 39.59375 26.953125 
Q 35.25 24.703125 29.984375 24.703125 
Q 19.046875 24.703125 12.671875 31.3125 
Q 6.296875 37.9375 6.296875 49.421875 
Q 6.296875 60.640625 12.9375 67.421875 
Q 19.578125 74.21875 30.609375 74.21875 
Q 43.265625 74.21875 49.921875 64.515625 
Q 56.59375 54.828125 56.59375 36.375 
Q 56.59375 19.140625 48.40625 8.859375 
Q 40.234375 -1.421875 26.421875 -1.421875 
Q 22.703125 -1.421875 18.890625 -0.6875 
Q 15.09375 0.046875 10.984375 1.515625 
z
M 30.609375 32.421875 
Q 37.25 32.421875 41.125 36.953125 
Q 45.015625 41.5 45.015625 49.421875 
Q 45.015625 57.28125 41.125 61.84375 
Q 37.25 66.40625 30.609375 66.40625 
Q 23.96875 66.40625 20.09375 61.84375 
Q 16.21875 57.28125 16.21875 49.421875 
Q 16.21875 41.5 20.09375 36.953125 
Q 23.96875 32.421875 30.609375 32.421875 
z
" id="DejaVuSans-57"/>
      <path d="M 10.796875 72.90625 
L 49.515625 72.90625 
L 49.515625 64.59375 
L 19.828125 64.59375 
L 19.828125 46.734375 
Q 21.96875 47.46875 24.109375 47.828125 
Q 26.265625 48.1875 28.421875 48.1875 
Q 40.625 48.1875 47.75 41.5 
Q 54.890625 34.8125 54.890625 23.390625 
Q 54.890625 11.625 47.5625 5.09375 
Q 40.234375 -1.421875 26.90625 -1.421875 
Q 22.3125 -1.421875 17.546875 -0.640625 
Q 12.796875 0.140625 7.71875 1.703125 
L 7.71875 11.625 
Q 12.109375 9.234375 16.796875 8.0625 
Q 21.484375 6.890625 26.703125 6.890625 
Q 35.15625 6.890625 40.078125 11.328125 
Q 45.015625 15.765625 45.015625 23.390625 
Q 45.015625 31 40.078125 35.4375 
Q 35.15625 39.890625 26.703125 39.890625 
Q 22.75 39.890625 18.8125 39.015625 
Q 14.890625 38.140625 10.796875 36.28125 
z
" id="DejaVuSans-53"/>
     </defs>
     <use xlink:href="#DejaVuSans-49"/>
     <use x="63.623047" xlink:href="#DejaVuSans-57"/>
     <use x="127.246094" xlink:href="#DejaVuSans-53"/>
    </g>
   </g>
   <g id="text_11">
    <!-- 164 -->
    <g style="fill:#262626;" transform="translate(189.07525 476.013409)scale(0.24 -0.24)">
     <defs>
      <path d="M 33.015625 40.375 
Q 26.375 40.375 22.484375 35.828125 
Q 18.609375 31.296875 18.609375 23.390625 
Q 18.609375 15.53125 22.484375 10.953125 
Q 26.375 6.390625 33.015625 6.390625 
Q 39.65625 6.390625 43.53125 10.953125 
Q 47.40625 15.53125 47.40625 23.390625 
Q 47.40625 31.296875 43.53125 35.828125 
Q 39.65625 40.375 33.015625 40.375 
z
M 52.59375 71.296875 
L 52.59375 62.3125 
Q 48.875 64.0625 45.09375 64.984375 
Q 41.3125 65.921875 37.59375 65.921875 
Q 27.828125 65.921875 22.671875 59.328125 
Q 17.53125 52.734375 16.796875 39.40625 
Q 19.671875 43.65625 24.015625 45.921875 
Q 28.375 48.1875 33.59375 48.1875 
Q 44.578125 48.1875 50.953125 41.515625 
Q 57.328125 34.859375 57.328125 23.390625 
Q 57.328125 12.15625 50.6875 5.359375 
Q 44.046875 -1.421875 33.015625 -1.421875 
Q 20.359375 -1.421875 13.671875 8.265625 
Q 6.984375 17.96875 6.984375 36.375 
Q 6.984375 53.65625 15.1875 63.9375 
Q 23.390625 74.21875 37.203125 74.21875 
Q 40.921875 74.21875 44.703125 73.484375 
Q 48.484375 72.75 52.59375 71.296875 
z
" id="DejaVuSans-54"/>
      <path d="M 37.796875 64.3125 
L 12.890625 25.390625 
L 37.796875 25.390625 
z
M 35.203125 72.90625 
L 47.609375 72.90625 
L 47.609375 25.390625 
L 58.015625 25.390625 
L 58.015625 17.1875 
L 47.609375 17.1875 
L 47.609375 0 
L 37.796875 0 
L 37.796875 17.1875 
L 4.890625 17.1875 
L 4.890625 26.703125 
z
" id="DejaVuSans-52"/>
     </defs>
     <use xlink:href="#DejaVuSans-49"/>
     <use x="63.623047" xlink:href="#DejaVuSans-54"/>
     <use x="127.246094" xlink:href="#DejaVuSans-52"/>
    </g>
   </g>
   <g id="text_12">
    <!-- 144 -->
    <g style="fill:#262626;" transform="translate(190.389245 431.890032)scale(0.24 -0.24)">
     <use xlink:href="#DejaVuSans-49"/>
     <use x="63.623047" xlink:href="#DejaVuSans-52"/>
     <use x="127.246094" xlink:href="#DejaVuSans-52"/>
    </g>
   </g>
  </g>
  <g id="axes_4">
   <g id="patch_11">
    <path d="M 360.972973 371.142857 
L 1296 371.142857 
L 1296 86.4 
L 360.972973 86.4 
z
" style="fill:#ffffff;"/>
   </g>
   <g id="matplotlib.axis_5">
    <g id="ytick_11">
     <g id="line2d_3">
      <path clip-path="url(#p450831fe7a)" d="M 360.972973 371.142857 
L 1296 371.142857 
" style="fill:none;stroke:#cccccc;stroke-linecap:round;stroke-width:2;"/>
     </g>
     <g id="text_13">
      <!-- 0 -->
      <g style="fill:#262626;" transform="translate(331.475473 379.501138)scale(0.22 -0.22)">
       <use xlink:href="#DejaVuSans-48"/>
      </g>
     </g>
    </g>
    <g id="ytick_12">
     <g id="line2d_4">
      <path clip-path="url(#p450831fe7a)" d="M 360.972973 309.087097 
L 1296 309.087097 
" style="fill:none;stroke:#cccccc;stroke-linecap:round;stroke-width:2;"/>
     </g>
     <g id="text_14">
      <!-- 200 -->
      <g style="fill:#262626;" transform="translate(303.480473 317.445378)scale(0.22 -0.22)">
       <defs>
        <path d="M 19.1875 8.296875 
L 53.609375 8.296875 
L 53.609375 0 
L 7.328125 0 
L 7.328125 8.296875 
Q 12.9375 14.109375 22.625 23.890625 
Q 32.328125 33.6875 34.8125 36.53125 
Q 39.546875 41.84375 41.421875 45.53125 
Q 43.3125 49.21875 43.3125 52.78125 
Q 43.3125 58.59375 39.234375 62.25 
Q 35.15625 65.921875 28.609375 65.921875 
Q 23.96875 65.921875 18.8125 64.3125 
Q 13.671875 62.703125 7.8125 59.421875 
L 7.8125 69.390625 
Q 13.765625 71.78125 18.9375 73 
Q 24.125 74.21875 28.421875 74.21875 
Q 39.75 74.21875 46.484375 68.546875 
Q 53.21875 62.890625 53.21875 53.421875 
Q 53.21875 48.921875 51.53125 44.890625 
Q 49.859375 40.875 45.40625 35.40625 
Q 44.1875 33.984375 37.640625 27.21875 
Q 31.109375 20.453125 19.1875 8.296875 
z
" id="DejaVuSans-50"/>
       </defs>
       <use xlink:href="#DejaVuSans-50"/>
       <use x="63.623047" xlink:href="#DejaVuSans-48"/>
       <use x="127.246094" xlink:href="#DejaVuSans-48"/>
      </g>
     </g>
    </g>
    <g id="ytick_13">
     <g id="line2d_5">
      <path clip-path="url(#p450831fe7a)" d="M 360.972973 247.031336 
L 1296 247.031336 
" style="fill:none;stroke:#cccccc;stroke-linecap:round;stroke-width:2;"/>
     </g>
     <g id="text_15">
      <!-- 400 -->
      <g style="fill:#262626;" transform="translate(303.480473 255.389617)scale(0.22 -0.22)">
       <use xlink:href="#DejaVuSans-52"/>
       <use x="63.623047" xlink:href="#DejaVuSans-48"/>
       <use x="127.246094" xlink:href="#DejaVuSans-48"/>
      </g>
     </g>
    </g>
    <g id="ytick_14">
     <g id="line2d_6">
      <path clip-path="url(#p450831fe7a)" d="M 360.972973 184.975576 
L 1296 184.975576 
" style="fill:none;stroke:#cccccc;stroke-linecap:round;stroke-width:2;"/>
     </g>
     <g id="text_16">
      <!-- 600 -->
      <g style="fill:#262626;" transform="translate(303.480473 193.333857)scale(0.22 -0.22)">
       <use xlink:href="#DejaVuSans-54"/>
       <use x="63.623047" xlink:href="#DejaVuSans-48"/>
       <use x="127.246094" xlink:href="#DejaVuSans-48"/>
      </g>
     </g>
    </g>
    <g id="ytick_15">
     <g id="line2d_7">
      <path clip-path="url(#p450831fe7a)" d="M 360.972973 122.919815 
L 1296 122.919815 
" style="fill:none;stroke:#cccccc;stroke-linecap:round;stroke-width:2;"/>
     </g>
     <g id="text_17">
      <!-- 800 -->
      <g style="fill:#262626;" transform="translate(303.480473 131.278096)scale(0.22 -0.22)">
       <use xlink:href="#DejaVuSans-56"/>
       <use x="63.623047" xlink:href="#DejaVuSans-48"/>
       <use x="127.246094" xlink:href="#DejaVuSans-48"/>
      </g>
     </g>
    </g>
    <g id="text_18">
     <!-- Intersection size -->
     <g style="fill:#262626;" transform="translate(294.489223 327.237054)rotate(-90)scale(0.24 -0.24)">
      <defs>
       <path d="M 9.8125 72.90625 
L 19.671875 72.90625 
L 19.671875 0 
L 9.8125 0 
z
" id="DejaVuSans-73"/>
       <path d="M 54.890625 33.015625 
L 54.890625 0 
L 45.90625 0 
L 45.90625 32.71875 
Q 45.90625 40.484375 42.875 44.328125 
Q 39.84375 48.1875 33.796875 48.1875 
Q 26.515625 48.1875 22.3125 43.546875 
Q 18.109375 38.921875 18.109375 30.90625 
L 18.109375 0 
L 9.078125 0 
L 9.078125 54.6875 
L 18.109375 54.6875 
L 18.109375 46.1875 
Q 21.34375 51.125 25.703125 53.5625 
Q 30.078125 56 35.796875 56 
Q 45.21875 56 50.046875 50.171875 
Q 54.890625 44.34375 54.890625 33.015625 
z
" id="DejaVuSans-110"/>
       <path d="M 56.203125 29.59375 
L 56.203125 25.203125 
L 14.890625 25.203125 
Q 15.484375 15.921875 20.484375 11.0625 
Q 25.484375 6.203125 34.421875 6.203125 
Q 39.59375 6.203125 44.453125 7.46875 
Q 49.3125 8.734375 54.109375 11.28125 
L 54.109375 2.78125 
Q 49.265625 0.734375 44.1875 -0.34375 
Q 39.109375 -1.421875 33.890625 -1.421875 
Q 20.796875 -1.421875 13.15625 6.1875 
Q 5.515625 13.8125 5.515625 26.8125 
Q 5.515625 40.234375 12.765625 48.109375 
Q 20.015625 56 32.328125 56 
Q 43.359375 56 49.78125 48.890625 
Q 56.203125 41.796875 56.203125 29.59375 
z
M 47.21875 32.234375 
Q 47.125 39.59375 43.09375 43.984375 
Q 39.0625 48.390625 32.421875 48.390625 
Q 24.90625 48.390625 20.390625 44.140625 
Q 15.875 39.890625 15.1875 32.171875 
z
" id="DejaVuSans-101"/>
       <path d="M 41.109375 46.296875 
Q 39.59375 47.171875 37.8125 47.578125 
Q 36.03125 48 33.890625 48 
Q 26.265625 48 22.1875 43.046875 
Q 18.109375 38.09375 18.109375 28.8125 
L 18.109375 0 
L 9.078125 0 
L 9.078125 54.6875 
L 18.109375 54.6875 
L 18.109375 46.1875 
Q 20.953125 51.171875 25.484375 53.578125 
Q 30.03125 56 36.53125 56 
Q 37.453125 56 38.578125 55.875 
Q 39.703125 55.765625 41.0625 55.515625 
z
" id="DejaVuSans-114"/>
       <path d="M 44.28125 53.078125 
L 44.28125 44.578125 
Q 40.484375 46.53125 36.375 47.5 
Q 32.28125 48.484375 27.875 48.484375 
Q 21.1875 48.484375 17.84375 46.4375 
Q 14.5 44.390625 14.5 40.28125 
Q 14.5 37.15625 16.890625 35.375 
Q 19.28125 33.59375 26.515625 31.984375 
L 29.59375 31.296875 
Q 39.15625 29.25 43.1875 25.515625 
Q 47.21875 21.78125 47.21875 15.09375 
Q 47.21875 7.46875 41.1875 3.015625 
Q 35.15625 -1.421875 24.609375 -1.421875 
Q 20.21875 -1.421875 15.453125 -0.5625 
Q 10.6875 0.296875 5.421875 2 
L 5.421875 11.28125 
Q 10.40625 8.6875 15.234375 7.390625 
Q 20.0625 6.109375 24.8125 6.109375 
Q 31.15625 6.109375 34.5625 8.28125 
Q 37.984375 10.453125 37.984375 14.40625 
Q 37.984375 18.0625 35.515625 20.015625 
Q 33.0625 21.96875 24.703125 23.78125 
L 21.578125 24.515625 
Q 13.234375 26.265625 9.515625 29.90625 
Q 5.8125 33.546875 5.8125 39.890625 
Q 5.8125 47.609375 11.28125 51.796875 
Q 16.75 56 26.8125 56 
Q 31.78125 56 36.171875 55.265625 
Q 40.578125 54.546875 44.28125 53.078125 
z
" id="DejaVuSans-115"/>
       <path d="M 48.78125 52.59375 
L 48.78125 44.1875 
Q 44.96875 46.296875 41.140625 47.34375 
Q 37.3125 48.390625 33.40625 48.390625 
Q 24.65625 48.390625 19.8125 42.84375 
Q 14.984375 37.3125 14.984375 27.296875 
Q 14.984375 17.28125 19.8125 11.734375 
Q 24.65625 6.203125 33.40625 6.203125 
Q 37.3125 6.203125 41.140625 7.25 
Q 44.96875 8.296875 48.78125 10.40625 
L 48.78125 2.09375 
Q 45.015625 0.34375 40.984375 -0.53125 
Q 36.96875 -1.421875 32.421875 -1.421875 
Q 20.0625 -1.421875 12.78125 6.34375 
Q 5.515625 14.109375 5.515625 27.296875 
Q 5.515625 40.671875 12.859375 48.328125 
Q 20.21875 56 33.015625 56 
Q 37.15625 56 41.109375 55.140625 
Q 45.0625 54.296875 48.78125 52.59375 
z
" id="DejaVuSans-99"/>
       <path d="M 9.421875 54.6875 
L 18.40625 54.6875 
L 18.40625 0 
L 9.421875 0 
z
M 9.421875 75.984375 
L 18.40625 75.984375 
L 18.40625 64.59375 
L 9.421875 64.59375 
z
" id="DejaVuSans-105"/>
       <path id="DejaVuSans-32"/>
       <path d="M 5.515625 54.6875 
L 48.1875 54.6875 
L 48.1875 46.484375 
L 14.40625 7.171875 
L 48.1875 7.171875 
L 48.1875 0 
L 4.296875 0 
L 4.296875 8.203125 
L 38.09375 47.515625 
L 5.515625 47.515625 
z
" id="DejaVuSans-122"/>
      </defs>
      <use xlink:href="#DejaVuSans-73"/>
      <use x="29.492188" xlink:href="#DejaVuSans-110"/>
      <use x="92.871094" xlink:href="#DejaVuSans-116"/>
      <use x="132.080078" xlink:href="#DejaVuSans-101"/>
      <use x="193.603516" xlink:href="#DejaVuSans-114"/>
      <use x="234.716797" xlink:href="#DejaVuSans-115"/>
      <use x="286.816406" xlink:href="#DejaVuSans-101"/>
      <use x="348.339844" xlink:href="#DejaVuSans-99"/>
      <use x="403.320312" xlink:href="#DejaVuSans-116"/>
      <use x="442.529297" xlink:href="#DejaVuSans-105"/>
      <use x="470.3125" xlink:href="#DejaVuSans-111"/>
      <use x="531.494141" xlink:href="#DejaVuSans-110"/>
      <use x="594.873047" xlink:href="#DejaVuSans-32"/>
      <use x="626.660156" xlink:href="#DejaVuSans-115"/>
      <use x="678.759766" xlink:href="#DejaVuSans-105"/>
      <use x="706.542969" xlink:href="#DejaVuSans-122"/>
      <use x="759.033203" xlink:href="#DejaVuSans-101"/>
     </g>
    </g>
   </g>
   <g id="patch_12">
    <path d="M 360.972973 371.142857 
L 360.972973 86.4 
" style="fill:none;stroke:#262626;stroke-linecap:square;stroke-linejoin:miter;stroke-width:2.5;"/>
   </g>
   <g id="text_19">
    <!-- 874 -->
    <g style="fill:#262626;" transform="translate(356.049262 92.120505)scale(0.24 -0.24)">
     <defs>
      <path d="M 8.203125 72.90625 
L 55.078125 72.90625 
L 55.078125 68.703125 
L 28.609375 0 
L 18.3125 0 
L 43.21875 64.59375 
L 8.203125 64.59375 
z
" id="DejaVuSans-55"/>
     </defs>
     <use xlink:href="#DejaVuSans-56"/>
     <use x="63.623047" xlink:href="#DejaVuSans-55"/>
     <use x="127.246094" xlink:href="#DejaVuSans-52"/>
    </g>
   </g>
   <g id="text_20">
    <!-- 266 -->
    <g style="fill:#262626;" transform="translate(392.01184 280.770017)scale(0.24 -0.24)">
     <use xlink:href="#DejaVuSans-50"/>
     <use x="63.623047" xlink:href="#DejaVuSans-54"/>
     <use x="127.246094" xlink:href="#DejaVuSans-54"/>
    </g>
   </g>
   <g id="text_21">
    <!-- 137 -->
    <g style="fill:#262626;" transform="translate(427.974418 320.795983)scale(0.24 -0.24)">
     <use xlink:href="#DejaVuSans-49"/>
     <use x="63.623047" xlink:href="#DejaVuSans-51"/>
     <use x="127.246094" xlink:href="#DejaVuSans-55"/>
    </g>
   </g>
   <g id="text_22">
    <!-- 86 -->
    <g style="fill:#262626;" transform="translate(471.571996 336.620202)scale(0.24 -0.24)">
     <use xlink:href="#DejaVuSans-56"/>
     <use x="63.623047" xlink:href="#DejaVuSans-54"/>
    </g>
   </g>
   <g id="text_23">
    <!-- 59 -->
    <g style="fill:#262626;" transform="translate(507.534574 344.997729)scale(0.24 -0.24)">
     <use xlink:href="#DejaVuSans-53"/>
     <use x="63.623047" xlink:href="#DejaVuSans-57"/>
    </g>
   </g>
   <g id="text_24">
    <!-- 43 -->
    <g style="fill:#262626;" transform="translate(543.497152 349.96219)scale(0.24 -0.24)">
     <use xlink:href="#DejaVuSans-52"/>
     <use x="63.623047" xlink:href="#DejaVuSans-51"/>
    </g>
   </g>
   <g id="text_25">
    <!-- 29 -->
    <g style="fill:#262626;" transform="translate(579.45973 354.306093)scale(0.24 -0.24)">
     <use xlink:href="#DejaVuSans-50"/>
     <use x="63.623047" xlink:href="#DejaVuSans-57"/>
    </g>
   </g>
   <g id="text_26">
    <!-- 29 -->
    <g style="fill:#262626;" transform="translate(615.422308 354.306093)scale(0.24 -0.24)">
     <use xlink:href="#DejaVuSans-50"/>
     <use x="63.623047" xlink:href="#DejaVuSans-57"/>
    </g>
   </g>
   <g id="text_27">
    <!-- 25 -->
    <g style="fill:#262626;" transform="translate(651.384886 355.547209)scale(0.24 -0.24)">
     <use xlink:href="#DejaVuSans-50"/>
     <use x="63.623047" xlink:href="#DejaVuSans-53"/>
    </g>
   </g>
   <g id="text_28">
    <!-- 20 -->
    <g style="fill:#262626;" transform="translate(687.347464 357.098603)scale(0.24 -0.24)">
     <use xlink:href="#DejaVuSans-50"/>
     <use x="63.623047" xlink:href="#DejaVuSans-48"/>
    </g>
   </g>
   <g id="text_29">
    <!-- 18 -->
    <g style="fill:#262626;" transform="translate(723.310042 357.71916)scale(0.24 -0.24)">
     <use xlink:href="#DejaVuSans-49"/>
     <use x="63.623047" xlink:href="#DejaVuSans-56"/>
    </g>
   </g>
   <g id="text_30">
    <!-- 17 -->
    <g style="fill:#262626;" transform="translate(759.27262 358.029439)scale(0.24 -0.24)">
     <use xlink:href="#DejaVuSans-49"/>
     <use x="63.623047" xlink:href="#DejaVuSans-55"/>
    </g>
   </g>
   <g id="text_31">
    <!-- 5 -->
    <g style="fill:#262626;" transform="translate(802.870198 361.752785)scale(0.24 -0.24)">
     <use xlink:href="#DejaVuSans-53"/>
    </g>
   </g>
   <g id="text_32">
    <!-- 5 -->
    <g style="fill:#262626;" transform="translate(838.832775 361.752785)scale(0.24 -0.24)">
     <use xlink:href="#DejaVuSans-53"/>
    </g>
   </g>
   <g id="text_33">
    <!-- 4 -->
    <g style="fill:#262626;" transform="translate(874.795353 362.063063)scale(0.24 -0.24)">
     <use xlink:href="#DejaVuSans-52"/>
    </g>
   </g>
   <g id="text_34">
    <!-- 4 -->
    <g style="fill:#262626;" transform="translate(910.757931 362.063063)scale(0.24 -0.24)">
     <use xlink:href="#DejaVuSans-52"/>
    </g>
   </g>
   <g id="text_35">
    <!-- 4 -->
    <g style="fill:#262626;" transform="translate(946.720509 362.063063)scale(0.24 -0.24)">
     <use xlink:href="#DejaVuSans-52"/>
    </g>
   </g>
   <g id="text_36">
    <!-- 4 -->
    <g style="fill:#262626;" transform="translate(982.683087 362.063063)scale(0.24 -0.24)">
     <use xlink:href="#DejaVuSans-52"/>
    </g>
   </g>
   <g id="text_37">
    <!-- 3 -->
    <g style="fill:#262626;" transform="translate(1018.645665 362.373342)scale(0.24 -0.24)">
     <use xlink:href="#DejaVuSans-51"/>
    </g>
   </g>
   <g id="text_38">
    <!-- 3 -->
    <g style="fill:#262626;" transform="translate(1054.608243 362.373342)scale(0.24 -0.24)">
     <use xlink:href="#DejaVuSans-51"/>
    </g>
   </g>
   <g id="text_39">
    <!-- 2 -->
    <g style="fill:#262626;" transform="translate(1090.570821 362.683621)scale(0.24 -0.24)">
     <use xlink:href="#DejaVuSans-50"/>
    </g>
   </g>
   <g id="text_40">
    <!-- 2 -->
    <g style="fill:#262626;" transform="translate(1126.533399 362.683621)scale(0.24 -0.24)">
     <use xlink:href="#DejaVuSans-50"/>
    </g>
   </g>
   <g id="text_41">
    <!-- 1 -->
    <g style="fill:#262626;" transform="translate(1162.495977 362.9939)scale(0.24 -0.24)">
     <use xlink:href="#DejaVuSans-49"/>
    </g>
   </g>
   <g id="text_42">
    <!-- 1 -->
    <g style="fill:#262626;" transform="translate(1198.458555 362.9939)scale(0.24 -0.24)">
     <use xlink:href="#DejaVuSans-49"/>
    </g>
   </g>
   <g id="text_43">
    <!-- 1 -->
    <g style="fill:#262626;" transform="translate(1234.421133 362.9939)scale(0.24 -0.24)">
     <use xlink:href="#DejaVuSans-49"/>
    </g>
   </g>
   <g id="text_44">
    <!-- 1 -->
    <g style="fill:#262626;" transform="translate(1270.383711 362.9939)scale(0.24 -0.24)">
     <use xlink:href="#DejaVuSans-49"/>
    </g>
   </g>
   <g id="patch_13">
    <path clip-path="url(#p450831fe7a)" d="M 369.963617 371.142857 
L 387.944906 371.142857 
L 387.944906 99.959184 
L 369.963617 99.959184 
z
" style="stroke:#000000;stroke-linejoin:miter;stroke-width:2;"/>
   </g>
   <g id="patch_14">
    <path clip-path="url(#p450831fe7a)" d="M 405.926195 371.142857 
L 423.907484 371.142857 
L 423.907484 288.608696 
L 405.926195 288.608696 
z
" style="stroke:#000000;stroke-linejoin:miter;stroke-width:2;"/>
   </g>
   <g id="patch_15">
    <path clip-path="url(#p450831fe7a)" d="M 441.888773 371.142857 
L 459.870062 371.142857 
L 459.870062 328.634661 
L 441.888773 328.634661 
z
" style="stroke:#000000;stroke-linejoin:miter;stroke-width:2;"/>
   </g>
   <g id="patch_16">
    <path clip-path="url(#p450831fe7a)" d="M 477.851351 371.142857 
L 495.83264 371.142857 
L 495.83264 344.45888 
L 477.851351 344.45888 
z
" style="stroke:#000000;stroke-linejoin:miter;stroke-width:2;"/>
   </g>
   <g id="patch_17">
    <path clip-path="url(#p450831fe7a)" d="M 513.813929 371.142857 
L 531.795218 371.142857 
L 531.795218 352.836408 
L 513.813929 352.836408 
z
" style="stroke:#000000;stroke-linejoin:miter;stroke-width:2;"/>
   </g>
   <g id="patch_18">
    <path clip-path="url(#p450831fe7a)" d="M 549.776507 371.142857 
L 567.757796 371.142857 
L 567.757796 357.800869 
L 549.776507 357.800869 
z
" style="stroke:#000000;stroke-linejoin:miter;stroke-width:2;"/>
   </g>
   <g id="patch_19">
    <path clip-path="url(#p450831fe7a)" d="M 585.739085 371.142857 
L 603.720374 371.142857 
L 603.720374 362.144772 
L 585.739085 362.144772 
z
" style="stroke:#000000;stroke-linejoin:miter;stroke-width:2;"/>
   </g>
   <g id="patch_20">
    <path clip-path="url(#p450831fe7a)" d="M 621.701663 371.142857 
L 639.682952 371.142857 
L 639.682952 362.144772 
L 621.701663 362.144772 
z
" style="stroke:#000000;stroke-linejoin:miter;stroke-width:2;"/>
   </g>
   <g id="patch_21">
    <path clip-path="url(#p450831fe7a)" d="M 657.664241 371.142857 
L 675.64553 371.142857 
L 675.64553 363.385887 
L 657.664241 363.385887 
z
" style="stroke:#000000;stroke-linejoin:miter;stroke-width:2;"/>
   </g>
   <g id="patch_22">
    <path clip-path="url(#p450831fe7a)" d="M 693.626819 371.142857 
L 711.608108 371.142857 
L 711.608108 364.937281 
L 693.626819 364.937281 
z
" style="stroke:#000000;stroke-linejoin:miter;stroke-width:2;"/>
   </g>
   <g id="patch_23">
    <path clip-path="url(#p450831fe7a)" d="M 729.589397 371.142857 
L 747.570686 371.142857 
L 747.570686 365.557839 
L 729.589397 365.557839 
z
" style="stroke:#000000;stroke-linejoin:miter;stroke-width:2;"/>
   </g>
   <g id="patch_24">
    <path clip-path="url(#p450831fe7a)" d="M 765.551975 371.142857 
L 783.533264 371.142857 
L 783.533264 365.868117 
L 765.551975 365.868117 
z
" style="stroke:#000000;stroke-linejoin:miter;stroke-width:2;"/>
   </g>
   <g id="patch_25">
    <path clip-path="url(#p450831fe7a)" d="M 801.514553 371.142857 
L 819.495842 371.142857 
L 819.495842 369.591463 
L 801.514553 369.591463 
z
" style="stroke:#000000;stroke-linejoin:miter;stroke-width:2;"/>
   </g>
   <g id="patch_26">
    <path clip-path="url(#p450831fe7a)" d="M 837.477131 371.142857 
L 855.45842 371.142857 
L 855.45842 369.591463 
L 837.477131 369.591463 
z
" style="stroke:#000000;stroke-linejoin:miter;stroke-width:2;"/>
   </g>
   <g id="patch_27">
    <path clip-path="url(#p450831fe7a)" d="M 873.439709 371.142857 
L 891.420998 371.142857 
L 891.420998 369.901742 
L 873.439709 369.901742 
z
" style="stroke:#000000;stroke-linejoin:miter;stroke-width:2;"/>
   </g>
   <g id="patch_28">
    <path clip-path="url(#p450831fe7a)" d="M 909.402287 371.142857 
L 927.383576 371.142857 
L 927.383576 369.901742 
L 909.402287 369.901742 
z
" style="stroke:#000000;stroke-linejoin:miter;stroke-width:2;"/>
   </g>
   <g id="patch_29">
    <path clip-path="url(#p450831fe7a)" d="M 945.364865 371.142857 
L 963.346154 371.142857 
L 963.346154 369.901742 
L 945.364865 369.901742 
z
" style="stroke:#000000;stroke-linejoin:miter;stroke-width:2;"/>
   </g>
   <g id="patch_30">
    <path clip-path="url(#p450831fe7a)" d="M 981.327443 371.142857 
L 999.308732 371.142857 
L 999.308732 369.901742 
L 981.327443 369.901742 
z
" style="stroke:#000000;stroke-linejoin:miter;stroke-width:2;"/>
   </g>
   <g id="patch_31">
    <path clip-path="url(#p450831fe7a)" d="M 1017.290021 371.142857 
L 1035.27131 371.142857 
L 1035.27131 370.212021 
L 1017.290021 370.212021 
z
" style="stroke:#000000;stroke-linejoin:miter;stroke-width:2;"/>
   </g>
   <g id="patch_32">
    <path clip-path="url(#p450831fe7a)" d="M 1053.252599 371.142857 
L 1071.233888 371.142857 
L 1071.233888 370.212021 
L 1053.252599 370.212021 
z
" style="stroke:#000000;stroke-linejoin:miter;stroke-width:2;"/>
   </g>
   <g id="patch_33">
    <path clip-path="url(#p450831fe7a)" d="M 1089.215177 371.142857 
L 1107.196466 371.142857 
L 1107.196466 370.5223 
L 1089.215177 370.5223 
z
" style="stroke:#000000;stroke-linejoin:miter;stroke-width:2;"/>
   </g>
   <g id="patch_34">
    <path clip-path="url(#p450831fe7a)" d="M 1125.177755 371.142857 
L 1143.159044 371.142857 
L 1143.159044 370.5223 
L 1125.177755 370.5223 
z
" style="stroke:#000000;stroke-linejoin:miter;stroke-width:2;"/>
   </g>
   <g id="patch_35">
    <path clip-path="url(#p450831fe7a)" d="M 1161.140333 371.142857 
L 1179.121622 371.142857 
L 1179.121622 370.832578 
L 1161.140333 370.832578 
z
" style="stroke:#000000;stroke-linejoin:miter;stroke-width:2;"/>
   </g>
   <g id="patch_36">
    <path clip-path="url(#p450831fe7a)" d="M 1197.102911 371.142857 
L 1215.0842 371.142857 
L 1215.0842 370.832578 
L 1197.102911 370.832578 
z
" style="stroke:#000000;stroke-linejoin:miter;stroke-width:2;"/>
   </g>
   <g id="patch_37">
    <path clip-path="url(#p450831fe7a)" d="M 1233.065489 371.142857 
L 1251.046778 371.142857 
L 1251.046778 370.832578 
L 1233.065489 370.832578 
z
" style="stroke:#000000;stroke-linejoin:miter;stroke-width:2;"/>
   </g>
   <g id="patch_38">
    <path clip-path="url(#p450831fe7a)" d="M 1269.028067 371.142857 
L 1287.009356 371.142857 
L 1287.009356 370.832578 
L 1269.028067 370.832578 
z
" style="stroke:#000000;stroke-linejoin:miter;stroke-width:2;"/>
   </g>
  </g>
 </g>
 <defs>
  <clipPath id="pbb10628ac5">
   <rect height="232.971429" width="1116" x="180" y="397.028571"/>
  </clipPath>
  <clipPath id="p2c0f693828">
   <rect height="232.971429" width="935.027027" x="360.972973" y="397.028571"/>
  </clipPath>
  <clipPath id="pd6795cdc3c">
   <rect height="232.971429" width="66.356757" x="180" y="397.028571"/>
  </clipPath>
  <clipPath id="p450831fe7a">
   <rect height="284.742857" width="935.027027" x="360.972973" y="86.4"/>
  </clipPath>
 </defs>
</svg>
